{"glyphs":{"0":{"ha":725,"x_min":107,"x_max":618,"o":"m 353 -14 q 220 24 269 -14 q 147 128 171 61 q 115 283 122 194 q 107 476 107 372 q 113 631 107 557 q 135 769 119 706 q 181 881 151 833 q 257 956 210 929 q 372 982 304 982 q 485 956 440 982 q 557 882 531 929 q 597 771 583 835 q 614 632 610 707 q 618 475 618 557 q 609 291 618 379 q 574 134 600 203 q 494 26 547 65 q 353 -14 440 -14 m 358 67 q 444 94 411 67 q 493 174 476 121 q 516 307 510 228 q 522 490 522 386 q 517 657 522 582 q 497 786 513 732 q 451 869 482 840 q 368 897 421 897 q 283 866 315 897 q 235 777 251 835 q 212 642 218 719 q 206 469 206 564 q 216 227 206 315 q 260 103 226 139 q 358 67 293 67 z "},"1":{"ha":444,"x_min":39,"x_max":331,"o":"m 217 0 q 219 88 218 42 q 221 181 219 133 q 223 278 222 229 q 224 377 224 328 q 224 475 224 426 q 224 565 224 515 q 224 668 224 615 q 223 771 224 721 q 221 860 222 821 l 282 964 l 331 964 q 328 859 329 911 q 325 750 326 807 q 323 626 324 693 q 322 474 322 558 q 322 322 322 388 q 324 202 322 256 q 326 100 325 149 q 329 0 328 51 l 217 0 m 44 813 l 39 896 q 99 906 64 900 q 171 919 135 911 q 237 939 207 928 q 282 964 267 950 l 274 842 q 228 831 257 836 q 167 821 200 825 q 102 815 135 817 q 44 813 69 813 z "},"2":{"ha":682,"x_min":71,"x_max":585,"o":"m 158 56 l 74 86 q 170 188 117 133 q 277 304 224 243 q 375 431 331 365 q 447 565 419 497 q 474 703 474 633 q 458 809 474 769 q 413 866 443 849 q 338 883 383 883 q 252 860 285 883 q 204 795 219 836 q 189 699 189 754 q 191 645 189 674 q 199 589 193 617 l 107 588 q 99 644 101 617 q 97 699 97 672 q 113 811 97 761 q 161 897 129 861 q 239 953 193 933 q 343 972 285 972 q 438 956 396 972 q 511 908 481 940 q 558 829 542 876 q 575 719 575 782 q 544 562 575 642 q 465 406 514 482 q 359 263 415 331 q 249 143 303 196 q 158 56 196 90 m 71 -6 l 74 86 q 138 86 101 86 q 215 86 175 86 q 289 87 254 86 q 347 88 324 88 q 390 88 365 88 q 443 90 415 89 q 498 91 471 90 q 547 93 525 92 q 583 96 569 94 l 585 0 q 544 0 572 0 q 483 0 517 0 q 416 0 449 0 q 360 0 383 0 q 332 0 336 0 q 294 -1 317 0 q 247 -1 272 -1 q 197 -2 222 -1 q 148 -3 172 -3 q 104 -4 124 -4 q 71 -6 85 -4 z "},"3":{"ha":632,"x_min":71,"x_max":553,"o":"m 308 -14 q 190 5 236 -14 q 118 52 144 24 q 81 113 92 81 q 71 172 71 146 l 165 174 q 174 135 165 154 q 201 102 183 117 q 247 79 219 88 q 313 71 275 71 q 406 90 375 71 q 447 141 436 110 q 456 207 457 172 q 432 304 454 271 q 369 351 410 338 q 268 364 328 364 q 247 364 261 364 q 215 364 232 364 q 183 363 197 364 q 161 361 168 363 l 158 453 q 178 452 165 453 q 208 451 192 451 q 238 450 224 450 q 261 450 253 450 q 365 484 325 450 q 425 572 406 518 q 444 689 444 626 q 433 795 444 751 q 392 861 422 839 q 303 883 363 883 q 238 872 264 883 q 196 840 211 861 q 174 791 181 819 q 168 726 168 763 l 72 726 q 88 830 71 785 q 135 906 104 875 q 210 952 167 936 q 306 968 254 968 q 417 948 372 968 q 490 892 463 928 q 531 806 518 856 q 543 697 543 757 q 531 599 543 653 q 486 496 519 544 q 388 417 453 447 q 469 384 432 408 q 528 318 506 360 q 551 218 551 276 q 528 97 553 150 q 449 15 503 44 q 308 -14 396 -14 z "},"4":{"ha":686,"x_min":50,"x_max":633,"o":"m 138 246 l 50 290 q 83 360 67 324 q 117 433 100 396 q 153 510 135 471 q 189 590 171 550 q 233 689 211 639 q 277 788 256 739 q 319 883 299 836 q 360 972 340 929 l 499 967 q 485 956 499 967 q 453 923 471 944 q 422 867 435 901 q 390 798 413 847 q 336 683 367 749 q 272 547 306 617 q 217 426 244 485 q 169 319 190 367 q 138 246 149 272 m 71 197 l 50 290 q 71 290 50 290 q 125 288 92 289 q 198 287 158 288 q 275 286 238 286 q 340 288 313 286 q 426 291 376 289 q 523 295 475 293 q 602 299 571 297 q 633 300 633 300 l 633 204 q 601 204 633 204 q 522 204 569 204 q 424 204 474 204 q 342 204 375 204 q 281 203 315 204 q 209 201 246 203 q 141 199 172 200 q 90 198 110 199 q 71 197 71 197 m 390 -4 q 391 91 390 39 q 392 199 392 143 q 394 313 393 256 q 395 425 394 371 q 396 528 396 479 q 395 640 396 588 q 394 743 394 693 q 392 844 393 793 q 392 954 392 896 l 499 967 q 497 868 499 914 q 495 774 496 822 q 494 667 494 726 q 493 525 493 607 q 494 372 493 440 q 495 242 494 303 q 497 122 496 181 q 497 0 497 64 l 390 -4 z "},"5":{"ha":663,"x_min":81,"x_max":592,"o":"m 319 -14 q 215 3 260 -14 q 140 49 169 19 q 95 117 110 78 q 81 204 81 157 l 178 210 q 188 144 178 175 q 230 93 199 113 q 322 74 261 74 q 417 103 379 74 q 474 189 456 132 q 493 326 493 246 q 480 420 493 374 q 434 497 467 467 q 342 528 401 528 q 281 517 310 528 q 231 482 253 506 q 192 418 208 458 l 174 518 q 219 569 192 547 q 280 604 246 592 q 351 617 314 617 q 474 587 426 617 q 547 510 521 557 q 582 410 572 464 q 592 310 592 357 q 573 170 592 231 q 519 69 554 110 q 433 7 483 28 q 319 -14 383 -14 m 192 418 l 96 413 q 99 481 97 447 q 103 551 100 515 q 107 624 106 586 q 110 701 108 661 q 111 794 111 746 q 111 883 111 842 q 110 949 111 924 q 110 975 110 975 l 217 967 q 213 897 214 928 q 210 835 211 865 q 208 772 208 806 q 206 697 207 739 q 202 625 204 658 q 198 560 200 592 q 194 494 196 528 q 192 418 193 460 m 142 876 l 110 974 q 136 973 110 974 q 201 971 163 972 q 276 969 239 969 q 336 969 314 969 q 402 969 364 969 q 476 968 440 968 q 537 968 513 968 q 561 968 561 968 l 556 878 q 532 878 556 878 q 472 879 508 879 q 400 880 436 879 q 339 881 364 881 q 256 880 293 881 q 194 878 219 879 q 155 877 168 878 q 142 876 142 876 z "},"6":{"ha":697,"x_min":97,"x_max":604,"o":"m 356 -14 q 203 33 260 -14 q 122 182 146 81 q 97 446 97 283 q 117 708 97 603 q 174 875 136 813 q 265 964 211 938 q 385 990 318 990 q 509 956 463 990 q 576 865 556 921 q 597 746 597 810 q 595 702 597 724 q 589 658 593 681 l 492 656 q 496 692 494 674 q 497 729 497 711 q 487 814 497 774 q 450 880 476 854 q 376 906 424 906 q 297 883 329 906 q 245 818 265 861 q 215 712 225 775 q 200 567 204 649 q 196 388 196 486 q 199 276 196 332 q 218 174 203 219 q 267 101 233 129 q 360 74 300 74 q 419 88 392 74 q 465 126 446 101 q 496 187 485 151 q 507 265 507 222 q 472 401 507 356 q 365 446 436 446 q 281 428 318 446 q 223 375 244 411 q 199 282 201 339 l 165 389 q 208 465 182 432 q 274 516 235 497 q 368 535 314 535 q 491 505 438 535 q 574 416 544 475 q 604 268 604 357 q 585 148 604 200 q 532 60 565 96 q 453 5 499 24 q 356 -14 408 -14 z "},"7":{"ha":554,"x_min":40,"x_max":504,"o":"m 157 -1 q 161 158 156 81 q 178 306 167 235 q 207 442 190 376 q 244 565 224 507 q 300 699 269 638 q 365 813 331 761 q 434 903 399 864 q 504 972 469 943 l 504 871 q 442 778 474 828 q 381 668 410 729 q 329 529 353 607 q 296 386 310 465 q 274 211 282 307 q 268 0 267 115 l 157 -1 m 42 874 l 40 972 q 88 970 60 971 q 147 969 115 969 q 209 969 178 969 q 265 969 240 969 q 322 969 289 969 q 388 970 354 969 q 453 972 422 971 q 504 972 483 972 l 494 879 q 444 879 475 879 q 376 878 413 879 q 305 877 339 878 q 247 876 271 876 q 194 876 222 876 q 139 876 167 876 q 86 874 111 875 q 42 874 61 874 z "},"8":{"ha":667,"x_min":69,"x_max":597,"o":"m 322 378 q 202 413 253 378 q 124 511 151 449 q 96 654 96 574 q 119 817 96 743 q 195 937 142 892 q 339 982 249 982 q 477 942 426 982 q 549 831 528 901 q 571 668 571 760 q 540 506 571 571 q 454 410 510 442 q 322 378 399 378 m 321 -14 q 184 15 240 -14 q 99 96 128 44 q 69 213 69 147 q 94 328 69 271 q 178 422 119 385 q 340 460 238 460 q 493 426 438 460 q 573 339 549 393 q 597 224 597 285 q 565 92 597 144 q 470 13 532 39 q 321 -14 408 -14 m 333 67 q 467 106 432 67 q 501 214 501 146 q 459 342 500 303 q 333 378 418 381 q 240 359 278 378 q 184 306 203 340 q 165 222 165 271 q 203 107 165 147 q 333 67 240 67 m 333 460 q 415 487 385 460 q 460 560 446 514 q 474 661 474 606 q 461 799 474 749 q 419 872 449 850 q 338 893 390 893 q 227 838 260 893 q 194 671 194 783 q 208 562 194 610 q 253 487 222 514 q 333 460 283 460 z "},"9":{"ha":697,"x_min":97,"x_max":604,"o":"m 317 -14 q 204 13 250 -14 q 135 86 158 39 q 111 197 111 133 q 111 215 111 206 q 113 235 111 225 l 210 238 q 208 219 208 228 q 208 204 208 211 q 221 131 208 161 q 259 86 233 101 q 325 71 285 71 q 419 106 383 71 q 474 207 456 140 q 499 369 492 274 q 506 589 506 465 q 502 701 506 646 q 483 802 499 757 q 435 875 468 847 q 342 903 401 903 q 260 872 293 903 q 210 788 226 840 q 194 669 194 735 q 208 553 194 603 q 251 475 221 503 q 336 447 282 447 q 422 465 385 447 q 482 518 460 482 q 506 611 504 554 l 539 504 q 496 429 524 463 q 428 377 468 396 q 333 358 388 358 q 204 396 257 358 q 124 503 151 433 q 97 667 97 572 q 128 837 97 764 q 214 950 158 910 q 346 990 269 990 q 499 943 443 990 q 580 795 556 896 q 604 531 604 694 q 585 269 604 374 q 528 101 565 164 q 437 13 490 39 q 317 -14 383 -14 z "},"A":{"ha":649,"x_min":43,"x_max":606,"o":"m 500 -8 q 469 147 486 67 q 436 309 453 226 q 401 475 419 392 q 379 581 390 528 q 358 687 368 635 q 338 790 347 739 q 318 892 328 842 l 250 975 l 400 978 q 417 881 407 935 q 440 763 428 826 q 465 633 451 700 q 493 496 479 565 q 533 314 513 404 q 572 143 553 224 q 606 -1 590 63 l 500 -8 m 140 224 l 140 319 l 496 313 l 496 235 l 140 224 m 140 7 l 43 8 q 76 149 58 69 q 113 317 93 228 q 151 497 132 407 q 190 676 172 589 q 224 841 208 764 q 250 975 239 918 l 400 978 l 326 883 q 298 754 313 821 q 269 620 283 688 q 240 485 254 553 q 206 319 224 401 q 173 159 189 238 q 140 7 157 81 z "},"Á":{"ha":649,"x_min":43,"x_max":606,"o":"m 500 -8 q 469 147 486 67 q 436 309 453 226 q 401 475 419 392 q 379 581 390 528 q 358 687 368 635 q 338 790 347 739 q 318 892 328 842 l 250 975 l 400 978 q 417 881 407 935 q 440 763 428 826 q 465 633 451 700 q 493 496 479 565 q 533 314 513 404 q 572 143 553 224 q 606 -1 590 63 l 500 -8 m 140 224 l 140 319 l 496 313 l 496 235 l 140 224 m 140 7 l 43 8 q 76 149 58 69 q 113 317 93 228 q 151 497 132 407 q 190 676 172 589 q 224 841 208 764 q 250 975 239 918 l 400 978 l 326 883 q 298 754 313 821 q 269 620 283 688 q 240 485 254 553 q 206 319 224 401 q 173 159 189 238 q 140 7 157 81 m 256 1024 l 225 1076 q 274 1103 249 1089 q 326 1135 300 1118 q 363 1158 344 1146 q 399 1181 381 1169 q 432 1204 417 1193 l 482 1125 q 442 1108 463 1117 q 402 1090 422 1099 q 363 1072 382 1081 q 324 1056 343 1064 q 288 1039 306 1047 q 256 1024 271 1031 z "},"Ă":{"ha":649,"x_min":43,"x_max":606,"o":"m 500 -8 q 469 147 486 67 q 436 309 453 226 q 401 475 419 392 q 379 581 390 528 q 358 687 368 635 q 338 790 347 739 q 318 892 328 842 l 250 975 l 400 978 q 417 881 407 935 q 440 763 428 826 q 465 633 451 700 q 493 496 479 565 q 533 314 513 404 q 572 143 553 224 q 606 -1 590 63 l 500 -8 m 140 224 l 140 319 l 496 313 l 496 235 l 140 224 m 140 7 l 43 8 q 76 149 58 69 q 113 317 93 228 q 151 497 132 407 q 190 676 172 589 q 224 841 208 764 q 250 975 239 918 l 400 978 l 326 883 q 298 754 313 821 q 269 620 283 688 q 240 485 254 553 q 206 319 224 401 q 173 159 189 238 q 140 7 157 81 m 325 1047 q 217 1065 269 1047 q 125 1117 165 1082 l 156 1165 q 235 1128 192 1140 q 324 1117 279 1117 q 415 1129 371 1117 q 493 1167 460 1142 l 524 1122 q 435 1066 488 1085 q 325 1047 382 1047 z "},"Ắ":{"ha":649,"x_min":43,"x_max":606,"o":"m 500 -8 q 469 147 486 67 q 436 309 453 226 q 401 475 419 392 q 379 581 390 528 q 358 687 368 635 q 338 790 347 739 q 318 892 328 842 l 250 975 l 400 978 q 417 881 407 935 q 440 763 428 826 q 465 633 451 700 q 493 496 479 565 q 533 314 513 404 q 572 143 553 224 q 606 -1 590 63 l 500 -8 m 140 224 l 140 319 l 496 313 l 496 235 l 140 224 m 140 7 l 43 8 q 76 149 58 69 q 113 317 93 228 q 151 497 132 407 q 190 676 172 589 q 224 841 208 764 q 250 975 239 918 l 400 978 l 326 883 q 298 754 313 821 q 269 620 283 688 q 240 485 254 553 q 206 319 224 401 q 173 159 189 238 q 140 7 157 81 m 325 1047 q 217 1065 269 1047 q 125 1117 165 1082 l 156 1165 q 235 1128 192 1140 q 324 1117 279 1117 q 415 1129 371 1117 q 493 1167 460 1142 l 524 1122 q 435 1066 488 1085 q 325 1047 382 1047 m 301 1182 l 267 1231 q 278 1238 267 1231 q 310 1256 290 1244 q 354 1281 331 1267 q 411 1317 386 1300 q 436 1333 436 1333 l 486 1258 q 473 1253 486 1258 q 439 1242 460 1249 q 397 1225 418 1235 q 356 1206 378 1217 q 317 1189 333 1196 q 301 1182 301 1182 z "},"Ặ":{"ha":649,"x_min":43,"x_max":606,"o":"m 500 -8 q 469 147 486 67 q 436 309 453 226 q 401 475 419 392 q 379 581 390 528 q 358 687 368 635 q 338 790 347 739 q 318 892 328 842 l 250 975 l 400 978 q 417 881 407 935 q 440 763 428 826 q 465 633 451 700 q 493 496 479 565 q 533 314 513 404 q 572 143 553 224 q 606 -1 590 63 l 500 -8 m 140 224 l 140 319 l 496 313 l 496 235 l 140 224 m 140 7 l 43 8 q 76 149 58 69 q 113 317 93 228 q 151 497 132 407 q 190 676 172 589 q 224 841 208 764 q 250 975 239 918 l 400 978 l 326 883 q 298 754 313 821 q 269 620 283 688 q 240 485 254 553 q 206 319 224 401 q 173 159 189 238 q 140 7 157 81 m 275 -225 l 271 -106 l 378 -114 l 374 -224 l 275 -225 m 325 1047 q 217 1065 269 1047 q 125 1117 165 1082 l 156 1165 q 235 1128 192 1140 q 324 1117 279 1117 q 415 1129 371 1117 q 493 1167 460 1142 l 524 1122 q 435 1066 488 1085 q 325 1047 382 1047 z "},"Ằ":{"ha":649,"x_min":43,"x_max":606,"o":"m 500 -8 q 469 147 486 67 q 436 309 453 226 q 401 475 419 392 q 379 581 390 528 q 358 687 368 635 q 338 790 347 739 q 318 892 328 842 l 250 975 l 400 978 q 417 881 407 935 q 440 763 428 826 q 465 633 451 700 q 493 496 479 565 q 533 314 513 404 q 572 143 553 224 q 606 -1 590 63 l 500 -8 m 140 224 l 140 319 l 496 313 l 496 235 l 140 224 m 140 7 l 43 8 q 76 149 58 69 q 113 317 93 228 q 151 497 132 407 q 190 676 172 589 q 224 841 208 764 q 250 975 239 918 l 400 978 l 326 883 q 298 754 313 821 q 269 620 283 688 q 240 485 254 553 q 206 319 224 401 q 173 159 189 238 q 140 7 157 81 m 325 1047 q 253 1055 289 1047 q 184 1078 217 1063 q 125 1117 151 1094 l 156 1165 q 235 1128 192 1140 q 324 1117 279 1117 q 415 1129 371 1117 q 493 1167 460 1142 l 524 1122 q 435 1066 488 1085 q 325 1047 382 1047 m 351 1181 q 335 1188 351 1181 q 297 1205 319 1194 q 256 1224 275 1215 q 215 1240 235 1233 q 181 1252 194 1247 q 167 1257 167 1257 l 217 1332 q 242 1315 217 1332 q 299 1279 267 1299 q 360 1244 335 1258 q 386 1229 386 1229 l 351 1181 z "},"Ẳ":{"ha":649,"x_min":43,"x_max":606,"o":"m 500 -8 q 469 147 486 67 q 436 309 453 226 q 401 475 419 392 q 379 581 390 528 q 358 687 368 635 q 338 790 347 739 q 318 892 328 842 l 250 975 l 400 978 q 417 881 407 935 q 440 763 428 826 q 465 633 451 700 q 493 496 479 565 q 533 314 513 404 q 572 143 553 224 q 606 -1 590 63 l 500 -8 m 140 224 l 140 319 l 496 313 l 496 235 l 140 224 m 140 7 l 43 8 q 76 149 58 69 q 113 317 93 228 q 151 497 132 407 q 190 676 172 589 q 224 841 208 764 q 250 975 239 918 l 400 978 l 326 883 q 298 754 313 821 q 269 620 283 688 q 240 485 254 553 q 206 319 224 401 q 173 159 189 238 q 140 7 157 81 m 325 1047 q 217 1065 269 1047 q 125 1117 165 1082 l 156 1165 q 235 1128 192 1140 q 324 1117 279 1117 q 415 1129 371 1117 q 493 1167 460 1142 l 524 1122 q 435 1066 488 1085 q 325 1047 382 1047 m 292 1179 l 290 1222 q 355 1227 331 1221 q 379 1250 379 1233 q 358 1271 379 1265 q 304 1276 338 1276 q 267 1274 286 1276 q 231 1269 249 1272 l 231 1319 q 269 1324 250 1322 q 306 1325 288 1325 q 372 1318 342 1325 q 421 1296 403 1311 q 439 1253 439 1281 q 403 1199 439 1222 q 292 1179 368 1176 z "},"Ẵ":{"ha":649,"x_min":43,"x_max":606,"o":"m 500 -8 q 469 147 486 67 q 436 309 453 226 q 401 475 419 392 q 379 581 390 528 q 358 687 368 635 q 338 790 347 739 q 318 892 328 842 l 250 975 l 400 978 q 417 881 407 935 q 440 763 428 826 q 465 633 451 700 q 493 496 479 565 q 533 314 513 404 q 572 143 553 224 q 606 -1 590 63 l 500 -8 m 140 224 l 140 319 l 496 313 l 496 235 l 140 224 m 140 7 l 43 8 q 76 149 58 69 q 113 317 93 228 q 151 497 132 407 q 190 676 172 589 q 224 841 208 764 q 250 975 239 918 l 400 978 l 326 883 q 298 754 313 821 q 269 620 283 688 q 240 485 254 553 q 206 319 224 401 q 173 159 189 238 q 140 7 157 81 m 325 1047 q 217 1065 269 1047 q 125 1117 165 1082 l 156 1165 q 235 1128 192 1140 q 324 1117 279 1117 q 415 1129 371 1117 q 493 1167 460 1142 l 524 1122 q 435 1066 488 1085 q 325 1047 382 1047 m 196 1193 l 133 1193 q 151 1251 136 1229 q 190 1281 167 1272 q 242 1290 214 1290 q 322 1276 282 1290 q 397 1261 363 1261 q 430 1267 418 1261 q 444 1290 442 1274 l 507 1290 q 489 1233 504 1254 q 451 1202 474 1211 q 399 1193 428 1193 q 319 1208 358 1193 q 243 1222 279 1222 q 213 1216 222 1222 q 196 1193 203 1210 z "},"Ǎ":{"ha":649,"x_min":43,"x_max":606,"o":"m 500 -8 q 469 147 486 67 q 436 309 453 226 q 401 475 419 392 q 379 581 390 528 q 358 687 368 635 q 338 790 347 739 q 318 892 328 842 l 250 975 l 400 978 q 417 881 407 935 q 440 763 428 826 q 465 633 451 700 q 493 496 479 565 q 533 314 513 404 q 572 143 553 224 q 606 -1 590 63 l 500 -8 m 140 224 l 140 319 l 496 313 l 496 235 l 140 224 m 140 7 l 43 8 q 76 149 58 69 q 113 317 93 228 q 151 497 132 407 q 190 676 172 589 q 224 841 208 764 q 250 975 239 918 l 400 978 l 326 883 q 298 754 313 821 q 269 620 283 688 q 240 485 254 553 q 206 319 224 401 q 173 159 189 238 q 140 7 157 81 m 375 1039 l 278 1042 l 169 1135 l 204 1176 l 326 1106 l 444 1174 l 481 1138 l 375 1039 z "},"Â":{"ha":649,"x_min":43,"x_max":606,"o":"m 500 -8 q 469 147 486 67 q 436 309 453 226 q 401 475 419 392 q 379 581 390 528 q 358 687 368 635 q 338 790 347 739 q 318 892 328 842 l 250 975 l 400 978 q 417 881 407 935 q 440 763 428 826 q 465 633 451 700 q 493 496 479 565 q 533 314 513 404 q 572 143 553 224 q 606 -1 590 63 l 500 -8 m 140 224 l 140 319 l 496 313 l 496 235 l 140 224 m 140 7 l 43 8 q 76 149 58 69 q 113 317 93 228 q 151 497 132 407 q 190 676 172 589 q 224 841 208 764 q 250 975 239 918 l 400 978 l 326 883 q 298 754 313 821 q 269 620 283 688 q 240 485 254 553 q 206 319 224 401 q 173 159 189 238 q 140 7 157 81 m 446 1028 l 324 1099 l 206 1031 l 169 1067 l 275 1165 l 372 1163 l 481 1069 l 446 1028 z "},"Ấ":{"ha":649,"x_min":43,"x_max":606,"o":"m 500 -8 q 469 147 486 67 q 436 309 453 226 q 401 475 419 392 q 379 581 390 528 q 358 687 368 635 q 338 790 347 739 q 318 892 328 842 l 250 975 l 400 978 q 417 881 407 935 q 440 763 428 826 q 465 633 451 700 q 493 496 479 565 q 533 314 513 404 q 572 143 553 224 q 606 -1 590 63 l 500 -8 m 140 224 l 140 319 l 496 313 l 496 235 l 140 224 m 140 7 l 43 8 q 76 149 58 69 q 113 317 93 228 q 151 497 132 407 q 190 676 172 589 q 224 841 208 764 q 250 975 239 918 l 400 978 l 326 883 q 298 754 313 821 q 269 620 283 688 q 240 485 254 553 q 206 319 224 401 q 173 159 189 238 q 140 7 157 81 m 447 1028 l 325 1099 l 207 1031 l 171 1067 l 276 1165 l 374 1163 l 482 1069 l 447 1028 m 315 1197 l 281 1246 q 292 1253 281 1246 q 324 1271 304 1260 q 368 1296 344 1282 q 425 1332 400 1315 q 450 1349 450 1349 l 500 1274 q 487 1269 500 1274 q 453 1257 474 1264 q 411 1240 432 1250 q 369 1222 392 1232 q 331 1204 347 1211 q 315 1197 315 1197 z "},"Ậ":{"ha":649,"x_min":43,"x_max":606,"o":"m 500 -8 q 469 147 486 67 q 436 309 453 226 q 401 475 419 392 q 379 581 390 528 q 358 687 368 635 q 338 790 347 739 q 318 892 328 842 l 250 975 l 400 978 q 417 881 407 935 q 440 763 428 826 q 465 633 451 700 q 493 496 479 565 q 533 314 513 404 q 572 143 553 224 q 606 -1 590 63 l 500 -8 m 140 224 l 140 319 l 496 313 l 496 235 l 140 224 m 140 7 l 43 8 q 76 149 58 69 q 113 317 93 228 q 151 497 132 407 q 190 676 172 589 q 224 841 208 764 q 250 975 239 918 l 400 978 l 326 883 q 298 754 313 821 q 269 620 283 688 q 240 485 254 553 q 206 319 224 401 q 173 159 189 238 q 140 7 157 81 m 275 -225 l 271 -106 l 378 -114 l 374 -224 l 275 -225 m 446 1028 l 324 1099 l 206 1031 l 169 1067 l 275 1165 l 372 1163 l 481 1069 l 446 1028 z "},"Ầ":{"ha":649,"x_min":43,"x_max":606,"o":"m 500 -8 q 469 147 486 67 q 436 309 453 226 q 401 475 419 392 q 379 581 390 528 q 358 687 368 635 q 338 790 347 739 q 318 892 328 842 l 250 975 l 400 978 q 417 881 407 935 q 440 763 428 826 q 465 633 451 700 q 493 496 479 565 q 533 314 513 404 q 572 143 553 224 q 606 -1 590 63 l 500 -8 m 140 224 l 140 319 l 496 313 l 496 235 l 140 224 m 140 7 l 43 8 q 76 149 58 69 q 113 317 93 228 q 151 497 132 407 q 190 676 172 589 q 224 841 208 764 q 250 975 239 918 l 400 978 l 326 883 q 298 754 313 821 q 269 620 283 688 q 240 485 254 553 q 206 319 224 401 q 173 159 189 238 q 140 7 157 81 m 446 1028 l 324 1099 l 206 1031 l 169 1067 l 275 1165 l 372 1163 l 481 1069 l 446 1028 m 344 1197 q 328 1204 344 1197 q 290 1222 313 1211 q 249 1240 268 1232 q 208 1257 228 1250 q 174 1269 188 1264 q 160 1274 160 1274 l 210 1349 q 235 1332 210 1349 q 292 1296 260 1315 q 335 1271 315 1282 q 367 1253 356 1260 q 379 1246 379 1246 l 344 1197 z "},"Ẩ":{"ha":649,"x_min":43,"x_max":606,"o":"m 500 -8 q 469 147 486 67 q 436 309 453 226 q 401 475 419 392 q 379 581 390 528 q 358 687 368 635 q 338 790 347 739 q 318 892 328 842 l 250 975 l 400 978 q 417 881 407 935 q 440 763 428 826 q 465 633 451 700 q 493 496 479 565 q 533 314 513 404 q 572 143 553 224 q 606 -1 590 63 l 500 -8 m 140 224 l 140 319 l 496 313 l 496 235 l 140 224 m 140 7 l 43 8 q 76 149 58 69 q 113 317 93 228 q 151 497 132 407 q 190 676 172 589 q 224 841 208 764 q 250 975 239 918 l 400 978 l 326 883 q 298 754 313 821 q 269 620 283 688 q 240 485 254 553 q 206 319 224 401 q 173 159 189 238 q 140 7 157 81 m 446 1028 l 324 1099 l 206 1031 l 169 1067 l 275 1165 l 372 1163 l 481 1069 l 446 1028 m 290 1203 l 289 1246 q 353 1251 329 1244 q 378 1274 378 1257 q 357 1294 378 1289 q 303 1300 336 1300 q 266 1298 285 1300 q 229 1293 247 1296 l 229 1343 q 267 1347 249 1346 q 304 1349 286 1349 q 371 1342 340 1349 q 419 1319 401 1335 q 438 1276 438 1304 q 402 1223 438 1246 q 290 1203 367 1200 z "},"Ẫ":{"ha":649,"x_min":43,"x_max":606,"o":"m 500 -8 q 469 147 486 67 q 436 309 453 226 q 401 475 419 392 q 379 581 390 528 q 358 687 368 635 q 338 790 347 739 q 318 892 328 842 l 250 975 l 400 978 q 417 881 407 935 q 440 763 428 826 q 465 633 451 700 q 493 496 479 565 q 533 314 513 404 q 572 143 553 224 q 606 -1 590 63 l 500 -8 m 140 224 l 140 319 l 496 313 l 496 235 l 140 224 m 140 7 l 43 8 q 76 149 58 69 q 113 317 93 228 q 151 497 132 407 q 190 676 172 589 q 224 841 208 764 q 250 975 239 918 l 400 978 l 326 883 q 298 754 313 821 q 269 620 283 688 q 240 485 254 553 q 206 319 224 401 q 173 159 189 238 q 140 7 157 81 m 447 1028 l 325 1099 l 207 1031 l 171 1067 l 276 1165 l 374 1163 l 482 1069 l 447 1028 m 203 1200 l 140 1200 q 158 1258 143 1236 q 197 1288 174 1279 q 249 1297 221 1297 q 329 1283 289 1297 q 404 1268 369 1268 q 437 1274 425 1268 q 451 1297 449 1281 l 514 1297 q 496 1240 511 1261 q 458 1209 481 1218 q 406 1200 435 1200 q 326 1215 365 1200 q 250 1229 286 1229 q 219 1223 229 1229 q 203 1200 210 1217 z "},"Ȁ":{"ha":649,"x_min":43,"x_max":606,"o":"m 500 -8 q 469 147 486 67 q 436 309 453 226 q 401 475 419 392 q 379 581 390 528 q 358 687 368 635 q 338 790 347 739 q 318 892 328 842 l 250 975 l 400 978 q 417 881 407 935 q 440 763 428 826 q 465 633 451 700 q 493 496 479 565 q 533 314 513 404 q 572 143 553 224 q 606 -1 590 63 l 500 -8 m 140 224 l 140 319 l 496 313 l 496 235 l 140 224 m 140 7 l 43 8 q 76 149 58 69 q 113 317 93 228 q 151 497 132 407 q 190 676 172 589 q 224 841 208 764 q 250 975 239 918 l 400 978 l 326 883 q 298 754 313 821 q 269 620 283 688 q 240 485 254 553 q 206 319 224 401 q 173 159 189 238 q 140 7 157 81 m 426 1039 q 416 1049 426 1039 q 391 1072 406 1058 q 363 1094 376 1085 q 333 1116 349 1104 q 305 1136 317 1128 q 293 1144 293 1144 l 356 1204 q 365 1193 356 1204 q 388 1167 374 1182 q 415 1138 401 1151 q 442 1111 431 1124 q 462 1092 454 1099 q 469 1085 469 1085 l 426 1039 m 232 1025 q 222 1035 232 1025 q 197 1058 211 1044 q 168 1081 182 1071 q 138 1102 154 1090 q 110 1122 122 1114 q 99 1131 99 1131 l 161 1190 q 170 1179 161 1190 q 193 1153 179 1168 q 221 1124 207 1138 q 248 1097 236 1110 q 267 1078 260 1085 q 275 1071 275 1071 l 232 1025 z "},"Ä":{"ha":649,"x_min":43,"x_max":606,"o":"m 500 -8 q 469 147 486 67 q 436 309 453 226 q 401 475 419 392 q 379 581 390 528 q 358 687 368 635 q 338 790 347 739 q 318 892 328 842 l 250 975 l 400 978 q 417 881 407 935 q 440 763 428 826 q 465 633 451 700 q 493 496 479 565 q 533 314 513 404 q 572 143 553 224 q 606 -1 590 63 l 500 -8 m 140 224 l 140 319 l 496 313 l 496 235 l 140 224 m 140 7 l 43 8 q 76 149 58 69 q 113 317 93 228 q 151 497 132 407 q 190 676 172 589 q 224 841 208 764 q 250 975 239 918 l 400 978 l 326 883 q 298 754 313 821 q 269 620 283 688 q 240 485 254 553 q 206 319 224 401 q 173 159 189 238 q 140 7 157 81 m 142 1165 l 231 1156 l 226 1047 l 144 1046 l 142 1165 m 418 1165 l 507 1156 l 503 1047 l 421 1046 l 418 1165 z "},"Ạ":{"ha":649,"x_min":43,"x_max":606,"o":"m 500 -8 q 469 147 486 67 q 436 309 453 226 q 401 475 419 392 q 379 581 390 528 q 358 687 368 635 q 338 790 347 739 q 318 892 328 842 l 250 975 l 400 978 q 417 881 407 935 q 440 763 428 826 q 465 633 451 700 q 493 496 479 565 q 533 314 513 404 q 572 143 553 224 q 606 -1 590 63 l 500 -8 m 140 224 l 140 319 l 496 313 l 496 235 l 140 224 m 140 7 l 43 8 q 76 149 58 69 q 113 317 93 228 q 151 497 132 407 q 190 676 172 589 q 224 841 208 764 q 250 975 239 918 l 400 978 l 326 883 q 298 754 313 821 q 269 620 283 688 q 240 485 254 553 q 206 319 224 401 q 173 159 189 238 q 140 7 157 81 m 275 -225 l 271 -106 l 378 -114 l 374 -224 l 275 -225 z "},"À":{"ha":649,"x_min":43,"x_max":606,"o":"m 500 -8 q 469 147 486 67 q 436 309 453 226 q 401 475 419 392 q 379 581 390 528 q 358 687 368 635 q 338 790 347 739 q 318 892 328 842 l 250 975 l 400 978 q 417 881 407 935 q 440 763 428 826 q 465 633 451 700 q 493 496 479 565 q 533 314 513 404 q 572 143 553 224 q 606 -1 590 63 l 500 -8 m 140 224 l 140 319 l 496 313 l 496 235 l 140 224 m 140 7 l 43 8 q 76 149 58 69 q 113 317 93 228 q 151 497 132 407 q 190 676 172 589 q 224 841 208 764 q 250 975 239 918 l 400 978 l 326 883 q 298 754 313 821 q 269 620 283 688 q 240 485 254 553 q 206 319 224 401 q 173 159 189 238 q 140 7 157 81 m 399 1018 q 366 1033 383 1025 q 330 1049 349 1040 q 292 1067 311 1058 q 252 1085 272 1076 q 212 1102 232 1093 q 172 1119 192 1111 l 222 1199 q 274 1163 246 1182 q 328 1129 301 1144 q 381 1099 356 1114 q 429 1071 407 1083 l 399 1018 z "},"Ả":{"ha":649,"x_min":43,"x_max":606,"o":"m 500 -8 q 469 147 486 67 q 436 309 453 226 q 401 475 419 392 q 379 581 390 528 q 358 687 368 635 q 338 790 347 739 q 318 892 328 842 l 250 975 l 400 978 q 417 881 407 935 q 440 763 428 826 q 465 633 451 700 q 493 496 479 565 q 533 314 513 404 q 572 143 553 224 q 606 -1 590 63 l 500 -8 m 140 224 l 140 319 l 496 313 l 496 235 l 140 224 m 140 7 l 43 8 q 76 149 58 69 q 113 317 93 228 q 151 497 132 407 q 190 676 172 589 q 224 841 208 764 q 250 975 239 918 l 400 978 l 326 883 q 298 754 313 821 q 269 620 283 688 q 240 485 254 553 q 206 319 224 401 q 173 159 189 238 q 140 7 157 81 m 283 1024 l 282 1067 q 347 1072 322 1065 q 371 1094 371 1078 q 350 1115 371 1110 q 296 1121 329 1121 q 259 1119 278 1121 q 222 1114 240 1117 l 222 1164 q 260 1168 242 1167 q 297 1169 279 1169 q 391 1153 351 1169 q 431 1097 431 1138 q 395 1044 431 1067 q 283 1024 360 1021 z "},"Ȃ":{"ha":649,"x_min":43,"x_max":606,"o":"m 500 -8 q 469 147 486 67 q 436 309 453 226 q 401 475 419 392 q 379 581 390 528 q 358 687 368 635 q 338 790 347 739 q 318 892 328 842 l 250 975 l 400 978 q 417 881 407 935 q 440 763 428 826 q 465 633 451 700 q 493 496 479 565 q 533 314 513 404 q 572 143 553 224 q 606 -1 590 63 l 500 -8 m 140 224 l 140 319 l 496 313 l 496 235 l 140 224 m 140 7 l 43 8 q 76 149 58 69 q 113 317 93 228 q 151 497 132 407 q 190 676 172 589 q 224 841 208 764 q 250 975 239 918 l 400 978 l 326 883 q 298 754 313 821 q 269 620 283 688 q 240 485 254 553 q 206 319 224 401 q 173 159 189 238 q 140 7 157 81 m 156 1038 l 125 1082 q 215 1138 161 1119 q 324 1157 268 1157 q 432 1140 379 1157 q 524 1088 485 1122 l 493 1039 q 414 1076 458 1064 q 325 1088 369 1088 q 233 1075 278 1088 q 156 1038 189 1063 z "},"Ā":{"ha":649,"x_min":43,"x_max":606,"o":"m 500 -8 q 469 147 486 67 q 436 309 453 226 q 401 475 419 392 q 379 581 390 528 q 358 687 368 635 q 338 790 347 739 q 318 892 328 842 l 250 975 l 400 978 q 417 881 407 935 q 440 763 428 826 q 465 633 451 700 q 493 496 479 565 q 533 314 513 404 q 572 143 553 224 q 606 -1 590 63 l 500 -8 m 140 224 l 140 319 l 496 313 l 496 235 l 140 224 m 140 7 l 43 8 q 76 149 58 69 q 113 317 93 228 q 151 497 132 407 q 190 676 172 589 q 224 841 208 764 q 250 975 239 918 l 400 978 l 326 883 q 298 754 313 821 q 269 620 283 688 q 240 485 254 553 q 206 319 224 401 q 173 159 189 238 q 140 7 157 81 m 168 1067 l 168 1140 l 475 1136 l 482 1071 l 168 1067 z "},"Ą":{"ha":649,"x_min":43,"x_max":633,"o":"m 500 -8 q 469 147 486 67 q 436 309 453 226 q 401 475 419 392 q 379 581 390 528 q 358 687 368 635 q 338 790 347 739 q 318 892 328 842 l 250 975 l 400 978 q 417 881 407 935 q 440 763 428 826 q 465 633 451 700 q 493 496 479 565 q 533 314 513 404 q 572 143 553 224 q 606 -1 590 63 l 500 -8 m 140 224 l 140 319 l 496 313 l 496 235 l 140 224 m 140 7 l 43 8 q 76 149 58 69 q 113 317 93 228 q 151 497 132 407 q 190 676 172 589 q 224 841 208 764 q 250 975 239 918 l 400 978 l 326 883 q 298 754 313 821 q 269 620 283 688 q 240 485 254 553 q 206 319 224 401 q 173 159 189 238 q 140 7 157 81 m 546 -176 q 444 -159 488 -176 q 400 -101 400 -142 q 421 -53 400 -76 q 470 -12 442 -29 q 524 11 499 6 l 593 4 q 551 -8 581 4 q 498 -40 522 -19 q 474 -83 474 -60 q 497 -108 474 -101 q 551 -115 521 -115 q 595 -113 571 -115 q 633 -110 619 -111 l 633 -168 q 591 -174 613 -172 q 546 -176 569 -176 z "},"Å":{"ha":649,"x_min":43,"x_max":606,"o":"m 500 -8 q 469 147 486 67 q 436 309 453 226 q 401 475 419 392 q 379 581 390 528 q 358 687 368 635 q 338 790 347 739 q 318 892 328 842 l 250 975 l 400 978 q 417 881 407 935 q 440 763 428 826 q 465 633 451 700 q 493 496 479 565 q 533 314 513 404 q 572 143 553 224 q 606 -1 590 63 l 500 -8 m 140 224 l 140 319 l 496 313 l 496 235 l 140 224 m 140 7 l 43 8 q 76 149 58 69 q 113 317 93 228 q 151 497 132 407 q 190 676 172 589 q 224 841 208 764 q 250 975 239 918 l 400 978 l 326 883 q 298 754 313 821 q 269 620 283 688 q 240 485 254 553 q 206 319 224 401 q 173 159 189 238 q 140 7 157 81 m 325 1025 q 267 1033 292 1025 q 228 1057 242 1042 q 215 1094 215 1072 q 244 1154 215 1132 q 322 1176 274 1176 q 401 1157 371 1176 q 431 1106 431 1138 q 401 1048 431 1071 q 325 1025 372 1025 m 325 1067 q 349 1070 338 1067 q 367 1082 360 1074 q 374 1103 374 1090 q 358 1128 374 1121 q 322 1135 342 1135 q 286 1126 300 1135 q 272 1103 272 1118 q 278 1083 272 1090 q 297 1071 285 1075 q 325 1067 308 1067 z "},"Ǻ":{"ha":649,"x_min":43,"x_max":606,"o":"m 500 -8 q 469 147 486 67 q 436 309 453 226 q 401 475 419 392 q 379 581 390 528 q 358 687 368 635 q 338 790 347 739 q 318 892 328 842 l 250 975 l 400 978 q 417 881 407 935 q 440 763 428 826 q 465 633 451 700 q 493 496 479 565 q 533 314 513 404 q 572 143 553 224 q 606 -1 590 63 l 500 -8 m 140 224 l 140 319 l 496 313 l 496 235 l 140 224 m 140 7 l 43 8 q 76 149 58 69 q 113 317 93 228 q 151 497 132 407 q 190 676 172 589 q 224 841 208 764 q 250 975 239 918 l 400 978 l 326 883 q 298 754 313 821 q 269 620 283 688 q 240 485 254 553 q 206 319 224 401 q 173 159 189 238 q 140 7 157 81 m 326 1025 q 268 1033 293 1025 q 230 1057 243 1042 q 217 1094 217 1072 q 246 1154 217 1132 q 324 1176 275 1176 q 402 1157 372 1176 q 432 1106 432 1138 q 403 1048 432 1071 q 326 1025 374 1025 m 326 1067 q 350 1070 339 1067 q 368 1082 361 1074 q 375 1103 375 1090 q 359 1128 375 1121 q 324 1135 343 1135 q 288 1126 301 1135 q 274 1103 274 1118 q 280 1083 274 1090 q 298 1071 286 1075 q 326 1067 310 1067 m 276 1213 l 242 1261 q 268 1276 242 1261 q 329 1311 294 1290 q 386 1347 361 1331 q 411 1364 411 1364 l 461 1289 q 448 1284 461 1289 q 414 1272 435 1279 q 372 1256 393 1265 q 331 1237 353 1247 q 292 1219 308 1226 q 276 1213 276 1213 z "},"Ã":{"ha":649,"x_min":43,"x_max":606,"o":"m 500 -8 q 469 147 486 67 q 436 309 453 226 q 401 475 419 392 q 379 581 390 528 q 358 687 368 635 q 338 790 347 739 q 318 892 328 842 l 250 975 l 400 978 q 417 881 407 935 q 440 763 428 826 q 465 633 451 700 q 493 496 479 565 q 533 314 513 404 q 572 143 553 224 q 606 -1 590 63 l 500 -8 m 140 224 l 140 319 l 496 313 l 496 235 l 140 224 m 140 7 l 43 8 q 76 149 58 69 q 113 317 93 228 q 151 497 132 407 q 190 676 172 589 q 224 841 208 764 q 250 975 239 918 l 400 978 l 326 883 q 298 754 313 821 q 269 620 283 688 q 240 485 254 553 q 206 319 224 401 q 173 159 189 238 q 140 7 157 81 m 200 1053 l 138 1053 q 156 1110 140 1089 q 194 1141 171 1132 q 246 1150 218 1150 q 326 1135 286 1150 q 401 1121 367 1121 q 434 1127 422 1121 q 449 1150 446 1133 l 511 1150 q 493 1092 508 1114 q 455 1062 478 1071 q 403 1053 432 1053 q 323 1067 363 1053 q 247 1082 283 1082 q 217 1076 226 1082 q 200 1053 207 1069 z "},"Æ":{"ha":907,"x_min":43,"x_max":840,"o":"m 43 1 q 78 95 58 40 q 120 214 97 150 q 167 347 143 278 q 213 481 190 415 q 271 662 243 569 q 322 835 299 754 q 357 969 344 917 l 824 963 l 824 869 l 532 868 q 532 788 532 828 q 531 707 532 747 q 531 626 531 667 q 531 546 531 586 l 531 376 l 836 372 l 833 288 l 531 283 l 533 90 l 840 85 l 840 0 l 424 -6 l 428 221 l 231 218 q 196 108 213 163 q 161 -1 179 54 l 43 1 m 428 301 l 429 543 q 428 650 429 596 q 427 754 428 704 q 425 840 426 804 q 390 735 410 797 q 349 601 371 672 q 304 458 326 529 q 279 381 292 419 q 256 303 267 342 l 428 301 z "},"Ǽ":{"ha":907,"x_min":43,"x_max":840,"o":"m 43 1 q 78 95 58 40 q 120 214 97 150 q 167 347 143 278 q 213 481 190 415 q 271 662 243 569 q 322 835 299 754 q 357 969 344 917 l 824 963 l 824 869 l 532 868 q 532 788 532 828 q 531 707 532 747 q 531 626 531 667 q 531 546 531 586 l 531 376 l 836 372 l 833 288 l 531 283 l 533 90 l 840 85 l 840 0 l 424 -6 l 428 221 l 231 218 q 196 108 213 163 q 161 -1 179 54 l 43 1 m 428 301 l 429 543 q 428 650 429 596 q 427 754 428 704 q 425 840 426 804 q 390 735 410 797 q 349 601 371 672 q 304 458 326 529 q 279 381 292 419 q 256 303 267 342 l 428 301 m 475 1024 l 444 1076 q 494 1103 468 1089 q 546 1135 519 1118 q 582 1158 564 1146 q 618 1181 600 1169 q 651 1204 636 1193 l 701 1125 q 662 1108 682 1117 q 622 1090 642 1099 q 582 1072 601 1081 q 544 1056 563 1064 q 508 1039 525 1047 q 475 1024 490 1031 z "},"B":{"ha":642,"x_min":107,"x_max":574,"o":"m 185 293 l 179 364 q 312 379 257 364 q 401 428 367 394 q 451 516 435 461 q 467 651 467 571 q 449 803 467 746 q 389 888 431 861 q 274 914 347 914 q 213 910 246 914 q 143 900 181 907 l 111 990 q 192 997 154 994 q 265 999 231 999 q 438 969 372 999 q 533 865 503 939 q 564 656 564 790 q 538 491 564 560 q 462 378 511 422 q 342 314 413 335 q 185 293 272 293 m 263 -14 q 213 -13 239 -14 q 161 -11 188 -12 q 107 -8 135 -10 l 154 83 q 234 76 194 79 q 308 72 274 72 q 394 81 357 72 q 454 112 432 89 q 476 175 476 135 q 461 231 476 207 q 406 269 446 256 q 290 283 367 283 q 261 283 283 283 q 217 284 239 283 q 185 283 194 285 l 179 364 q 415 345 329 367 q 538 281 501 324 q 574 172 574 238 q 533 56 574 96 q 422 1 492 15 q 263 -14 351 -14 m 107 -8 q 108 31 107 -8 q 110 138 108 71 q 112 290 111 206 q 113 463 113 374 q 113 644 113 551 q 112 816 113 738 q 111 942 111 894 q 111 990 111 990 l 219 978 q 218 941 219 978 q 215 844 217 904 q 212 715 214 785 q 208 580 210 646 q 207 465 207 514 q 208 354 207 415 q 210 232 208 293 q 212 119 211 171 q 213 37 213 68 q 214 6 214 6 l 107 -8 z "},"C":{"ha":633,"x_min":88,"x_max":560,"o":"m 335 -14 q 219 12 265 -14 q 147 85 174 38 q 107 197 121 133 q 94 281 99 236 q 89 373 90 325 q 88 472 88 421 q 88 545 88 508 q 92 617 89 582 q 99 687 94 653 q 113 751 104 721 q 156 867 128 817 q 232 945 185 917 q 349 974 279 974 q 478 938 432 974 q 542 840 524 901 q 560 701 560 779 q 554 598 560 651 q 540 489 549 544 l 444 490 q 452 551 449 519 q 458 617 456 583 q 460 683 460 651 q 450 792 460 746 q 415 865 440 839 q 343 890 389 890 q 250 843 283 890 q 203 721 217 796 q 194 658 197 692 q 190 592 192 625 q 188 526 189 558 q 188 467 188 494 q 190 332 188 397 q 201 218 192 267 q 243 108 217 146 q 333 71 269 71 q 410 88 383 71 q 447 137 436 104 q 457 217 457 169 q 456 251 457 232 q 453 289 454 271 l 544 289 q 549 252 547 271 q 551 215 551 233 q 527 97 551 149 q 455 16 503 46 q 335 -14 407 -14 z "},"Ć":{"ha":633,"x_min":88,"x_max":560,"o":"m 335 -14 q 219 12 265 -14 q 147 85 174 38 q 107 197 121 133 q 94 281 99 236 q 89 373 90 325 q 88 472 88 421 q 88 545 88 508 q 92 617 89 582 q 99 687 94 653 q 113 751 104 721 q 156 867 128 817 q 232 945 185 917 q 349 974 279 974 q 478 938 432 974 q 542 840 524 901 q 560 701 560 779 q 554 598 560 651 q 540 489 549 544 l 444 490 q 452 551 449 519 q 458 617 456 583 q 460 683 460 651 q 450 792 460 746 q 415 865 440 839 q 343 890 389 890 q 250 843 283 890 q 203 721 217 796 q 194 658 197 692 q 190 592 192 625 q 188 526 189 558 q 188 467 188 494 q 190 332 188 397 q 201 218 192 267 q 243 108 217 146 q 333 71 269 71 q 410 88 383 71 q 447 137 436 104 q 457 217 457 169 q 456 251 457 232 q 453 289 454 271 l 544 289 q 549 252 547 271 q 551 215 551 233 q 527 97 551 149 q 455 16 503 46 q 335 -14 407 -14 m 268 1024 l 238 1076 q 287 1103 261 1089 q 339 1135 313 1118 q 375 1158 357 1146 q 411 1181 393 1169 q 444 1204 429 1193 l 494 1125 q 455 1108 475 1117 q 415 1090 435 1099 q 375 1072 394 1081 q 337 1056 356 1064 q 301 1039 318 1047 q 268 1024 283 1031 z "},"Č":{"ha":633,"x_min":88,"x_max":560,"o":"m 335 -14 q 219 12 265 -14 q 147 85 174 38 q 107 197 121 133 q 94 281 99 236 q 89 373 90 325 q 88 472 88 421 q 88 545 88 508 q 92 617 89 582 q 99 687 94 653 q 113 751 104 721 q 156 867 128 817 q 232 945 185 917 q 349 974 279 974 q 478 938 432 974 q 542 840 524 901 q 560 701 560 779 q 554 598 560 651 q 540 489 549 544 l 444 490 q 452 551 449 519 q 458 617 456 583 q 460 683 460 651 q 450 792 460 746 q 415 865 440 839 q 343 890 389 890 q 250 843 283 890 q 203 721 217 796 q 194 658 197 692 q 190 592 192 625 q 188 526 189 558 q 188 467 188 494 q 190 332 188 397 q 201 218 192 267 q 243 108 217 146 q 333 71 269 71 q 410 88 383 71 q 447 137 436 104 q 457 217 457 169 q 456 251 457 232 q 453 289 454 271 l 544 289 q 549 252 547 271 q 551 215 551 233 q 527 97 551 149 q 455 16 503 46 q 335 -14 407 -14 m 388 1039 l 290 1042 l 182 1135 l 217 1176 l 339 1106 l 457 1174 l 493 1138 l 388 1039 z "},"Ç":{"ha":633,"x_min":88,"x_max":560,"o":"m 335 -14 q 219 12 265 -14 q 147 85 174 38 q 107 197 121 133 q 94 281 99 236 q 89 373 90 325 q 88 472 88 421 q 88 545 88 508 q 92 617 89 582 q 99 687 94 653 q 113 751 104 721 q 156 867 128 817 q 232 945 185 917 q 349 974 279 974 q 478 938 432 974 q 542 840 524 901 q 560 701 560 779 q 554 598 560 651 q 540 489 549 544 l 444 490 q 452 551 449 519 q 458 617 456 583 q 460 683 460 651 q 450 792 460 746 q 415 865 440 839 q 343 890 389 890 q 250 843 283 890 q 203 721 217 796 q 194 658 197 692 q 190 592 192 625 q 188 526 189 558 q 188 467 188 494 q 190 332 188 397 q 201 218 192 267 q 243 108 217 146 q 333 71 269 71 q 410 88 383 71 q 447 137 436 104 q 457 217 457 169 q 456 251 457 232 q 453 289 454 271 l 544 289 q 549 252 547 271 q 551 215 551 233 q 527 97 551 149 q 455 16 503 46 q 335 -14 407 -14 m 258 -225 q 219 -224 240 -225 q 179 -222 199 -224 l 193 -160 q 219 -163 204 -161 q 249 -166 233 -165 q 282 -167 265 -167 q 352 -160 321 -167 q 383 -137 383 -154 q 355 -114 383 -122 q 253 -106 326 -106 l 272 -54 q 426 -76 381 -51 q 471 -136 471 -100 q 440 -189 471 -169 q 362 -217 410 -208 q 258 -225 314 -225 m 349 0 l 318 -106 l 253 -106 l 283 0 l 349 0 z "},"Ĉ":{"ha":633,"x_min":88,"x_max":560,"o":"m 335 -14 q 219 12 265 -14 q 147 85 174 38 q 107 197 121 133 q 94 281 99 236 q 89 373 90 325 q 88 472 88 421 q 88 545 88 508 q 92 617 89 582 q 99 687 94 653 q 113 751 104 721 q 156 867 128 817 q 232 945 185 917 q 349 974 279 974 q 478 938 432 974 q 542 840 524 901 q 560 701 560 779 q 554 598 560 651 q 540 489 549 544 l 444 490 q 452 551 449 519 q 458 617 456 583 q 460 683 460 651 q 450 792 460 746 q 415 865 440 839 q 343 890 389 890 q 250 843 283 890 q 203 721 217 796 q 194 658 197 692 q 190 592 192 625 q 188 526 189 558 q 188 467 188 494 q 190 332 188 397 q 201 218 192 267 q 243 108 217 146 q 333 71 269 71 q 410 88 383 71 q 447 137 436 104 q 457 217 457 169 q 456 251 457 232 q 453 289 454 271 l 544 289 q 549 252 547 271 q 551 215 551 233 q 527 97 551 149 q 455 16 503 46 q 335 -14 407 -14 m 458 1028 l 336 1099 l 218 1031 l 182 1067 l 288 1165 l 385 1163 l 493 1069 l 458 1028 z "},"Ċ":{"ha":633,"x_min":88,"x_max":560,"o":"m 335 -14 q 219 12 265 -14 q 147 85 174 38 q 107 197 121 133 q 94 281 99 236 q 89 373 90 325 q 88 472 88 421 q 88 545 88 508 q 92 617 89 582 q 99 687 94 653 q 113 751 104 721 q 156 867 128 817 q 232 945 185 917 q 349 974 279 974 q 478 938 432 974 q 542 840 524 901 q 560 701 560 779 q 554 598 560 651 q 540 489 549 544 l 444 490 q 452 551 449 519 q 458 617 456 583 q 460 683 460 651 q 450 792 460 746 q 415 865 440 839 q 343 890 389 890 q 250 843 283 890 q 203 721 217 796 q 194 658 197 692 q 190 592 192 625 q 188 526 189 558 q 188 467 188 494 q 190 332 188 397 q 201 218 192 267 q 243 108 217 146 q 333 71 269 71 q 410 88 383 71 q 447 137 436 104 q 457 217 457 169 q 456 251 457 232 q 453 289 454 271 l 544 289 q 549 252 547 271 q 551 215 551 233 q 527 97 551 149 q 455 16 503 46 q 335 -14 407 -14 m 289 1069 l 285 1189 l 392 1181 l 388 1071 l 289 1069 z "},"D":{"ha":663,"x_min":107,"x_max":575,"o":"m 260 -14 q 214 -13 238 -14 q 165 -10 190 -12 q 111 -4 139 -7 l 174 89 q 211 83 193 86 q 246 80 229 81 q 278 79 263 79 q 383 103 343 79 q 444 177 424 126 q 471 306 464 228 q 478 492 478 383 q 472 667 478 592 q 447 794 467 743 q 385 872 426 846 q 274 899 344 899 q 213 895 246 899 q 139 883 179 892 l 107 975 q 188 981 150 979 q 260 983 226 983 q 419 960 357 983 q 515 881 481 936 q 562 733 549 826 q 575 499 575 639 q 567 301 575 386 q 540 157 560 217 q 485 59 521 97 q 394 3 450 21 q 260 -14 339 -14 m 111 -4 q 114 140 113 54 q 116 322 115 226 q 117 504 117 418 q 115 681 117 592 q 112 848 114 771 q 107 975 110 925 l 214 961 q 213 886 214 929 q 212 793 213 843 q 211 692 211 743 q 210 591 211 640 q 210 501 210 542 q 210 419 210 467 q 210 316 210 371 q 212 204 211 261 q 213 94 213 147 q 215 -4 214 40 l 111 -4 z "},"Ǆ":{"ha":1208,"x_min":107,"x_max":1176,"o":"m 260 -14 q 214 -13 238 -14 q 165 -10 190 -12 q 111 -4 139 -7 l 174 89 q 211 83 193 86 q 246 80 229 81 q 278 79 263 79 q 383 103 343 79 q 444 177 424 126 q 471 306 464 228 q 478 492 478 383 q 472 667 478 592 q 447 794 467 743 q 385 872 426 846 q 274 899 344 899 q 213 895 246 899 q 139 883 179 892 l 107 975 q 188 981 150 979 q 260 983 226 983 q 419 960 357 983 q 515 881 481 936 q 562 733 549 826 q 575 499 575 639 q 567 301 575 386 q 540 157 560 217 q 485 59 521 97 q 394 3 450 21 q 260 -14 339 -14 m 111 -4 q 114 140 113 54 q 116 322 115 226 q 117 504 117 418 q 115 681 117 592 q 112 848 114 771 q 107 975 110 925 l 214 961 q 213 886 214 929 q 212 793 213 843 q 211 692 211 743 q 210 591 211 640 q 210 501 210 542 q 210 419 210 467 q 210 316 210 371 q 212 204 211 261 q 213 94 213 147 q 215 -4 214 40 l 111 -4 m 718 963 q 763 960 736 961 q 820 960 789 960 q 885 960 851 960 q 949 961 918 961 q 1022 963 989 963 q 1088 965 1054 964 q 1161 965 1122 965 l 1165 865 q 1103 736 1135 803 q 1038 600 1071 669 q 972 458 1006 531 q 917 338 944 399 q 862 217 889 278 q 808 96 835 156 q 863 96 835 96 q 917 96 890 96 q 965 96 944 96 q 1038 98 1006 97 q 1103 99 1071 99 q 1176 100 1136 100 l 1176 0 q 1115 1 1144 0 q 1056 2 1085 1 q 999 3 1028 3 q 936 4 969 4 q 857 3 899 4 q 780 3 815 3 q 722 2 744 3 q 700 1 700 1 l 694 96 q 785 288 739 189 q 875 482 832 386 q 969 692 924 592 q 1049 868 1015 792 q 1006 869 1028 868 q 960 869 983 869 q 917 869 938 869 q 844 869 879 869 q 779 867 808 868 q 733 866 750 867 q 717 865 717 865 l 718 963 m 997 1039 l 900 1042 l 792 1135 l 826 1176 l 949 1106 l 1067 1174 l 1103 1138 l 997 1039 z "},"Ð":{"ha":663,"x_min":8,"x_max":575,"o":"m 8 440 l 17 518 q 65 517 35 518 q 135 516 96 517 q 219 514 175 515 q 326 515 267 513 q 422 518 385 517 l 426 440 q 358 442 397 442 q 279 442 318 442 q 211 443 240 443 q 92 442 147 443 q 8 440 36 442 m 260 -14 q 214 -13 238 -14 q 165 -10 190 -12 q 111 -4 139 -7 l 174 89 q 211 83 193 86 q 246 80 229 81 q 278 79 263 79 q 383 103 343 79 q 444 177 424 126 q 471 306 464 228 q 478 492 478 383 q 472 667 478 592 q 447 794 467 743 q 385 872 426 846 q 274 899 344 899 q 213 895 246 899 q 139 883 179 892 l 107 975 q 188 981 150 979 q 260 983 226 983 q 419 960 357 983 q 515 881 481 936 q 562 733 549 826 q 575 499 575 639 q 567 301 575 386 q 540 157 560 217 q 485 59 521 97 q 394 3 450 21 q 260 -14 339 -14 m 111 -4 q 114 140 113 54 q 116 322 115 226 q 117 504 117 418 q 115 681 117 592 q 112 848 114 771 q 107 975 110 925 l 214 961 q 213 886 214 929 q 212 793 213 843 q 211 692 211 743 q 210 591 211 640 q 210 501 210 542 q 210 419 210 467 q 210 316 210 371 q 212 204 211 261 q 213 94 213 147 q 215 -4 214 40 l 111 -4 z "},"Ď":{"ha":663,"x_min":107,"x_max":575,"o":"m 260 -14 q 214 -13 238 -14 q 165 -10 190 -12 q 111 -4 139 -7 l 174 89 q 211 83 193 86 q 246 80 229 81 q 278 79 263 79 q 383 103 343 79 q 444 177 424 126 q 471 306 464 228 q 478 492 478 383 q 472 667 478 592 q 447 794 467 743 q 385 872 426 846 q 274 899 344 899 q 213 895 246 899 q 139 883 179 892 l 107 975 q 188 981 150 979 q 260 983 226 983 q 419 960 357 983 q 515 881 481 936 q 562 733 549 826 q 575 499 575 639 q 567 301 575 386 q 540 157 560 217 q 485 59 521 97 q 394 3 450 21 q 260 -14 339 -14 m 111 -4 q 114 140 113 54 q 116 322 115 226 q 117 504 117 418 q 115 681 117 592 q 112 848 114 771 q 107 975 110 925 l 214 961 q 213 886 214 929 q 212 793 213 843 q 211 692 211 743 q 210 591 211 640 q 210 501 210 542 q 210 419 210 467 q 210 316 210 371 q 212 204 211 261 q 213 94 213 147 q 215 -4 214 40 l 111 -4 m 368 1039 l 271 1042 l 163 1135 l 197 1176 l 319 1106 l 438 1174 l 474 1138 l 368 1039 z "},"Đ":{"ha":663,"x_min":8,"x_max":575,"o":"m 8 440 l 17 518 q 65 517 35 518 q 135 516 96 517 q 219 514 175 515 q 326 515 267 513 q 422 518 385 517 l 426 440 q 358 442 397 442 q 279 442 318 442 q 211 443 240 443 q 92 442 147 443 q 8 440 36 442 m 260 -14 q 214 -13 238 -14 q 165 -10 190 -12 q 111 -4 139 -7 l 174 89 q 211 83 193 86 q 246 80 229 81 q 278 79 263 79 q 383 103 343 79 q 444 177 424 126 q 471 306 464 228 q 478 492 478 383 q 472 667 478 592 q 447 794 467 743 q 385 872 426 846 q 274 899 344 899 q 213 895 246 899 q 139 883 179 892 l 107 975 q 188 981 150 979 q 260 983 226 983 q 419 960 357 983 q 515 881 481 936 q 562 733 549 826 q 575 499 575 639 q 567 301 575 386 q 540 157 560 217 q 485 59 521 97 q 394 3 450 21 q 260 -14 339 -14 m 111 -4 q 114 140 113 54 q 116 322 115 226 q 117 504 117 418 q 115 681 117 592 q 112 848 114 771 q 107 975 110 925 l 214 961 q 213 886 214 929 q 212 793 213 843 q 211 692 211 743 q 210 591 211 640 q 210 501 210 542 q 210 419 210 467 q 210 316 210 371 q 212 204 211 261 q 213 94 213 147 q 215 -4 214 40 l 111 -4 z "},"ǅ":{"ha":1103,"x_min":107,"x_max":1085,"o":"m 260 -14 q 214 -13 238 -14 q 165 -10 190 -12 q 111 -4 139 -7 l 174 89 q 211 83 193 86 q 246 80 229 81 q 278 79 263 79 q 383 103 343 79 q 444 177 424 126 q 471 306 464 228 q 478 492 478 383 q 472 667 478 592 q 447 794 467 743 q 385 872 426 846 q 274 899 344 899 q 213 895 246 899 q 139 883 179 892 l 107 975 q 188 981 150 979 q 260 983 226 983 q 419 960 357 983 q 515 881 481 936 q 562 733 549 826 q 575 499 575 639 q 567 301 575 386 q 540 157 560 217 q 485 59 521 97 q 394 3 450 21 q 260 -14 339 -14 m 111 -4 q 114 140 113 54 q 116 322 115 226 q 117 504 117 418 q 115 681 117 592 q 112 848 114 771 q 107 975 110 925 l 214 961 q 213 886 214 929 q 212 793 213 843 q 211 692 211 743 q 210 591 211 640 q 210 501 210 542 q 210 419 210 467 q 210 316 210 371 q 212 204 211 261 q 213 94 213 147 q 215 -4 214 40 l 111 -4 m 760 14 l 693 86 q 740 175 718 133 q 786 263 763 217 q 840 365 810 308 q 890 463 867 415 q 940 565 914 511 q 999 688 967 619 l 1072 624 q 1019 526 1043 571 q 970 435 994 481 q 918 336 946 390 q 863 230 889 281 q 813 127 838 179 q 760 14 788 75 m 694 -6 l 693 86 q 717 86 693 86 q 775 85 740 86 q 847 85 810 85 q 908 85 883 85 q 964 85 933 85 q 1022 87 994 86 q 1067 88 1049 88 q 1085 89 1085 89 l 1083 0 q 1063 0 1083 0 q 1012 0 1043 0 q 947 0 981 0 q 888 0 914 0 q 828 -1 861 0 q 765 -3 796 -1 q 715 -5 735 -4 q 694 -6 694 -6 m 706 624 l 707 711 q 726 711 707 711 q 776 711 746 711 q 838 711 806 711 q 897 711 871 711 q 959 712 929 711 q 1014 713 989 713 q 1053 715 1039 714 q 1068 715 1068 715 l 1072 624 q 1051 624 1072 624 q 999 625 1031 625 q 933 626 967 625 q 875 626 900 626 q 820 626 850 626 q 765 625 790 625 q 722 624 739 625 q 706 624 706 624 m 929 814 l 832 817 l 724 910 l 758 951 l 881 881 l 999 949 l 1035 913 l 929 814 z "},"E":{"ha":588,"x_min":107,"x_max":521,"o":"m 107 -7 q 108 27 107 -7 q 109 118 108 61 q 110 247 110 175 q 110 395 110 318 q 111 543 111 472 q 110 710 111 632 q 109 846 110 788 q 108 938 108 904 q 107 971 107 971 l 214 958 q 213 931 214 958 q 213 860 213 904 q 212 760 213 815 q 210 650 211 706 q 210 546 210 594 q 210 428 210 497 q 212 287 211 360 q 213 150 213 214 q 215 47 214 86 q 215 7 215 7 l 107 -7 m 107 -7 l 168 92 l 521 85 l 521 0 l 107 -7 m 161 282 l 161 376 l 517 372 l 514 288 l 161 282 m 151 868 l 107 971 l 504 963 l 504 869 l 151 868 z "},"É":{"ha":588,"x_min":107,"x_max":521,"o":"m 107 -7 q 108 27 107 -7 q 109 118 108 61 q 110 247 110 175 q 110 395 110 318 q 111 543 111 472 q 110 710 111 632 q 109 846 110 788 q 108 938 108 904 q 107 971 107 971 l 214 958 q 213 931 214 958 q 213 860 213 904 q 212 760 213 815 q 210 650 211 706 q 210 546 210 594 q 210 428 210 497 q 212 287 211 360 q 213 150 213 214 q 215 47 214 86 q 215 7 215 7 l 107 -7 m 107 -7 l 168 92 l 521 85 l 521 0 l 107 -7 m 161 282 l 161 376 l 517 372 l 514 288 l 161 282 m 151 868 l 107 971 l 504 963 l 504 869 l 151 868 m 247 1024 l 217 1076 q 266 1103 240 1089 q 318 1135 292 1118 q 354 1158 336 1146 q 390 1181 372 1169 q 424 1204 408 1193 l 474 1125 q 434 1108 454 1117 q 394 1090 414 1099 q 354 1072 374 1081 q 316 1056 335 1064 q 280 1039 297 1047 q 247 1024 263 1031 z "},"Ĕ":{"ha":588,"x_min":107,"x_max":521,"o":"m 107 -7 q 108 27 107 -7 q 109 118 108 61 q 110 247 110 175 q 110 395 110 318 q 111 543 111 472 q 110 710 111 632 q 109 846 110 788 q 108 938 108 904 q 107 971 107 971 l 214 958 q 213 931 214 958 q 213 860 213 904 q 212 760 213 815 q 210 650 211 706 q 210 546 210 594 q 210 428 210 497 q 212 287 211 360 q 213 150 213 214 q 215 47 214 86 q 215 7 215 7 l 107 -7 m 107 -7 l 168 92 l 521 85 l 521 0 l 107 -7 m 161 282 l 161 376 l 517 372 l 514 288 l 161 282 m 151 868 l 107 971 l 504 963 l 504 869 l 151 868 m 317 1047 q 209 1065 261 1047 q 117 1117 157 1082 l 147 1165 q 227 1128 183 1140 q 315 1117 271 1117 q 407 1129 363 1117 q 485 1167 451 1142 l 515 1122 q 426 1066 479 1085 q 317 1047 374 1047 z "},"Ě":{"ha":588,"x_min":107,"x_max":521,"o":"m 107 -7 q 108 27 107 -7 q 109 118 108 61 q 110 247 110 175 q 110 395 110 318 q 111 543 111 472 q 110 710 111 632 q 109 846 110 788 q 108 938 108 904 q 107 971 107 971 l 214 958 q 213 931 214 958 q 213 860 213 904 q 212 760 213 815 q 210 650 211 706 q 210 546 210 594 q 210 428 210 497 q 212 287 211 360 q 213 150 213 214 q 215 47 214 86 q 215 7 215 7 l 107 -7 m 107 -7 l 168 92 l 521 85 l 521 0 l 107 -7 m 161 282 l 161 376 l 517 372 l 514 288 l 161 282 m 151 868 l 107 971 l 504 963 l 504 869 l 151 868 m 367 1039 l 269 1042 l 161 1135 l 196 1176 l 318 1106 l 436 1174 l 472 1138 l 367 1039 z "},"Ê":{"ha":588,"x_min":107,"x_max":521,"o":"m 107 -7 q 108 27 107 -7 q 109 118 108 61 q 110 247 110 175 q 110 395 110 318 q 111 543 111 472 q 110 710 111 632 q 109 846 110 788 q 108 938 108 904 q 107 971 107 971 l 214 958 q 213 931 214 958 q 213 860 213 904 q 212 760 213 815 q 210 650 211 706 q 210 546 210 594 q 210 428 210 497 q 212 287 211 360 q 213 150 213 214 q 215 47 214 86 q 215 7 215 7 l 107 -7 m 107 -7 l 168 92 l 521 85 l 521 0 l 107 -7 m 161 282 l 161 376 l 517 372 l 514 288 l 161 282 m 151 868 l 107 971 l 504 963 l 504 869 l 151 868 m 438 1028 l 315 1099 l 197 1031 l 161 1067 l 267 1165 l 364 1163 l 472 1069 l 438 1028 z "},"Ế":{"ha":588,"x_min":107,"x_max":521,"o":"m 107 -7 q 108 27 107 -7 q 109 118 108 61 q 110 247 110 175 q 110 395 110 318 q 111 543 111 472 q 110 710 111 632 q 109 846 110 788 q 108 938 108 904 q 107 971 107 971 l 214 958 q 213 931 214 958 q 213 860 213 904 q 212 760 213 815 q 210 650 211 706 q 210 546 210 594 q 210 428 210 497 q 212 287 211 360 q 213 150 213 214 q 215 47 214 86 q 215 7 215 7 l 107 -7 m 107 -7 l 168 92 l 521 85 l 521 0 l 107 -7 m 161 282 l 161 376 l 517 372 l 514 288 l 161 282 m 151 868 l 107 971 l 504 963 l 504 869 l 151 868 m 439 1028 l 317 1099 l 199 1031 l 163 1067 l 268 1165 l 365 1163 l 474 1069 l 439 1028 m 307 1197 l 272 1246 q 284 1253 272 1246 q 316 1271 296 1260 q 360 1296 336 1282 q 417 1332 392 1315 q 442 1349 442 1349 l 492 1274 q 478 1269 492 1274 q 444 1257 465 1264 q 403 1240 424 1250 q 361 1222 383 1232 q 323 1204 339 1211 q 307 1197 307 1197 z "},"Ệ":{"ha":588,"x_min":107,"x_max":521,"o":"m 107 -7 q 108 27 107 -7 q 109 118 108 61 q 110 247 110 175 q 110 395 110 318 q 111 543 111 472 q 110 710 111 632 q 109 846 110 788 q 108 938 108 904 q 107 971 107 971 l 214 958 q 213 931 214 958 q 213 860 213 904 q 212 760 213 815 q 210 650 211 706 q 210 546 210 594 q 210 428 210 497 q 212 287 211 360 q 213 150 213 214 q 215 47 214 86 q 215 7 215 7 l 107 -7 m 107 -7 l 168 92 l 521 85 l 521 0 l 107 -7 m 161 282 l 161 376 l 517 372 l 514 288 l 161 282 m 151 868 l 107 971 l 504 963 l 504 869 l 151 868 m 271 -225 l 267 -106 l 374 -114 l 369 -224 l 271 -225 m 438 1028 l 315 1099 l 197 1031 l 161 1067 l 267 1165 l 364 1163 l 472 1069 l 438 1028 z "},"Ề":{"ha":588,"x_min":107,"x_max":521,"o":"m 107 -7 q 108 27 107 -7 q 109 118 108 61 q 110 247 110 175 q 110 395 110 318 q 111 543 111 472 q 110 710 111 632 q 109 846 110 788 q 108 938 108 904 q 107 971 107 971 l 214 958 q 213 931 214 958 q 213 860 213 904 q 212 760 213 815 q 210 650 211 706 q 210 546 210 594 q 210 428 210 497 q 212 287 211 360 q 213 150 213 214 q 215 47 214 86 q 215 7 215 7 l 107 -7 m 107 -7 l 168 92 l 521 85 l 521 0 l 107 -7 m 161 282 l 161 376 l 517 372 l 514 288 l 161 282 m 151 868 l 107 971 l 504 963 l 504 869 l 151 868 m 438 1028 l 315 1099 l 197 1031 l 161 1067 l 267 1165 l 364 1163 l 472 1069 l 438 1028 m 336 1197 q 320 1204 336 1197 q 282 1222 304 1211 q 240 1240 260 1232 q 199 1257 219 1250 q 165 1269 179 1264 q 151 1274 151 1274 l 201 1349 q 226 1332 201 1349 q 283 1296 251 1315 q 327 1271 307 1282 q 359 1253 347 1260 q 371 1246 371 1246 l 336 1197 z "},"Ể":{"ha":588,"x_min":107,"x_max":521,"o":"m 107 -7 q 108 27 107 -7 q 109 118 108 61 q 110 247 110 175 q 110 395 110 318 q 111 543 111 472 q 110 710 111 632 q 109 846 110 788 q 108 938 108 904 q 107 971 107 971 l 214 958 q 213 931 214 958 q 213 860 213 904 q 212 760 213 815 q 210 650 211 706 q 210 546 210 594 q 210 428 210 497 q 212 287 211 360 q 213 150 213 214 q 215 47 214 86 q 215 7 215 7 l 107 -7 m 107 -7 l 168 92 l 521 85 l 521 0 l 107 -7 m 161 282 l 161 376 l 517 372 l 514 288 l 161 282 m 151 868 l 107 971 l 504 963 l 504 869 l 151 868 m 438 1028 l 315 1099 l 197 1031 l 161 1067 l 267 1165 l 364 1163 l 472 1069 l 438 1028 m 282 1203 l 281 1246 q 345 1251 321 1244 q 369 1274 369 1257 q 349 1294 369 1289 q 294 1300 328 1300 q 258 1298 276 1300 q 221 1293 239 1296 l 221 1343 q 259 1347 240 1346 q 296 1349 278 1349 q 363 1342 332 1349 q 411 1319 393 1335 q 429 1276 429 1304 q 394 1223 429 1246 q 282 1203 358 1200 z "},"Ễ":{"ha":588,"x_min":107,"x_max":521,"o":"m 107 -7 q 108 27 107 -7 q 109 118 108 61 q 110 247 110 175 q 110 395 110 318 q 111 543 111 472 q 110 710 111 632 q 109 846 110 788 q 108 938 108 904 q 107 971 107 971 l 214 958 q 213 931 214 958 q 213 860 213 904 q 212 760 213 815 q 210 650 211 706 q 210 546 210 594 q 210 428 210 497 q 212 287 211 360 q 213 150 213 214 q 215 47 214 86 q 215 7 215 7 l 107 -7 m 107 -7 l 168 92 l 521 85 l 521 0 l 107 -7 m 161 282 l 161 376 l 517 372 l 514 288 l 161 282 m 151 868 l 107 971 l 504 963 l 504 869 l 151 868 m 439 1028 l 317 1099 l 199 1031 l 163 1067 l 268 1165 l 365 1163 l 474 1069 l 439 1028 m 194 1200 l 132 1200 q 150 1258 135 1236 q 189 1288 165 1279 q 240 1297 213 1297 q 321 1283 281 1297 q 396 1268 361 1268 q 428 1274 417 1268 q 443 1297 440 1281 l 506 1297 q 488 1240 503 1261 q 449 1209 472 1218 q 397 1200 426 1200 q 317 1215 357 1200 q 242 1229 278 1229 q 211 1223 221 1229 q 194 1200 201 1217 z "},"Ȅ":{"ha":588,"x_min":90,"x_max":521,"o":"m 107 -7 q 108 27 107 -7 q 109 118 108 61 q 110 247 110 175 q 110 395 110 318 q 111 543 111 472 q 110 710 111 632 q 109 846 110 788 q 108 938 108 904 q 107 971 107 971 l 214 958 q 213 931 214 958 q 213 860 213 904 q 212 760 213 815 q 210 650 211 706 q 210 546 210 594 q 210 428 210 497 q 212 287 211 360 q 213 150 213 214 q 215 47 214 86 q 215 7 215 7 l 107 -7 m 107 -7 l 168 92 l 521 85 l 521 0 l 107 -7 m 161 282 l 161 376 l 517 372 l 514 288 l 161 282 m 151 868 l 107 971 l 504 963 l 504 869 l 151 868 m 418 1039 q 408 1049 418 1039 q 383 1072 397 1058 q 354 1094 368 1085 q 324 1116 340 1104 q 297 1136 308 1128 q 285 1144 285 1144 l 347 1204 q 356 1193 347 1204 q 379 1167 365 1182 q 407 1138 393 1151 q 434 1111 422 1124 q 453 1092 446 1099 q 461 1085 461 1085 l 418 1039 m 224 1025 q 213 1035 224 1025 q 188 1058 203 1044 q 160 1081 174 1071 q 130 1102 146 1090 q 102 1122 114 1114 q 90 1131 90 1131 l 153 1190 q 162 1179 153 1190 q 185 1153 171 1168 q 213 1124 199 1138 q 240 1097 228 1110 q 259 1078 251 1085 q 267 1071 267 1071 l 224 1025 z "},"Ë":{"ha":588,"x_min":107,"x_max":521,"o":"m 107 -7 q 108 27 107 -7 q 109 118 108 61 q 110 247 110 175 q 110 395 110 318 q 111 543 111 472 q 110 710 111 632 q 109 846 110 788 q 108 938 108 904 q 107 971 107 971 l 214 958 q 213 931 214 958 q 213 860 213 904 q 212 760 213 815 q 210 650 211 706 q 210 546 210 594 q 210 428 210 497 q 212 287 211 360 q 213 150 213 214 q 215 47 214 86 q 215 7 215 7 l 107 -7 m 107 -7 l 168 92 l 521 85 l 521 0 l 107 -7 m 161 282 l 161 376 l 517 372 l 514 288 l 161 282 m 151 868 l 107 971 l 504 963 l 504 869 l 151 868 m 133 1165 l 222 1156 l 218 1047 l 136 1046 l 133 1165 m 410 1165 l 499 1156 l 494 1047 l 413 1046 l 410 1165 z "},"Ė":{"ha":588,"x_min":107,"x_max":521,"o":"m 107 -7 q 108 27 107 -7 q 109 118 108 61 q 110 247 110 175 q 110 395 110 318 q 111 543 111 472 q 110 710 111 632 q 109 846 110 788 q 108 938 108 904 q 107 971 107 971 l 214 958 q 213 931 214 958 q 213 860 213 904 q 212 760 213 815 q 210 650 211 706 q 210 546 210 594 q 210 428 210 497 q 212 287 211 360 q 213 150 213 214 q 215 47 214 86 q 215 7 215 7 l 107 -7 m 107 -7 l 168 92 l 521 85 l 521 0 l 107 -7 m 161 282 l 161 376 l 517 372 l 514 288 l 161 282 m 151 868 l 107 971 l 504 963 l 504 869 l 151 868 m 268 1069 l 264 1189 l 371 1181 l 367 1071 l 268 1069 z "},"Ẹ":{"ha":588,"x_min":107,"x_max":521,"o":"m 107 -7 q 108 27 107 -7 q 109 118 108 61 q 110 247 110 175 q 110 395 110 318 q 111 543 111 472 q 110 710 111 632 q 109 846 110 788 q 108 938 108 904 q 107 971 107 971 l 214 958 q 213 931 214 958 q 213 860 213 904 q 212 760 213 815 q 210 650 211 706 q 210 546 210 594 q 210 428 210 497 q 212 287 211 360 q 213 150 213 214 q 215 47 214 86 q 215 7 215 7 l 107 -7 m 107 -7 l 168 92 l 521 85 l 521 0 l 107 -7 m 161 282 l 161 376 l 517 372 l 514 288 l 161 282 m 151 868 l 107 971 l 504 963 l 504 869 l 151 868 m 271 -225 l 267 -106 l 374 -114 l 369 -224 l 271 -225 z "},"È":{"ha":588,"x_min":107,"x_max":521,"o":"m 107 -7 q 108 27 107 -7 q 109 118 108 61 q 110 247 110 175 q 110 395 110 318 q 111 543 111 472 q 110 710 111 632 q 109 846 110 788 q 108 938 108 904 q 107 971 107 971 l 214 958 q 213 931 214 958 q 213 860 213 904 q 212 760 213 815 q 210 650 211 706 q 210 546 210 594 q 210 428 210 497 q 212 287 211 360 q 213 150 213 214 q 215 47 214 86 q 215 7 215 7 l 107 -7 m 107 -7 l 168 92 l 521 85 l 521 0 l 107 -7 m 161 282 l 161 376 l 517 372 l 514 288 l 161 282 m 151 868 l 107 971 l 504 963 l 504 869 l 151 868 m 390 1018 q 358 1033 375 1025 q 322 1049 340 1040 q 283 1067 303 1058 q 244 1085 264 1076 q 203 1102 224 1093 q 164 1119 183 1111 l 214 1199 q 265 1163 238 1182 q 319 1129 293 1144 q 373 1099 347 1114 q 421 1071 399 1083 l 390 1018 z "},"Ẻ":{"ha":588,"x_min":107,"x_max":521,"o":"m 107 -7 q 108 27 107 -7 q 109 118 108 61 q 110 247 110 175 q 110 395 110 318 q 111 543 111 472 q 110 710 111 632 q 109 846 110 788 q 108 938 108 904 q 107 971 107 971 l 214 958 q 213 931 214 958 q 213 860 213 904 q 212 760 213 815 q 210 650 211 706 q 210 546 210 594 q 210 428 210 497 q 212 287 211 360 q 213 150 213 214 q 215 47 214 86 q 215 7 215 7 l 107 -7 m 107 -7 l 168 92 l 521 85 l 521 0 l 107 -7 m 161 282 l 161 376 l 517 372 l 514 288 l 161 282 m 151 868 l 107 971 l 504 963 l 504 869 l 151 868 m 275 1024 l 274 1067 q 338 1072 314 1065 q 363 1094 363 1078 q 342 1115 363 1110 q 288 1121 321 1121 q 251 1119 269 1121 q 214 1114 232 1117 l 214 1164 q 252 1168 233 1167 q 289 1169 271 1169 q 383 1153 343 1169 q 422 1097 422 1138 q 387 1044 422 1067 q 275 1024 351 1021 z "},"Ȇ":{"ha":588,"x_min":107,"x_max":521,"o":"m 107 -7 q 108 27 107 -7 q 109 118 108 61 q 110 247 110 175 q 110 395 110 318 q 111 543 111 472 q 110 710 111 632 q 109 846 110 788 q 108 938 108 904 q 107 971 107 971 l 214 958 q 213 931 214 958 q 213 860 213 904 q 212 760 213 815 q 210 650 211 706 q 210 546 210 594 q 210 428 210 497 q 212 287 211 360 q 213 150 213 214 q 215 47 214 86 q 215 7 215 7 l 107 -7 m 107 -7 l 168 92 l 521 85 l 521 0 l 107 -7 m 161 282 l 161 376 l 517 372 l 514 288 l 161 282 m 151 868 l 107 971 l 504 963 l 504 869 l 151 868 m 147 1038 l 117 1082 q 206 1138 153 1119 q 315 1157 260 1157 q 424 1140 371 1157 q 515 1088 476 1122 l 485 1039 q 406 1076 450 1064 q 317 1088 361 1088 q 225 1075 269 1088 q 147 1038 181 1063 z "},"Ē":{"ha":588,"x_min":107,"x_max":521,"o":"m 107 -7 q 108 27 107 -7 q 109 118 108 61 q 110 247 110 175 q 110 395 110 318 q 111 543 111 472 q 110 710 111 632 q 109 846 110 788 q 108 938 108 904 q 107 971 107 971 l 214 958 q 213 931 214 958 q 213 860 213 904 q 212 760 213 815 q 210 650 211 706 q 210 546 210 594 q 210 428 210 497 q 212 287 211 360 q 213 150 213 214 q 215 47 214 86 q 215 7 215 7 l 107 -7 m 107 -7 l 168 92 l 521 85 l 521 0 l 107 -7 m 161 282 l 161 376 l 517 372 l 514 288 l 161 282 m 151 868 l 107 971 l 504 963 l 504 869 l 151 868 m 160 1067 l 160 1140 l 467 1136 l 474 1071 l 160 1067 z "},"Ę":{"ha":588,"x_min":107,"x_max":521,"o":"m 107 -7 q 108 27 107 -7 q 109 118 108 61 q 110 247 110 175 q 110 395 110 318 q 111 543 111 472 q 110 710 111 632 q 109 846 110 788 q 108 938 108 904 q 107 971 107 971 l 214 958 q 213 931 214 958 q 213 860 213 904 q 212 760 213 815 q 210 650 211 706 q 210 546 210 594 q 210 428 210 497 q 212 287 211 360 q 213 150 213 214 q 215 47 214 86 q 215 7 215 7 l 107 -7 m 107 -7 l 168 92 l 521 85 l 521 0 l 107 -7 m 161 282 l 161 376 l 517 372 l 514 288 l 161 282 m 151 868 l 107 971 l 504 963 l 504 869 l 151 868 m 433 -181 q 331 -163 375 -181 q 288 -106 288 -146 q 308 -57 288 -81 q 358 -16 329 -33 q 411 7 386 1 l 481 0 q 439 -12 468 0 q 385 -44 410 -24 q 361 -87 361 -64 q 385 -112 361 -106 q 439 -119 408 -119 q 483 -117 458 -119 q 521 -114 507 -115 l 521 -172 q 478 -178 500 -176 q 433 -181 457 -181 z "},"Ẽ":{"ha":588,"x_min":107,"x_max":521,"o":"m 107 -7 q 108 27 107 -7 q 109 118 108 61 q 110 247 110 175 q 110 395 110 318 q 111 543 111 472 q 110 710 111 632 q 109 846 110 788 q 108 938 108 904 q 107 971 107 971 l 214 958 q 213 931 214 958 q 213 860 213 904 q 212 760 213 815 q 210 650 211 706 q 210 546 210 594 q 210 428 210 497 q 212 287 211 360 q 213 150 213 214 q 215 47 214 86 q 215 7 215 7 l 107 -7 m 107 -7 l 168 92 l 521 85 l 521 0 l 107 -7 m 161 282 l 161 376 l 517 372 l 514 288 l 161 282 m 151 868 l 107 971 l 504 963 l 504 869 l 151 868 m 192 1053 l 129 1053 q 147 1110 132 1089 q 186 1141 163 1132 q 238 1150 210 1150 q 318 1135 278 1150 q 393 1121 358 1121 q 426 1127 414 1121 q 440 1150 438 1133 l 503 1150 q 485 1092 500 1114 q 447 1062 469 1071 q 394 1053 424 1053 q 315 1067 354 1053 q 239 1082 275 1082 q 208 1076 218 1082 q 192 1053 199 1069 z "},"F":{"ha":556,"x_min":107,"x_max":485,"o":"m 107 -4 q 108 33 107 -4 q 110 133 108 69 q 112 279 111 197 q 113 450 113 361 q 112 633 113 539 q 110 806 111 726 q 109 935 110 886 q 108 985 108 985 l 214 971 q 213 933 214 971 q 212 833 213 894 q 210 701 211 772 q 209 563 210 629 q 208 447 208 496 q 209 340 208 399 q 210 221 210 281 q 212 111 211 161 q 213 31 213 61 q 214 0 214 0 l 107 -4 m 164 335 l 164 429 l 482 426 l 485 347 l 164 335 m 168 886 l 108 985 l 483 975 l 479 889 l 168 886 z "},"G":{"ha":638,"x_min":88,"x_max":557,"o":"m 88 482 q 89 561 88 522 q 93 635 90 600 q 101 704 96 671 q 114 767 107 738 q 192 928 138 869 q 344 986 247 986 q 468 954 424 986 q 531 864 513 922 q 549 725 549 806 q 544 634 549 682 q 533 533 540 586 l 436 533 q 449 644 444 594 q 454 736 454 694 q 444 827 454 790 q 409 883 433 864 q 342 901 385 901 q 250 853 282 901 q 204 732 218 806 q 196 672 199 703 q 191 608 193 640 q 188 542 189 575 q 188 475 188 508 q 188 381 188 425 q 192 298 189 336 q 200 228 194 260 q 242 115 211 154 q 332 76 272 76 q 408 93 379 76 q 450 141 436 110 q 464 217 464 172 q 463 246 464 231 q 458 278 461 261 l 333 275 l 333 361 l 549 358 l 557 0 l 507 0 l 490 54 q 428 10 465 31 q 318 -10 392 -10 q 210 19 253 -10 q 143 97 168 47 q 106 208 118 146 q 94 295 97 250 q 89 388 90 340 q 88 482 88 435 z "},"Ğ":{"ha":638,"x_min":88,"x_max":557,"o":"m 88 482 q 89 561 88 522 q 93 635 90 600 q 101 704 96 671 q 114 767 107 738 q 192 928 138 869 q 344 986 247 986 q 468 954 424 986 q 531 864 513 922 q 549 725 549 806 q 544 634 549 682 q 533 533 540 586 l 436 533 q 449 644 444 594 q 454 736 454 694 q 444 827 454 790 q 409 883 433 864 q 342 901 385 901 q 250 853 282 901 q 204 732 218 806 q 196 672 199 703 q 191 608 193 640 q 188 542 189 575 q 188 475 188 508 q 188 381 188 425 q 192 298 189 336 q 200 228 194 260 q 242 115 211 154 q 332 76 272 76 q 408 93 379 76 q 450 141 436 110 q 464 217 464 172 q 463 246 464 231 q 458 278 461 261 l 333 275 l 333 361 l 549 358 l 557 0 l 507 0 l 490 54 q 428 10 465 31 q 318 -10 392 -10 q 210 19 253 -10 q 143 97 168 47 q 106 208 118 146 q 94 295 97 250 q 89 388 90 340 q 88 482 88 435 m 329 1047 q 222 1065 274 1047 q 129 1117 169 1082 l 160 1165 q 240 1128 196 1140 q 328 1117 283 1117 q 419 1129 375 1117 q 497 1167 464 1142 l 528 1122 q 439 1066 492 1085 q 329 1047 386 1047 z "},"Ǧ":{"ha":638,"x_min":88,"x_max":557,"o":"m 88 482 q 89 561 88 522 q 93 635 90 600 q 101 704 96 671 q 114 767 107 738 q 192 928 138 869 q 344 986 247 986 q 468 954 424 986 q 531 864 513 922 q 549 725 549 806 q 544 634 549 682 q 533 533 540 586 l 436 533 q 449 644 444 594 q 454 736 454 694 q 444 827 454 790 q 409 883 433 864 q 342 901 385 901 q 250 853 282 901 q 204 732 218 806 q 196 672 199 703 q 191 608 193 640 q 188 542 189 575 q 188 475 188 508 q 188 381 188 425 q 192 298 189 336 q 200 228 194 260 q 242 115 211 154 q 332 76 272 76 q 408 93 379 76 q 450 141 436 110 q 464 217 464 172 q 463 246 464 231 q 458 278 461 261 l 333 275 l 333 361 l 549 358 l 557 0 l 507 0 l 490 54 q 428 10 465 31 q 318 -10 392 -10 q 210 19 253 -10 q 143 97 168 47 q 106 208 118 146 q 94 295 97 250 q 89 388 90 340 q 88 482 88 435 m 379 1039 l 282 1042 l 174 1135 l 208 1176 l 331 1106 l 449 1174 l 485 1138 l 379 1039 z "},"Ĝ":{"ha":638,"x_min":88,"x_max":557,"o":"m 88 482 q 89 561 88 522 q 93 635 90 600 q 101 704 96 671 q 114 767 107 738 q 192 928 138 869 q 344 986 247 986 q 468 954 424 986 q 531 864 513 922 q 549 725 549 806 q 544 634 549 682 q 533 533 540 586 l 436 533 q 449 644 444 594 q 454 736 454 694 q 444 827 454 790 q 409 883 433 864 q 342 901 385 901 q 250 853 282 901 q 204 732 218 806 q 196 672 199 703 q 191 608 193 640 q 188 542 189 575 q 188 475 188 508 q 188 381 188 425 q 192 298 189 336 q 200 228 194 260 q 242 115 211 154 q 332 76 272 76 q 408 93 379 76 q 450 141 436 110 q 464 217 464 172 q 463 246 464 231 q 458 278 461 261 l 333 275 l 333 361 l 549 358 l 557 0 l 507 0 l 490 54 q 428 10 465 31 q 318 -10 392 -10 q 210 19 253 -10 q 143 97 168 47 q 106 208 118 146 q 94 295 97 250 q 89 388 90 340 q 88 482 88 435 m 450 1028 l 328 1099 l 210 1031 l 174 1067 l 279 1165 l 376 1163 l 485 1069 l 450 1028 z "},"Ģ":{"ha":638,"x_min":88,"x_max":557,"o":"m 88 482 q 89 561 88 522 q 93 635 90 600 q 101 704 96 671 q 114 767 107 738 q 192 928 138 869 q 344 986 247 986 q 468 954 424 986 q 531 864 513 922 q 549 725 549 806 q 544 634 549 682 q 533 533 540 586 l 436 533 q 449 644 444 594 q 454 736 454 694 q 444 827 454 790 q 409 883 433 864 q 342 901 385 901 q 250 853 282 901 q 204 732 218 806 q 196 672 199 703 q 191 608 193 640 q 188 542 189 575 q 188 475 188 508 q 188 381 188 425 q 192 298 189 336 q 200 228 194 260 q 242 115 211 154 q 332 76 272 76 q 408 93 379 76 q 450 141 436 110 q 464 217 464 172 q 463 246 464 231 q 458 278 461 261 l 333 275 l 333 361 l 549 358 l 557 0 l 507 0 l 490 54 q 428 10 465 31 q 318 -10 392 -10 q 210 19 253 -10 q 143 97 168 47 q 106 208 118 146 q 94 295 97 250 q 89 388 90 340 q 88 482 88 435 m 329 -400 l 288 -372 q 321 -303 308 -342 q 333 -233 333 -265 l 283 -232 l 276 -111 l 394 -103 q 393 -162 393 -133 q 392 -222 393 -192 q 384 -280 392 -246 q 363 -347 376 -314 q 329 -400 349 -379 z "},"Ġ":{"ha":638,"x_min":88,"x_max":557,"o":"m 88 482 q 89 561 88 522 q 93 635 90 600 q 101 704 96 671 q 114 767 107 738 q 192 928 138 869 q 344 986 247 986 q 468 954 424 986 q 531 864 513 922 q 549 725 549 806 q 544 634 549 682 q 533 533 540 586 l 436 533 q 449 644 444 594 q 454 736 454 694 q 444 827 454 790 q 409 883 433 864 q 342 901 385 901 q 250 853 282 901 q 204 732 218 806 q 196 672 199 703 q 191 608 193 640 q 188 542 189 575 q 188 475 188 508 q 188 381 188 425 q 192 298 189 336 q 200 228 194 260 q 242 115 211 154 q 332 76 272 76 q 408 93 379 76 q 450 141 436 110 q 464 217 464 172 q 463 246 464 231 q 458 278 461 261 l 333 275 l 333 361 l 549 358 l 557 0 l 507 0 l 490 54 q 428 10 465 31 q 318 -10 392 -10 q 210 19 253 -10 q 143 97 168 47 q 106 208 118 146 q 94 295 97 250 q 89 388 90 340 q 88 482 88 435 m 281 1069 l 276 1189 l 383 1181 l 379 1071 l 281 1069 z "},"H":{"ha":697,"x_min":107,"x_max":590,"o":"m 467 0 q 468 39 467 0 q 472 141 469 78 q 475 276 474 204 q 478 415 476 349 q 479 529 479 482 q 478 638 479 578 q 477 758 478 697 q 476 869 476 818 q 474 950 475 919 q 474 981 474 981 l 590 983 q 588 947 590 983 q 584 847 586 910 q 580 702 582 783 q 578 532 578 621 q 579 349 578 443 q 581 176 581 256 q 583 49 582 97 q 585 0 585 0 l 467 0 m 179 349 l 533 358 l 533 260 l 179 265 l 179 349 m 113 3 q 114 45 113 3 q 116 158 115 88 q 118 315 117 229 q 119 490 119 401 q 117 664 119 579 q 113 816 115 749 q 109 924 111 883 q 107 964 107 964 l 224 969 q 223 935 224 969 q 222 847 222 901 q 220 727 221 792 q 219 600 219 663 q 218 489 218 538 q 219 377 218 440 q 221 249 219 314 q 223 128 222 183 q 224 38 224 72 q 225 4 225 4 l 113 3 z "},"Ħ":{"ha":697,"x_min":29,"x_max":664,"o":"m 29 597 l 32 668 q 53 668 32 668 q 108 667 74 668 q 185 666 143 667 q 269 665 226 665 q 349 664 313 664 q 414 664 375 664 q 496 665 453 664 q 576 666 539 665 q 638 667 614 667 q 661 668 661 668 l 664 597 q 638 597 664 597 q 572 598 613 597 q 488 599 532 599 q 403 600 443 600 q 340 600 364 600 q 242 599 296 600 q 140 599 189 599 q 60 598 92 599 q 29 597 29 597 m 467 0 q 468 39 467 0 q 472 141 469 78 q 475 276 474 204 q 478 415 476 349 q 479 529 479 482 q 478 638 479 578 q 477 758 478 697 q 476 869 476 818 q 474 950 475 919 q 474 981 474 981 l 590 983 q 588 947 590 983 q 584 847 586 910 q 580 702 582 783 q 578 532 578 621 q 579 349 578 443 q 581 176 581 256 q 583 49 582 97 q 585 0 585 0 l 467 0 m 179 349 l 533 358 l 533 260 l 179 265 l 179 349 m 113 3 q 114 45 113 3 q 116 158 115 88 q 118 315 117 229 q 119 490 119 401 q 117 664 119 579 q 113 816 115 749 q 109 924 111 883 q 107 964 107 964 l 224 969 q 223 935 224 969 q 222 847 222 901 q 220 727 221 792 q 219 600 219 663 q 218 489 218 538 q 219 377 218 440 q 221 249 219 314 q 223 128 222 183 q 224 38 224 72 q 225 4 225 4 l 113 3 z "},"Ĥ":{"ha":697,"x_min":107,"x_max":590,"o":"m 467 0 q 468 39 467 0 q 472 141 469 78 q 475 276 474 204 q 478 415 476 349 q 479 529 479 482 q 478 638 479 578 q 477 758 478 697 q 476 869 476 818 q 474 950 475 919 q 474 981 474 981 l 590 983 q 588 947 590 983 q 584 847 586 910 q 580 702 582 783 q 578 532 578 621 q 579 349 578 443 q 581 176 581 256 q 583 49 582 97 q 585 0 585 0 l 467 0 m 179 349 l 533 358 l 533 260 l 179 265 l 179 349 m 113 3 q 114 45 113 3 q 116 158 115 88 q 118 315 117 229 q 119 490 119 401 q 117 664 119 579 q 113 816 115 749 q 109 924 111 883 q 107 964 107 964 l 224 969 q 223 935 224 969 q 222 847 222 901 q 220 727 221 792 q 219 600 219 663 q 218 489 218 538 q 219 377 218 440 q 221 249 219 314 q 223 128 222 183 q 224 38 224 72 q 225 4 225 4 l 113 3 m 465 1028 l 343 1099 l 225 1031 l 189 1067 l 294 1165 l 392 1163 l 500 1069 l 465 1028 z "},"Ḥ":{"ha":697,"x_min":107,"x_max":590,"o":"m 467 0 q 468 39 467 0 q 472 141 469 78 q 475 276 474 204 q 478 415 476 349 q 479 529 479 482 q 478 638 479 578 q 477 758 478 697 q 476 869 476 818 q 474 950 475 919 q 474 981 474 981 l 590 983 q 588 947 590 983 q 584 847 586 910 q 580 702 582 783 q 578 532 578 621 q 579 349 578 443 q 581 176 581 256 q 583 49 582 97 q 585 0 585 0 l 467 0 m 179 349 l 533 358 l 533 260 l 179 265 l 179 349 m 113 3 q 114 45 113 3 q 116 158 115 88 q 118 315 117 229 q 119 490 119 401 q 117 664 119 579 q 113 816 115 749 q 109 924 111 883 q 107 964 107 964 l 224 969 q 223 935 224 969 q 222 847 222 901 q 220 727 221 792 q 219 600 219 663 q 218 489 218 538 q 219 377 218 440 q 221 249 219 314 q 223 128 222 183 q 224 38 224 72 q 225 4 225 4 l 113 3 m 303 -225 l 299 -106 l 406 -114 l 401 -224 l 303 -225 z "},"I":{"ha":332,"x_min":107,"x_max":225,"o":"m 113 971 l 225 974 q 224 936 225 974 q 220 839 222 899 q 216 709 218 779 q 213 573 214 639 q 211 458 211 507 q 212 349 211 410 q 214 226 213 288 q 216 113 215 165 q 217 30 217 61 q 218 -1 218 -1 l 107 1 q 108 26 107 1 q 109 93 108 50 q 111 193 110 136 q 113 317 113 250 q 114 456 114 385 q 114 621 114 539 q 114 774 114 703 q 114 897 114 846 q 113 971 114 949 z "},"Ĳ":{"ha":913,"x_min":107,"x_max":811,"o":"m 113 971 l 225 974 q 224 936 225 974 q 220 839 222 899 q 216 709 218 779 q 213 573 214 639 q 211 458 211 507 q 212 349 211 410 q 214 226 213 288 q 216 113 215 165 q 217 30 217 61 q 218 -1 218 -1 l 107 1 q 108 26 107 1 q 109 93 108 50 q 111 193 110 136 q 113 317 113 250 q 114 456 114 385 q 114 621 114 539 q 114 774 114 703 q 114 897 114 846 q 113 971 114 949 m 592 -14 q 463 22 508 -14 q 400 119 418 58 q 382 251 382 179 q 386 333 382 292 q 396 415 390 374 l 485 414 q 479 354 482 383 q 475 299 476 325 q 474 249 474 272 q 485 149 474 190 q 522 88 496 108 q 594 67 549 67 q 653 84 631 67 q 689 131 676 101 q 706 200 701 161 q 711 282 711 239 q 711 332 711 303 q 711 397 711 361 q 710 471 711 432 q 710 550 710 510 q 710 638 710 586 q 708 748 710 689 q 706 863 707 807 q 703 965 706 919 l 811 968 q 809 762 810 871 q 808 558 808 653 q 808 465 808 511 q 808 374 808 419 q 808 279 808 328 q 797 159 808 213 q 761 67 786 106 q 694 7 736 28 q 592 -14 653 -14 z "},"Í":{"ha":332,"x_min":65,"x_max":322,"o":"m 113 971 l 225 974 q 224 936 225 974 q 220 839 222 899 q 216 709 218 779 q 213 573 214 639 q 211 458 211 507 q 212 349 211 410 q 214 226 213 288 q 216 113 215 165 q 217 30 217 61 q 218 -1 218 -1 l 107 1 q 108 26 107 1 q 109 93 108 50 q 111 193 110 136 q 113 317 113 250 q 114 456 114 385 q 114 621 114 539 q 114 774 114 703 q 114 897 114 846 q 113 971 114 949 m 96 1024 l 65 1076 q 115 1103 89 1089 q 167 1135 140 1118 q 203 1158 185 1146 q 239 1181 221 1169 q 272 1204 257 1193 l 322 1125 q 283 1108 303 1117 q 242 1090 263 1099 q 203 1072 222 1081 q 165 1056 183 1064 q 128 1039 146 1047 q 96 1024 111 1031 z "},"Ĭ":{"ha":332,"x_min":-35,"x_max":364,"o":"m 113 971 l 225 974 q 224 936 225 974 q 220 839 222 899 q 216 709 218 779 q 213 573 214 639 q 211 458 211 507 q 212 349 211 410 q 214 226 213 288 q 216 113 215 165 q 217 30 217 61 q 218 -1 218 -1 l 107 1 q 108 26 107 1 q 109 93 108 50 q 111 193 110 136 q 113 317 113 250 q 114 456 114 385 q 114 621 114 539 q 114 774 114 703 q 114 897 114 846 q 113 971 114 949 m 165 1047 q 58 1065 110 1047 q -35 1117 6 1082 l -4 1165 q 76 1128 32 1140 q 164 1117 119 1117 q 256 1129 211 1117 q 333 1167 300 1142 l 364 1122 q 275 1066 328 1085 q 165 1047 222 1047 z "},"Ǐ":{"ha":332,"x_min":10,"x_max":321,"o":"m 113 971 l 225 974 q 224 936 225 974 q 220 839 222 899 q 216 709 218 779 q 213 573 214 639 q 211 458 211 507 q 212 349 211 410 q 214 226 213 288 q 216 113 215 165 q 217 30 217 61 q 218 -1 218 -1 l 107 1 q 108 26 107 1 q 109 93 108 50 q 111 193 110 136 q 113 317 113 250 q 114 456 114 385 q 114 621 114 539 q 114 774 114 703 q 114 897 114 846 q 113 971 114 949 m 215 1039 l 118 1042 l 10 1135 l 44 1176 l 167 1106 l 285 1174 l 321 1138 l 215 1039 z "},"Î":{"ha":332,"x_min":10,"x_max":321,"o":"m 113 971 l 225 974 q 224 936 225 974 q 220 839 222 899 q 216 709 218 779 q 213 573 214 639 q 211 458 211 507 q 212 349 211 410 q 214 226 213 288 q 216 113 215 165 q 217 30 217 61 q 218 -1 218 -1 l 107 1 q 108 26 107 1 q 109 93 108 50 q 111 193 110 136 q 113 317 113 250 q 114 456 114 385 q 114 621 114 539 q 114 774 114 703 q 114 897 114 846 q 113 971 114 949 m 286 1028 l 164 1099 l 46 1031 l 10 1067 l 115 1165 l 213 1163 l 321 1069 l 286 1028 z "},"Ȉ":{"ha":332,"x_min":-61,"x_max":310,"o":"m 113 971 l 225 974 q 224 936 225 974 q 220 839 222 899 q 216 709 218 779 q 213 573 214 639 q 211 458 211 507 q 212 349 211 410 q 214 226 213 288 q 216 113 215 165 q 217 30 217 61 q 218 -1 218 -1 l 107 1 q 108 26 107 1 q 109 93 108 50 q 111 193 110 136 q 113 317 113 250 q 114 456 114 385 q 114 621 114 539 q 114 774 114 703 q 114 897 114 846 q 113 971 114 949 m 267 1039 q 256 1049 267 1039 q 231 1072 246 1058 q 203 1094 217 1085 q 173 1116 189 1104 q 145 1136 157 1128 q 133 1144 133 1144 l 196 1204 q 205 1193 196 1204 q 228 1167 214 1182 q 256 1138 242 1151 q 283 1111 271 1124 q 302 1092 294 1099 q 310 1085 310 1085 l 267 1039 m 72 1025 q 62 1035 72 1025 q 37 1058 51 1044 q 8 1081 22 1071 q -22 1102 -6 1090 q -49 1122 -37 1114 q -61 1131 -61 1131 l 1 1190 q 10 1179 1 1190 q 33 1153 19 1168 q 61 1124 47 1138 q 88 1097 76 1110 q 108 1078 100 1085 q 115 1071 115 1071 l 72 1025 z "},"Ï":{"ha":332,"x_min":-18,"x_max":347,"o":"m 113 971 l 225 974 q 224 936 225 974 q 220 839 222 899 q 216 709 218 779 q 213 573 214 639 q 211 458 211 507 q 212 349 211 410 q 214 226 213 288 q 216 113 215 165 q 217 30 217 61 q 218 -1 218 -1 l 107 1 q 108 26 107 1 q 109 93 108 50 q 111 193 110 136 q 113 317 113 250 q 114 456 114 385 q 114 621 114 539 q 114 774 114 703 q 114 897 114 846 q 113 971 114 949 m -18 1165 l 71 1156 l 67 1047 l -15 1046 l -18 1165 m 258 1165 l 347 1156 l 343 1047 l 261 1046 l 258 1165 z "},"İ":{"ha":332,"x_min":107,"x_max":225,"o":"m 113 971 l 225 974 q 224 936 225 974 q 220 839 222 899 q 216 709 218 779 q 213 573 214 639 q 211 458 211 507 q 212 349 211 410 q 214 226 213 288 q 216 113 215 165 q 217 30 217 61 q 218 -1 218 -1 l 107 1 q 108 26 107 1 q 109 93 108 50 q 111 193 110 136 q 113 317 113 250 q 114 456 114 385 q 114 621 114 539 q 114 774 114 703 q 114 897 114 846 q 113 971 114 949 m 117 1069 l 113 1189 l 219 1181 l 215 1071 l 117 1069 z "},"Ị":{"ha":332,"x_min":107,"x_max":225,"o":"m 113 971 l 225 974 q 224 936 225 974 q 220 839 222 899 q 216 709 218 779 q 213 573 214 639 q 211 458 211 507 q 212 349 211 410 q 214 226 213 288 q 216 113 215 165 q 217 30 217 61 q 218 -1 218 -1 l 107 1 q 108 26 107 1 q 109 93 108 50 q 111 193 110 136 q 113 317 113 250 q 114 456 114 385 q 114 621 114 539 q 114 774 114 703 q 114 897 114 846 q 113 971 114 949 m 119 -225 l 115 -106 l 222 -114 l 218 -224 l 119 -225 z "},"Ì":{"ha":332,"x_min":13,"x_max":269,"o":"m 113 971 l 225 974 q 224 936 225 974 q 220 839 222 899 q 216 709 218 779 q 213 573 214 639 q 211 458 211 507 q 212 349 211 410 q 214 226 213 288 q 216 113 215 165 q 217 30 217 61 q 218 -1 218 -1 l 107 1 q 108 26 107 1 q 109 93 108 50 q 111 193 110 136 q 113 317 113 250 q 114 456 114 385 q 114 621 114 539 q 114 774 114 703 q 114 897 114 846 q 113 971 114 949 m 239 1018 q 206 1033 224 1025 q 170 1049 189 1040 q 132 1067 151 1058 q 92 1085 113 1076 q 52 1102 72 1093 q 13 1119 32 1111 l 63 1199 q 114 1163 86 1182 q 168 1129 142 1144 q 222 1099 196 1114 q 269 1071 247 1083 l 239 1018 z "},"Ỉ":{"ha":332,"x_min":63,"x_max":271,"o":"m 113 971 l 225 974 q 224 936 225 974 q 220 839 222 899 q 216 709 218 779 q 213 573 214 639 q 211 458 211 507 q 212 349 211 410 q 214 226 213 288 q 216 113 215 165 q 217 30 217 61 q 218 -1 218 -1 l 107 1 q 108 26 107 1 q 109 93 108 50 q 111 193 110 136 q 113 317 113 250 q 114 456 114 385 q 114 621 114 539 q 114 774 114 703 q 114 897 114 846 q 113 971 114 949 m 124 1024 l 122 1067 q 187 1072 163 1065 q 211 1094 211 1078 q 190 1115 211 1110 q 136 1121 169 1121 q 99 1119 118 1121 q 63 1114 81 1117 l 63 1164 q 101 1168 82 1167 q 138 1169 119 1169 q 231 1153 192 1169 q 271 1097 271 1138 q 235 1044 271 1067 q 124 1024 200 1021 z "},"Ȋ":{"ha":332,"x_min":-35,"x_max":364,"o":"m 113 971 l 225 974 q 224 936 225 974 q 220 839 222 899 q 216 709 218 779 q 213 573 214 639 q 211 458 211 507 q 212 349 211 410 q 214 226 213 288 q 216 113 215 165 q 217 30 217 61 q 218 -1 218 -1 l 107 1 q 108 26 107 1 q 109 93 108 50 q 111 193 110 136 q 113 317 113 250 q 114 456 114 385 q 114 621 114 539 q 114 774 114 703 q 114 897 114 846 q 113 971 114 949 m -4 1038 l -35 1082 q 55 1138 1 1119 q 164 1157 108 1157 q 272 1140 219 1157 q 364 1088 325 1122 l 333 1039 q 254 1076 299 1064 q 165 1088 210 1088 q 74 1075 118 1088 q -4 1038 29 1063 z "},"Ī":{"ha":332,"x_min":8,"x_max":322,"o":"m 113 971 l 225 974 q 224 936 225 974 q 220 839 222 899 q 216 709 218 779 q 213 573 214 639 q 211 458 211 507 q 212 349 211 410 q 214 226 213 288 q 216 113 215 165 q 217 30 217 61 q 218 -1 218 -1 l 107 1 q 108 26 107 1 q 109 93 108 50 q 111 193 110 136 q 113 317 113 250 q 114 456 114 385 q 114 621 114 539 q 114 774 114 703 q 114 897 114 846 q 113 971 114 949 m 8 1067 l 8 1140 l 315 1136 l 322 1071 l 8 1067 z "},"Į":{"ha":332,"x_min":0,"x_max":233,"o":"m 113 971 l 225 974 q 224 936 225 974 q 220 839 222 899 q 216 709 218 779 q 213 573 214 639 q 211 458 211 507 q 212 349 211 410 q 214 226 213 288 q 216 113 215 165 q 217 30 217 61 q 218 -1 218 -1 l 107 1 q 108 26 107 1 q 109 93 108 50 q 111 193 110 136 q 113 317 113 250 q 114 456 114 385 q 114 621 114 539 q 114 774 114 703 q 114 897 114 846 q 113 971 114 949 m 146 -181 q 44 -163 88 -181 q 0 -106 0 -146 q 21 -57 0 -81 q 70 -16 42 -33 q 124 7 99 1 l 193 0 q 151 -12 181 0 q 98 -44 122 -24 q 74 -87 74 -64 q 97 -112 74 -106 q 151 -119 121 -119 q 195 -117 171 -119 q 233 -114 219 -115 l 233 -172 q 191 -178 213 -176 q 146 -181 169 -181 z "},"Ĩ":{"ha":332,"x_min":-22,"x_max":351,"o":"m 113 971 l 225 974 q 224 936 225 974 q 220 839 222 899 q 216 709 218 779 q 213 573 214 639 q 211 458 211 507 q 212 349 211 410 q 214 226 213 288 q 216 113 215 165 q 217 30 217 61 q 218 -1 218 -1 l 107 1 q 108 26 107 1 q 109 93 108 50 q 111 193 110 136 q 113 317 113 250 q 114 456 114 385 q 114 621 114 539 q 114 774 114 703 q 114 897 114 846 q 113 971 114 949 m 40 1053 l -22 1053 q -4 1110 -19 1089 q 35 1141 11 1132 q 86 1150 58 1150 q 167 1135 126 1150 q 242 1121 207 1121 q 274 1127 263 1121 q 289 1150 286 1133 l 351 1150 q 333 1092 349 1114 q 295 1062 318 1071 q 243 1053 272 1053 q 163 1067 203 1053 q 88 1082 124 1082 q 57 1076 67 1082 q 40 1053 47 1069 z "},"J":{"ha":581,"x_min":50,"x_max":479,"o":"m 260 -14 q 131 22 176 -14 q 68 119 86 58 q 50 251 50 179 q 54 333 50 292 q 64 415 58 374 l 153 414 q 147 354 150 383 q 143 299 144 325 q 142 249 142 272 q 153 149 142 190 q 190 88 164 108 q 263 67 217 67 q 322 84 299 67 q 357 131 344 101 q 374 200 369 161 q 379 282 379 239 q 379 332 379 303 q 379 397 379 361 q 378 471 379 432 q 378 550 378 510 q 378 638 378 586 q 376 748 378 689 q 374 863 375 807 q 371 965 374 919 l 479 968 q 477 762 478 871 q 476 558 476 653 q 476 465 476 511 q 476 374 476 419 q 476 279 476 328 q 465 159 476 213 q 429 67 454 106 q 363 7 404 28 q 260 -14 321 -14 z "},"Ĵ":{"ha":581,"x_min":50,"x_max":575,"o":"m 260 -14 q 131 22 176 -14 q 68 119 86 58 q 50 251 50 179 q 54 333 50 292 q 64 415 58 374 l 153 414 q 147 354 150 383 q 143 299 144 325 q 142 249 142 272 q 153 149 142 190 q 190 88 164 108 q 263 67 217 67 q 322 84 299 67 q 357 131 344 101 q 374 200 369 161 q 379 282 379 239 q 379 332 379 303 q 379 397 379 361 q 378 471 379 432 q 378 550 378 510 q 378 638 378 586 q 376 748 378 689 q 374 863 375 807 q 371 965 374 919 l 479 968 q 477 762 478 871 q 476 558 476 653 q 476 465 476 511 q 476 374 476 419 q 476 279 476 328 q 465 159 476 213 q 429 67 454 106 q 363 7 404 28 q 260 -14 321 -14 m 540 1028 l 418 1099 l 300 1031 l 264 1067 l 369 1165 l 467 1163 l 575 1069 l 540 1028 z "},"K":{"ha":624,"x_min":107,"x_max":615,"o":"m 482 1 q 384 128 436 63 q 277 261 332 194 q 168 390 222 328 q 262 553 215 471 q 352 715 308 636 q 431 860 396 793 q 492 975 467 926 l 606 978 q 546 881 579 936 q 475 763 513 825 q 401 638 438 700 q 331 518 364 575 q 274 418 299 461 q 353 318 313 369 q 438 215 394 267 q 526 110 482 163 q 615 7 571 58 l 482 1 m 107 0 q 108 32 107 0 q 110 117 108 64 q 113 235 111 169 q 115 367 114 300 q 115 494 115 435 q 115 653 115 569 q 113 810 114 736 q 112 930 113 883 q 111 976 111 976 l 221 975 q 220 945 221 975 q 218 865 219 915 q 215 751 217 814 q 213 623 214 689 q 213 496 213 557 q 213 368 213 436 q 215 235 214 300 q 216 117 215 169 q 217 32 217 64 q 218 0 218 0 l 107 0 z "},"Ķ":{"ha":624,"x_min":107,"x_max":615,"o":"m 482 1 q 384 128 436 63 q 277 261 332 194 q 168 390 222 328 q 262 553 215 471 q 352 715 308 636 q 431 860 396 793 q 492 975 467 926 l 606 978 q 546 881 579 936 q 475 763 513 825 q 401 638 438 700 q 331 518 364 575 q 274 418 299 461 q 353 318 313 369 q 438 215 394 267 q 526 110 482 163 q 615 7 571 58 l 482 1 m 107 0 q 108 32 107 0 q 110 117 108 64 q 113 235 111 169 q 115 367 114 300 q 115 494 115 435 q 115 653 115 569 q 113 810 114 736 q 112 930 113 883 q 111 976 111 976 l 221 975 q 220 945 221 975 q 218 865 219 915 q 215 751 217 814 q 213 623 214 689 q 213 496 213 557 q 213 368 213 436 q 215 235 214 300 q 216 117 215 169 q 217 32 217 64 q 218 0 218 0 l 107 0 m 343 -400 l 301 -372 q 335 -303 322 -342 q 347 -233 347 -265 l 297 -232 l 290 -111 l 408 -103 q 407 -162 407 -133 q 406 -222 407 -192 q 398 -280 406 -246 q 376 -347 390 -314 q 343 -400 363 -379 z "},"L":{"ha":539,"x_min":107,"x_max":521,"o":"m 107 -7 q 108 106 107 42 q 109 244 108 171 q 110 390 110 317 q 111 529 111 464 q 110 659 111 594 q 109 783 110 724 q 108 890 108 842 q 107 972 107 939 l 218 981 q 215 898 217 943 q 213 803 214 853 q 210 706 211 754 q 209 613 210 657 q 208 532 208 568 q 208 448 208 497 q 209 342 208 399 q 210 225 210 285 q 212 110 211 165 q 214 7 213 54 l 107 -7 m 107 -7 l 168 93 l 521 89 l 521 4 l 107 -7 z "},"Ǉ":{"ha":1078,"x_min":107,"x_max":976,"o":"m 757 -14 q 628 22 674 -14 q 565 119 582 58 q 547 251 547 179 q 551 333 547 292 q 561 415 556 374 l 650 414 q 642 326 644 367 q 639 249 639 285 q 650 149 639 190 q 688 88 661 108 q 760 67 714 67 q 819 84 796 67 q 854 131 842 101 q 872 200 867 161 q 876 282 876 239 q 876 332 876 303 q 876 397 876 361 q 876 471 876 432 q 875 550 875 510 q 875 638 875 586 q 874 748 875 689 q 872 863 872 807 q 868 965 871 919 l 976 968 q 974 762 975 871 q 974 558 974 653 q 974 465 974 511 q 974 374 974 419 q 974 279 974 328 q 963 159 974 213 q 926 67 951 106 q 860 7 901 28 q 757 -14 818 -14 m 107 -7 l 168 93 l 496 89 l 496 4 l 107 -7 m 107 -7 q 109 149 108 57 q 110 342 110 242 q 111 529 111 443 q 110 701 111 617 q 109 857 110 786 q 107 972 108 928 l 218 981 q 215 876 217 935 q 211 754 213 817 q 209 634 210 692 q 208 532 208 576 q 209 422 208 488 q 210 283 210 357 q 212 138 211 210 q 214 7 213 65 l 107 -7 z "},"Ĺ":{"ha":539,"x_min":60,"x_max":521,"o":"m 107 -7 q 108 106 107 42 q 109 244 108 171 q 110 390 110 317 q 111 529 111 464 q 110 659 111 594 q 109 783 110 724 q 108 890 108 842 q 107 972 107 939 l 218 981 q 215 898 217 943 q 213 803 214 853 q 210 706 211 754 q 209 613 210 657 q 208 532 208 568 q 208 448 208 497 q 209 342 208 399 q 210 225 210 285 q 212 110 211 165 q 214 7 213 54 l 107 -7 m 107 -7 l 168 93 l 521 89 l 521 4 l 107 -7 m 90 1024 l 60 1076 q 109 1103 83 1089 q 161 1135 135 1118 q 197 1158 179 1146 q 233 1181 215 1169 q 267 1204 251 1193 l 317 1125 q 277 1108 297 1117 q 237 1090 257 1099 q 197 1072 217 1081 q 159 1056 178 1064 q 123 1039 140 1047 q 90 1024 106 1031 z "},"Ľ":{"ha":539,"x_min":107,"x_max":521,"o":"m 107 -7 q 108 106 107 42 q 109 244 108 171 q 110 390 110 317 q 111 529 111 464 q 110 659 111 594 q 109 783 110 724 q 108 890 108 842 q 107 972 107 939 l 218 981 q 215 898 217 943 q 213 803 214 853 q 210 706 211 754 q 209 613 210 657 q 208 532 208 568 q 208 448 208 497 q 209 342 208 399 q 210 225 210 285 q 212 110 211 165 q 214 7 213 54 l 107 -7 m 107 -7 l 168 93 l 521 89 l 521 4 l 107 -7 m 433 697 l 394 722 q 431 795 419 758 q 442 861 442 832 l 389 863 l 382 982 l 497 990 q 497 952 497 975 q 496 906 496 929 q 494 864 496 883 q 480 780 494 831 q 433 697 465 729 z "},"Ļ":{"ha":539,"x_min":107,"x_max":521,"o":"m 107 -7 q 108 106 107 42 q 109 244 108 171 q 110 390 110 317 q 111 529 111 464 q 110 659 111 594 q 109 783 110 724 q 108 890 108 842 q 107 972 107 939 l 218 981 q 215 898 217 943 q 213 803 214 853 q 210 706 211 754 q 209 613 210 657 q 208 532 208 568 q 208 448 208 497 q 209 342 208 399 q 210 225 210 285 q 212 110 211 165 q 214 7 213 54 l 107 -7 m 107 -7 l 168 93 l 521 89 l 521 4 l 107 -7 m 326 -400 l 285 -372 q 318 -303 306 -342 q 331 -233 331 -265 l 281 -232 l 274 -111 l 392 -103 q 390 -162 390 -133 q 389 -222 390 -192 q 381 -280 389 -246 q 360 -347 374 -314 q 326 -400 346 -379 z "},"Ŀ":{"ha":539,"x_min":107,"x_max":533,"o":"m 107 -7 q 108 106 107 42 q 109 244 108 171 q 110 390 110 317 q 111 529 111 464 q 110 659 111 594 q 109 783 110 724 q 108 890 108 842 q 107 972 107 939 l 218 981 q 215 898 217 943 q 213 803 214 853 q 210 706 211 754 q 209 613 210 657 q 208 532 208 568 q 208 448 208 497 q 209 342 208 399 q 210 225 210 285 q 212 110 211 165 q 214 7 213 54 l 107 -7 m 107 -7 l 168 93 l 521 89 l 521 4 l 107 -7 m 533 458 l 426 461 l 419 579 l 529 586 l 533 458 z "},"ǈ":{"ha":842,"x_min":107,"x_max":750,"o":"m 107 -7 q 108 106 107 42 q 109 244 108 171 q 110 390 110 317 q 111 529 111 464 q 110 659 111 594 q 109 783 110 724 q 108 890 108 842 q 107 972 107 939 l 218 981 q 215 898 217 943 q 213 803 214 853 q 210 706 211 754 q 209 613 210 657 q 208 532 208 568 q 208 448 208 497 q 209 342 208 399 q 210 225 210 285 q 212 110 211 165 q 214 7 213 54 l 107 -7 m 107 -7 l 168 93 l 521 89 l 521 4 l 107 -7 m 531 -231 l 528 -158 q 585 -149 558 -158 q 628 -112 611 -139 q 647 -37 646 -86 q 650 63 650 8 q 650 191 650 118 q 650 364 650 264 q 649 543 650 464 q 646 669 647 622 q 644 715 644 715 l 750 714 q 747 669 750 714 q 742 545 744 624 q 739 365 739 467 q 739 260 739 304 q 739 182 739 215 q 739 119 739 149 q 738 58 739 89 q 736 -10 738 28 q 719 -110 735 -68 q 676 -179 703 -153 q 613 -218 650 -206 q 531 -231 576 -231 m 647 824 l 644 943 l 747 947 l 743 828 l 647 824 z "},"Ł":{"ha":539,"x_min":19,"x_max":521,"o":"m 107 -7 q 108 106 107 42 q 109 244 108 171 q 110 390 110 317 q 111 529 111 464 q 110 659 111 594 q 109 783 110 724 q 108 890 108 842 q 107 972 107 939 l 218 981 q 215 898 217 943 q 213 803 214 853 q 210 706 211 754 q 209 613 210 657 q 208 532 208 568 q 208 448 208 497 q 209 342 208 399 q 210 225 210 285 q 212 110 211 165 q 214 7 213 54 l 107 -7 m 107 -7 l 168 93 l 521 89 l 521 4 l 107 -7 m 21 301 l 19 413 q 32 420 19 413 q 65 442 44 428 q 113 472 86 456 q 167 507 139 489 q 222 542 196 525 q 288 585 256 563 q 348 626 321 607 q 391 658 375 646 q 407 669 407 669 l 408 558 q 395 550 408 558 q 360 528 382 542 q 312 497 339 514 q 258 462 285 479 q 207 429 231 444 q 142 386 175 408 q 82 344 110 364 q 38 313 54 325 q 21 301 21 301 z "},"M":{"ha":936,"x_min":107,"x_max":829,"o":"m 107 -1 q 109 100 108 44 q 110 217 110 156 q 111 345 111 279 q 111 478 111 411 q 111 615 111 547 q 111 747 111 683 q 110 869 111 811 q 108 975 110 928 l 251 978 q 274 878 261 933 q 301 759 286 822 q 333 629 317 696 q 365 496 349 563 q 392 387 379 440 q 418 283 406 333 q 442 187 431 232 q 464 104 454 142 q 487 189 475 143 q 511 287 499 235 q 537 394 524 339 q 564 507 550 450 q 594 638 579 574 q 624 763 610 703 q 651 876 639 824 q 674 968 664 928 l 828 968 q 827 878 828 929 q 826 769 826 828 q 825 645 825 710 q 825 513 825 581 q 825 376 825 444 q 826 242 825 308 q 827 113 826 175 q 829 -3 828 51 l 728 0 q 728 103 728 54 q 729 198 729 153 q 729 283 729 243 q 729 361 729 324 q 730 433 729 399 q 731 497 731 467 q 731 615 731 561 q 731 717 731 668 q 729 815 731 767 q 703 716 715 765 q 678 617 690 667 q 651 511 665 567 q 626 408 639 463 q 597 293 613 354 q 563 162 582 232 q 524 10 544 92 l 403 14 q 366 157 383 89 q 333 288 349 225 q 304 408 318 350 q 276 519 290 465 q 251 622 264 572 q 224 719 238 672 q 197 811 211 767 q 198 753 197 797 q 199 643 199 708 q 199 496 199 578 q 199 405 199 453 q 201 307 200 357 q 201 206 201 257 q 202 102 201 154 q 203 -1 203 50 l 107 -1 z "},"N":{"ha":707,"x_min":107,"x_max":600,"o":"m 107 978 l 268 978 q 294 876 279 932 q 326 759 310 821 q 361 632 343 697 q 397 503 379 567 q 437 368 418 433 q 472 248 456 303 q 501 153 489 193 q 501 239 501 194 q 501 329 501 283 q 500 423 500 375 q 500 519 500 471 q 499 610 500 564 q 499 704 499 657 q 498 799 499 751 q 497 896 497 847 q 496 993 497 944 l 600 993 q 597 896 599 950 q 595 780 596 842 q 594 650 594 718 q 593 513 593 582 q 593 379 593 446 q 594 248 593 313 q 595 124 594 183 q 597 13 596 64 l 442 1 q 412 113 428 54 q 378 236 396 172 q 342 365 360 300 q 306 493 324 429 q 278 585 292 540 q 253 672 265 631 q 228 752 240 714 q 206 824 217 790 q 206 751 206 790 q 206 667 206 711 q 207 575 207 624 q 207 475 207 526 q 208 387 207 432 q 208 294 208 342 q 209 199 208 247 q 210 100 210 150 q 211 0 210 50 l 111 1 q 112 104 111 49 q 113 222 113 160 q 114 351 114 285 q 114 485 114 418 q 113 622 114 554 q 112 753 113 689 q 110 874 111 817 q 107 978 108 931 z "},"Ǌ":{"ha":1288,"x_min":107,"x_max":1186,"o":"m 107 978 l 268 978 q 294 876 279 932 q 326 759 310 821 q 361 632 343 697 q 397 503 379 567 q 437 368 418 433 q 472 248 456 303 q 501 153 489 193 q 501 239 501 194 q 501 329 501 283 q 500 423 500 375 q 500 519 500 471 q 499 610 500 564 q 499 704 499 657 q 498 799 499 751 q 497 896 497 847 q 496 993 497 944 l 600 993 q 597 896 599 950 q 595 780 596 842 q 594 650 594 718 q 593 513 593 582 q 593 379 593 446 q 594 248 593 313 q 595 124 594 183 q 597 13 596 64 l 442 1 q 412 113 428 54 q 378 236 396 172 q 342 365 360 300 q 306 493 324 429 q 278 585 292 540 q 253 672 265 631 q 228 752 240 714 q 206 824 217 790 q 206 751 206 790 q 206 667 206 711 q 207 575 207 624 q 207 475 207 526 q 208 387 207 432 q 208 294 208 342 q 209 199 208 247 q 210 100 210 150 q 211 0 210 50 l 111 1 q 112 104 111 49 q 113 222 113 160 q 114 351 114 285 q 114 485 114 418 q 113 622 114 554 q 112 753 113 689 q 110 874 111 817 q 107 978 108 931 m 967 -14 q 838 22 883 -14 q 775 119 793 58 q 757 251 757 179 q 761 333 757 292 q 771 415 765 374 l 860 414 q 854 354 857 383 q 850 299 851 325 q 849 249 849 272 q 860 149 849 190 q 897 88 871 108 q 969 67 924 67 q 1028 84 1006 67 q 1064 131 1051 101 q 1081 200 1076 161 q 1086 282 1086 239 q 1086 332 1086 303 q 1086 397 1086 361 q 1085 471 1086 432 q 1085 550 1085 510 q 1085 638 1085 586 q 1083 748 1085 689 q 1081 863 1082 807 q 1078 965 1081 919 l 1186 968 q 1184 762 1185 871 q 1183 558 1183 653 q 1183 465 1183 511 q 1183 374 1183 419 q 1183 279 1183 328 q 1172 159 1183 213 q 1136 67 1161 106 q 1069 7 1111 28 q 967 -14 1028 -14 z "},"Ń":{"ha":707,"x_min":107,"x_max":600,"o":"m 107 978 l 268 978 q 294 876 279 932 q 326 759 310 821 q 361 632 343 697 q 397 503 379 567 q 437 368 418 433 q 472 248 456 303 q 501 153 489 193 q 501 239 501 194 q 501 329 501 283 q 500 423 500 375 q 500 519 500 471 q 499 610 500 564 q 499 704 499 657 q 498 799 499 751 q 497 896 497 847 q 496 993 497 944 l 600 993 q 597 896 599 950 q 595 780 596 842 q 594 650 594 718 q 593 513 593 582 q 593 379 593 446 q 594 248 593 313 q 595 124 594 183 q 597 13 596 64 l 442 1 q 412 113 428 54 q 378 236 396 172 q 342 365 360 300 q 306 493 324 429 q 278 585 292 540 q 253 672 265 631 q 228 752 240 714 q 206 824 217 790 q 206 751 206 790 q 206 667 206 711 q 207 575 207 624 q 207 475 207 526 q 208 387 207 432 q 208 294 208 342 q 209 199 208 247 q 210 100 210 150 q 211 0 210 50 l 111 1 q 112 104 111 49 q 113 222 113 160 q 114 351 114 285 q 114 485 114 418 q 113 622 114 554 q 112 753 113 689 q 110 874 111 817 q 107 978 108 931 m 292 1024 l 261 1076 q 310 1103 285 1089 q 363 1135 336 1118 q 399 1158 381 1146 q 435 1181 417 1169 q 468 1204 453 1193 l 518 1125 q 478 1108 499 1117 q 438 1090 458 1099 q 399 1072 418 1081 q 360 1056 379 1064 q 324 1039 342 1047 q 292 1024 307 1031 z "},"Ň":{"ha":707,"x_min":107,"x_max":600,"o":"m 107 978 l 268 978 q 294 876 279 932 q 326 759 310 821 q 361 632 343 697 q 397 503 379 567 q 437 368 418 433 q 472 248 456 303 q 501 153 489 193 q 501 239 501 194 q 501 329 501 283 q 500 423 500 375 q 500 519 500 471 q 499 610 500 564 q 499 704 499 657 q 498 799 499 751 q 497 896 497 847 q 496 993 497 944 l 600 993 q 597 896 599 950 q 595 780 596 842 q 594 650 594 718 q 593 513 593 582 q 593 379 593 446 q 594 248 593 313 q 595 124 594 183 q 597 13 596 64 l 442 1 q 412 113 428 54 q 378 236 396 172 q 342 365 360 300 q 306 493 324 429 q 278 585 292 540 q 253 672 265 631 q 228 752 240 714 q 206 824 217 790 q 206 751 206 790 q 206 667 206 711 q 207 575 207 624 q 207 475 207 526 q 208 387 207 432 q 208 294 208 342 q 209 199 208 247 q 210 100 210 150 q 211 0 210 50 l 111 1 q 112 104 111 49 q 113 222 113 160 q 114 351 114 285 q 114 485 114 418 q 113 622 114 554 q 112 753 113 689 q 110 874 111 817 q 107 978 108 931 m 411 1039 l 314 1042 l 206 1135 l 240 1176 l 363 1106 l 481 1174 l 517 1138 l 411 1039 z "},"Ņ":{"ha":707,"x_min":107,"x_max":600,"o":"m 107 978 l 268 978 q 294 876 279 932 q 326 759 310 821 q 361 632 343 697 q 397 503 379 567 q 437 368 418 433 q 472 248 456 303 q 501 153 489 193 q 501 239 501 194 q 501 329 501 283 q 500 423 500 375 q 500 519 500 471 q 499 610 500 564 q 499 704 499 657 q 498 799 499 751 q 497 896 497 847 q 496 993 497 944 l 600 993 q 597 896 599 950 q 595 780 596 842 q 594 650 594 718 q 593 513 593 582 q 593 379 593 446 q 594 248 593 313 q 595 124 594 183 q 597 13 596 64 l 442 1 q 412 113 428 54 q 378 236 396 172 q 342 365 360 300 q 306 493 324 429 q 278 585 292 540 q 253 672 265 631 q 228 752 240 714 q 206 824 217 790 q 206 751 206 790 q 206 667 206 711 q 207 575 207 624 q 207 475 207 526 q 208 387 207 432 q 208 294 208 342 q 209 199 208 247 q 210 100 210 150 q 211 0 210 50 l 111 1 q 112 104 111 49 q 113 222 113 160 q 114 351 114 285 q 114 485 114 418 q 113 622 114 554 q 112 753 113 689 q 110 874 111 817 q 107 978 108 931 m 361 -400 l 319 -372 q 353 -303 340 -342 q 365 -233 365 -265 l 315 -232 l 308 -111 l 426 -103 q 425 -162 425 -133 q 424 -222 425 -192 q 416 -280 424 -246 q 394 -347 408 -314 q 361 -400 381 -379 z "},"Ɲ":{"ha":707,"x_min":31,"x_max":600,"o":"m 31 -131 q 70 -118 54 -131 q 96 -78 86 -106 q 107 -8 106 -51 q 110 78 108 25 q 112 197 111 131 q 113 336 113 263 q 114 485 114 410 q 114 594 114 540 q 113 701 114 649 q 111 803 113 754 q 109 897 110 853 q 107 978 108 940 l 268 978 q 294 876 279 932 q 326 759 310 821 q 361 632 343 697 q 397 503 379 567 q 437 368 418 433 q 472 248 456 303 q 501 153 489 193 q 501 239 501 194 q 501 329 501 283 q 500 423 500 375 q 500 519 500 471 q 499 610 500 564 q 499 704 499 657 q 498 799 499 751 q 497 896 497 847 q 496 993 497 944 l 600 993 q 597 896 599 950 q 595 780 596 842 q 594 650 594 718 q 593 513 593 582 q 593 379 593 446 q 594 248 593 313 q 595 124 594 183 q 597 13 596 64 l 442 1 q 412 113 428 54 q 378 236 396 172 q 342 365 360 300 q 306 493 324 429 q 278 585 292 540 q 253 672 265 631 q 228 752 240 714 q 206 824 217 790 q 206 667 206 756 q 207 475 207 578 q 207 358 207 414 q 207 252 207 303 q 206 156 207 201 q 206 67 206 110 q 206 -12 206 25 q 197 -96 206 -60 q 168 -156 188 -132 q 117 -193 149 -181 q 40 -206 85 -206 l 31 -131 z "},"ǋ":{"ha":1010,"x_min":107,"x_max":918,"o":"m 107 978 l 268 978 q 294 876 279 932 q 326 759 310 821 q 361 632 343 697 q 397 503 379 567 q 437 368 418 433 q 472 248 456 303 q 501 153 489 193 q 501 239 501 194 q 501 329 501 283 q 500 423 500 375 q 500 519 500 471 q 499 610 500 564 q 499 704 499 657 q 498 799 499 751 q 497 896 497 847 q 496 993 497 944 l 600 993 q 597 896 599 950 q 595 780 596 842 q 594 650 594 718 q 593 513 593 582 q 593 379 593 446 q 594 248 593 313 q 595 124 594 183 q 597 13 596 64 l 442 1 q 412 113 428 54 q 378 236 396 172 q 342 365 360 300 q 306 493 324 429 q 278 585 292 540 q 253 672 265 631 q 228 752 240 714 q 206 824 217 790 q 206 751 206 790 q 206 667 206 711 q 207 575 207 624 q 207 475 207 526 q 208 387 207 432 q 208 294 208 342 q 209 199 208 247 q 210 100 210 150 q 211 0 210 50 l 111 1 q 112 104 111 49 q 113 222 113 160 q 114 351 114 285 q 114 485 114 418 q 113 622 114 554 q 112 753 113 689 q 110 874 111 817 q 107 978 108 931 m 699 -231 l 696 -158 q 753 -149 726 -158 q 797 -112 779 -139 q 815 -37 814 -86 q 818 63 818 8 q 818 191 818 118 q 818 364 818 264 q 817 543 818 464 q 814 669 815 622 q 813 715 813 715 l 918 714 q 915 669 918 714 q 910 545 913 624 q 907 365 907 467 q 907 260 907 304 q 907 182 907 215 q 907 119 907 149 q 906 58 907 89 q 904 -10 906 28 q 887 -110 903 -68 q 844 -179 871 -153 q 781 -218 818 -206 q 699 -231 744 -231 m 815 824 l 813 943 l 915 947 l 911 828 l 815 824 z "},"Ñ":{"ha":707,"x_min":107,"x_max":600,"o":"m 107 978 l 268 978 q 294 876 279 932 q 326 759 310 821 q 361 632 343 697 q 397 503 379 567 q 437 368 418 433 q 472 248 456 303 q 501 153 489 193 q 501 239 501 194 q 501 329 501 283 q 500 423 500 375 q 500 519 500 471 q 499 610 500 564 q 499 704 499 657 q 498 799 499 751 q 497 896 497 847 q 496 993 497 944 l 600 993 q 597 896 599 950 q 595 780 596 842 q 594 650 594 718 q 593 513 593 582 q 593 379 593 446 q 594 248 593 313 q 595 124 594 183 q 597 13 596 64 l 442 1 q 412 113 428 54 q 378 236 396 172 q 342 365 360 300 q 306 493 324 429 q 278 585 292 540 q 253 672 265 631 q 228 752 240 714 q 206 824 217 790 q 206 751 206 790 q 206 667 206 711 q 207 575 207 624 q 207 475 207 526 q 208 387 207 432 q 208 294 208 342 q 209 199 208 247 q 210 100 210 150 q 211 0 210 50 l 111 1 q 112 104 111 49 q 113 222 113 160 q 114 351 114 285 q 114 485 114 418 q 113 622 114 554 q 112 753 113 689 q 110 874 111 817 q 107 978 108 931 m 236 1053 l 174 1053 q 192 1110 176 1089 q 231 1141 207 1132 q 282 1150 254 1150 q 363 1135 322 1150 q 438 1121 403 1121 q 470 1127 458 1121 q 485 1150 482 1133 l 547 1150 q 529 1092 544 1114 q 491 1062 514 1071 q 439 1053 468 1053 q 359 1067 399 1053 q 283 1082 319 1082 q 253 1076 263 1082 q 236 1053 243 1069 z "},"Ŋ":{"ha":707,"x_min":107,"x_max":600,"o":"m 433 -217 l 425 -142 q 475 -128 458 -142 q 498 -81 492 -114 q 504 11 504 -47 q 466 119 486 63 q 424 237 446 176 q 379 358 401 297 q 335 479 357 419 q 297 582 315 532 q 260 677 278 632 q 229 759 243 722 q 206 824 215 796 q 206 667 206 756 q 207 475 207 578 q 208 364 207 421 q 208 247 208 307 q 209 125 208 188 q 211 0 210 63 l 111 1 q 113 142 113 64 q 113 308 113 221 q 114 485 114 396 q 113 666 114 576 q 111 835 113 756 q 107 978 110 915 l 257 978 q 298 854 275 921 q 347 717 321 788 q 399 574 372 646 q 434 478 417 526 q 469 385 451 431 q 501 299 486 340 q 501 372 501 340 q 501 427 501 403 q 500 474 500 451 q 500 519 500 496 q 500 610 500 564 q 499 704 500 657 q 499 799 499 751 q 498 896 499 847 q 496 993 497 944 l 600 993 q 597 917 599 958 q 595 828 596 876 q 594 729 594 781 q 593 623 593 678 q 593 513 593 568 q 594 378 593 446 q 595 244 594 311 q 597 110 596 178 q 597 -24 597 43 q 587 -107 597 -71 q 556 -167 576 -143 q 504 -204 535 -192 q 433 -217 474 -217 z "},"O":{"ha":679,"x_min":88,"x_max":592,"o":"m 329 -7 q 219 18 263 -7 q 149 90 175 43 q 108 200 122 136 q 95 288 100 242 q 89 388 90 335 q 88 496 88 440 q 89 565 88 531 q 93 634 90 600 q 101 701 96 668 q 113 764 106 733 q 192 918 136 857 q 354 979 249 979 q 465 951 422 979 q 534 873 508 922 q 572 760 560 824 q 588 631 585 700 q 592 493 592 563 q 588 374 592 432 q 577 265 585 317 q 556 169 569 214 q 476 41 529 89 q 329 -7 424 -7 m 333 78 q 400 99 374 78 q 444 158 426 119 q 471 247 461 196 q 484 364 481 300 q 488 500 488 428 q 485 615 488 561 q 478 714 483 669 q 437 849 467 800 q 346 899 407 899 q 252 848 285 899 q 206 715 219 797 q 198 662 201 690 q 193 603 194 633 q 191 542 192 574 q 190 479 190 511 q 193 347 190 408 q 204 235 196 285 q 228 151 213 186 q 270 97 244 115 q 333 78 296 78 z "},"Ó":{"ha":679,"x_min":88,"x_max":592,"o":"m 329 -7 q 219 18 263 -7 q 149 90 175 43 q 108 200 122 136 q 95 288 100 242 q 89 388 90 335 q 88 496 88 440 q 89 565 88 531 q 93 634 90 600 q 101 701 96 668 q 113 764 106 733 q 192 918 136 857 q 354 979 249 979 q 465 951 422 979 q 534 873 508 922 q 572 760 560 824 q 588 631 585 700 q 592 493 592 563 q 588 374 592 432 q 577 265 585 317 q 556 169 569 214 q 476 41 529 89 q 329 -7 424 -7 m 333 78 q 400 99 374 78 q 444 158 426 119 q 471 247 461 196 q 484 364 481 300 q 488 500 488 428 q 485 615 488 561 q 478 714 483 669 q 437 849 467 800 q 346 899 407 899 q 252 848 285 899 q 206 715 219 797 q 198 662 201 690 q 193 603 194 633 q 191 542 192 574 q 190 479 190 511 q 193 347 190 408 q 204 235 196 285 q 228 151 213 186 q 270 97 244 115 q 333 78 296 78 m 276 1024 l 246 1076 q 295 1103 269 1089 q 347 1135 321 1118 q 383 1158 365 1146 q 419 1181 401 1169 q 453 1204 438 1193 l 503 1125 q 463 1108 483 1117 q 423 1090 443 1099 q 383 1072 403 1081 q 345 1056 364 1064 q 309 1039 326 1047 q 276 1024 292 1031 z "},"Ŏ":{"ha":679,"x_min":88,"x_max":592,"o":"m 329 -7 q 219 18 263 -7 q 149 90 175 43 q 108 200 122 136 q 95 288 100 242 q 89 388 90 335 q 88 496 88 440 q 89 565 88 531 q 93 634 90 600 q 101 701 96 668 q 113 764 106 733 q 192 918 136 857 q 354 979 249 979 q 465 951 422 979 q 534 873 508 922 q 572 760 560 824 q 588 631 585 700 q 592 493 592 563 q 588 374 592 432 q 577 265 585 317 q 556 169 569 214 q 476 41 529 89 q 329 -7 424 -7 m 333 78 q 400 99 374 78 q 444 158 426 119 q 471 247 461 196 q 484 364 481 300 q 488 500 488 428 q 485 615 488 561 q 478 714 483 669 q 437 849 467 800 q 346 899 407 899 q 252 848 285 899 q 206 715 219 797 q 198 662 201 690 q 193 603 194 633 q 191 542 192 574 q 190 479 190 511 q 193 347 190 408 q 204 235 196 285 q 228 151 213 186 q 270 97 244 115 q 333 78 296 78 m 346 1047 q 238 1065 290 1047 q 146 1117 186 1082 l 176 1165 q 256 1128 213 1140 q 344 1117 300 1117 q 436 1129 392 1117 q 514 1167 481 1142 l 544 1122 q 456 1066 508 1085 q 346 1047 403 1047 z "},"Ǒ":{"ha":679,"x_min":88,"x_max":592,"o":"m 329 -7 q 219 18 263 -7 q 149 90 175 43 q 108 200 122 136 q 95 288 100 242 q 89 388 90 335 q 88 496 88 440 q 89 565 88 531 q 93 634 90 600 q 101 701 96 668 q 113 764 106 733 q 192 918 136 857 q 354 979 249 979 q 465 951 422 979 q 534 873 508 922 q 572 760 560 824 q 588 631 585 700 q 592 493 592 563 q 588 374 592 432 q 577 265 585 317 q 556 169 569 214 q 476 41 529 89 q 329 -7 424 -7 m 333 78 q 400 99 374 78 q 444 158 426 119 q 471 247 461 196 q 484 364 481 300 q 488 500 488 428 q 485 615 488 561 q 478 714 483 669 q 437 849 467 800 q 346 899 407 899 q 252 848 285 899 q 206 715 219 797 q 198 662 201 690 q 193 603 194 633 q 191 542 192 574 q 190 479 190 511 q 193 347 190 408 q 204 235 196 285 q 228 151 213 186 q 270 97 244 115 q 333 78 296 78 m 396 1039 l 299 1042 l 190 1135 l 225 1176 l 347 1106 l 465 1174 l 501 1138 l 396 1039 z "},"Ô":{"ha":679,"x_min":88,"x_max":592,"o":"m 329 -7 q 219 18 263 -7 q 149 90 175 43 q 108 200 122 136 q 95 288 100 242 q 89 388 90 335 q 88 496 88 440 q 89 565 88 531 q 93 634 90 600 q 101 701 96 668 q 113 764 106 733 q 192 918 136 857 q 354 979 249 979 q 465 951 422 979 q 534 873 508 922 q 572 760 560 824 q 588 631 585 700 q 592 493 592 563 q 588 374 592 432 q 577 265 585 317 q 556 169 569 214 q 476 41 529 89 q 329 -7 424 -7 m 333 78 q 400 99 374 78 q 444 158 426 119 q 471 247 461 196 q 484 364 481 300 q 488 500 488 428 q 485 615 488 561 q 478 714 483 669 q 437 849 467 800 q 346 899 407 899 q 252 848 285 899 q 206 715 219 797 q 198 662 201 690 q 193 603 194 633 q 191 542 192 574 q 190 479 190 511 q 193 347 190 408 q 204 235 196 285 q 228 151 213 186 q 270 97 244 115 q 333 78 296 78 m 467 1028 l 344 1099 l 226 1031 l 190 1067 l 296 1165 l 393 1163 l 501 1069 l 467 1028 z "},"Ố":{"ha":679,"x_min":88,"x_max":592,"o":"m 329 -7 q 219 18 263 -7 q 149 90 175 43 q 108 200 122 136 q 95 288 100 242 q 89 388 90 335 q 88 496 88 440 q 89 565 88 531 q 93 634 90 600 q 101 701 96 668 q 113 764 106 733 q 192 918 136 857 q 354 979 249 979 q 465 951 422 979 q 534 873 508 922 q 572 760 560 824 q 588 631 585 700 q 592 493 592 563 q 588 374 592 432 q 577 265 585 317 q 556 169 569 214 q 476 41 529 89 q 329 -7 424 -7 m 333 78 q 400 99 374 78 q 444 158 426 119 q 471 247 461 196 q 484 364 481 300 q 488 500 488 428 q 485 615 488 561 q 478 714 483 669 q 437 849 467 800 q 346 899 407 899 q 252 848 285 899 q 206 715 219 797 q 198 662 201 690 q 193 603 194 633 q 191 542 192 574 q 190 479 190 511 q 193 347 190 408 q 204 235 196 285 q 228 151 213 186 q 270 97 244 115 q 333 78 296 78 m 468 1028 l 346 1099 l 228 1031 l 192 1067 l 297 1165 l 394 1163 l 503 1069 l 468 1028 m 336 1197 l 301 1246 q 313 1253 301 1246 q 345 1271 325 1260 q 389 1296 365 1282 q 446 1332 421 1315 q 471 1349 471 1349 l 521 1274 q 508 1269 521 1274 q 474 1257 494 1264 q 432 1240 453 1250 q 390 1222 413 1232 q 352 1204 368 1211 q 336 1197 336 1197 z "},"Ộ":{"ha":679,"x_min":88,"x_max":592,"o":"m 329 -7 q 219 18 263 -7 q 149 90 175 43 q 108 200 122 136 q 95 288 100 242 q 89 388 90 335 q 88 496 88 440 q 89 565 88 531 q 93 634 90 600 q 101 701 96 668 q 113 764 106 733 q 192 918 136 857 q 354 979 249 979 q 465 951 422 979 q 534 873 508 922 q 572 760 560 824 q 588 631 585 700 q 592 493 592 563 q 588 374 592 432 q 577 265 585 317 q 556 169 569 214 q 476 41 529 89 q 329 -7 424 -7 m 333 78 q 400 99 374 78 q 444 158 426 119 q 471 247 461 196 q 484 364 481 300 q 488 500 488 428 q 485 615 488 561 q 478 714 483 669 q 437 849 467 800 q 346 899 407 899 q 252 848 285 899 q 206 715 219 797 q 198 662 201 690 q 193 603 194 633 q 191 542 192 574 q 190 479 190 511 q 193 347 190 408 q 204 235 196 285 q 228 151 213 186 q 270 97 244 115 q 333 78 296 78 m 290 -225 l 286 -106 l 393 -114 l 389 -224 l 290 -225 m 467 1028 l 344 1099 l 226 1031 l 190 1067 l 296 1165 l 393 1163 l 501 1069 l 467 1028 z "},"Ồ":{"ha":679,"x_min":88,"x_max":592,"o":"m 329 -7 q 219 18 263 -7 q 149 90 175 43 q 108 200 122 136 q 95 288 100 242 q 89 388 90 335 q 88 496 88 440 q 89 565 88 531 q 93 634 90 600 q 101 701 96 668 q 113 764 106 733 q 192 918 136 857 q 354 979 249 979 q 465 951 422 979 q 534 873 508 922 q 572 760 560 824 q 588 631 585 700 q 592 493 592 563 q 588 374 592 432 q 577 265 585 317 q 556 169 569 214 q 476 41 529 89 q 329 -7 424 -7 m 333 78 q 400 99 374 78 q 444 158 426 119 q 471 247 461 196 q 484 364 481 300 q 488 500 488 428 q 485 615 488 561 q 478 714 483 669 q 437 849 467 800 q 346 899 407 899 q 252 848 285 899 q 206 715 219 797 q 198 662 201 690 q 193 603 194 633 q 191 542 192 574 q 190 479 190 511 q 193 347 190 408 q 204 235 196 285 q 228 151 213 186 q 270 97 244 115 q 333 78 296 78 m 467 1028 l 344 1099 l 226 1031 l 190 1067 l 296 1165 l 393 1163 l 501 1069 l 467 1028 m 365 1197 q 349 1204 365 1197 q 311 1222 333 1211 q 269 1240 289 1232 q 228 1257 249 1250 q 194 1269 208 1264 q 181 1274 181 1274 l 231 1349 q 256 1332 231 1349 q 313 1296 281 1315 q 356 1271 336 1282 q 388 1253 376 1260 q 400 1246 400 1246 l 365 1197 z "},"Ổ":{"ha":679,"x_min":88,"x_max":592,"o":"m 329 -7 q 219 18 263 -7 q 149 90 175 43 q 108 200 122 136 q 95 288 100 242 q 89 388 90 335 q 88 496 88 440 q 89 565 88 531 q 93 634 90 600 q 101 701 96 668 q 113 764 106 733 q 192 918 136 857 q 354 979 249 979 q 465 951 422 979 q 534 873 508 922 q 572 760 560 824 q 588 631 585 700 q 592 493 592 563 q 588 374 592 432 q 577 265 585 317 q 556 169 569 214 q 476 41 529 89 q 329 -7 424 -7 m 333 78 q 400 99 374 78 q 444 158 426 119 q 471 247 461 196 q 484 364 481 300 q 488 500 488 428 q 485 615 488 561 q 478 714 483 669 q 437 849 467 800 q 346 899 407 899 q 252 848 285 899 q 206 715 219 797 q 198 662 201 690 q 193 603 194 633 q 191 542 192 574 q 190 479 190 511 q 193 347 190 408 q 204 235 196 285 q 228 151 213 186 q 270 97 244 115 q 333 78 296 78 m 467 1028 l 344 1099 l 226 1031 l 190 1067 l 296 1165 l 393 1163 l 501 1069 l 467 1028 m 311 1203 l 310 1246 q 374 1251 350 1244 q 399 1274 399 1257 q 378 1294 399 1289 q 324 1300 357 1300 q 287 1298 306 1300 q 250 1293 268 1296 l 250 1343 q 288 1347 269 1346 q 325 1349 307 1349 q 392 1342 361 1349 q 440 1319 422 1335 q 458 1276 458 1304 q 423 1223 458 1246 q 311 1203 388 1200 z "},"Ỗ":{"ha":679,"x_min":88,"x_max":592,"o":"m 329 -7 q 219 18 263 -7 q 149 90 175 43 q 108 200 122 136 q 95 288 100 242 q 89 388 90 335 q 88 496 88 440 q 89 565 88 531 q 93 634 90 600 q 101 701 96 668 q 113 764 106 733 q 192 918 136 857 q 354 979 249 979 q 465 951 422 979 q 534 873 508 922 q 572 760 560 824 q 588 631 585 700 q 592 493 592 563 q 588 374 592 432 q 577 265 585 317 q 556 169 569 214 q 476 41 529 89 q 329 -7 424 -7 m 333 78 q 400 99 374 78 q 444 158 426 119 q 471 247 461 196 q 484 364 481 300 q 488 500 488 428 q 485 615 488 561 q 478 714 483 669 q 437 849 467 800 q 346 899 407 899 q 252 848 285 899 q 206 715 219 797 q 198 662 201 690 q 193 603 194 633 q 191 542 192 574 q 190 479 190 511 q 193 347 190 408 q 204 235 196 285 q 228 151 213 186 q 270 97 244 115 q 333 78 296 78 m 468 1028 l 346 1099 l 228 1031 l 192 1067 l 297 1165 l 394 1163 l 503 1069 l 468 1028 m 224 1200 l 161 1200 q 179 1258 164 1236 q 218 1288 194 1279 q 269 1297 242 1297 q 350 1283 310 1297 q 425 1268 390 1268 q 458 1274 446 1268 q 472 1297 469 1281 l 535 1297 q 517 1240 532 1261 q 478 1209 501 1218 q 426 1200 456 1200 q 347 1215 386 1200 q 271 1229 307 1229 q 240 1223 250 1229 q 224 1200 231 1217 z "},"Ȍ":{"ha":679,"x_min":88,"x_max":592,"o":"m 329 -7 q 219 18 263 -7 q 149 90 175 43 q 108 200 122 136 q 95 288 100 242 q 89 388 90 335 q 88 496 88 440 q 89 565 88 531 q 93 634 90 600 q 101 701 96 668 q 113 764 106 733 q 192 918 136 857 q 354 979 249 979 q 465 951 422 979 q 534 873 508 922 q 572 760 560 824 q 588 631 585 700 q 592 493 592 563 q 588 374 592 432 q 577 265 585 317 q 556 169 569 214 q 476 41 529 89 q 329 -7 424 -7 m 333 78 q 400 99 374 78 q 444 158 426 119 q 471 247 461 196 q 484 364 481 300 q 488 500 488 428 q 485 615 488 561 q 478 714 483 669 q 437 849 467 800 q 346 899 407 899 q 252 848 285 899 q 206 715 219 797 q 198 662 201 690 q 193 603 194 633 q 191 542 192 574 q 190 479 190 511 q 193 347 190 408 q 204 235 196 285 q 228 151 213 186 q 270 97 244 115 q 333 78 296 78 m 447 1039 q 437 1049 447 1039 q 412 1072 426 1058 q 383 1094 397 1085 q 353 1116 369 1104 q 326 1136 338 1128 q 314 1144 314 1144 l 376 1204 q 385 1193 376 1204 q 408 1167 394 1182 q 436 1138 422 1151 q 463 1111 451 1124 q 483 1092 475 1099 q 490 1085 490 1085 l 447 1039 m 253 1025 q 242 1035 253 1025 q 217 1058 232 1044 q 189 1081 203 1071 q 159 1102 175 1090 q 131 1122 143 1114 q 119 1131 119 1131 l 182 1190 q 191 1179 182 1190 q 214 1153 200 1168 q 242 1124 228 1138 q 269 1097 257 1110 q 288 1078 281 1085 q 296 1071 296 1071 l 253 1025 z "},"Ö":{"ha":679,"x_min":88,"x_max":592,"o":"m 329 -7 q 219 18 263 -7 q 149 90 175 43 q 108 200 122 136 q 95 288 100 242 q 89 388 90 335 q 88 496 88 440 q 89 565 88 531 q 93 634 90 600 q 101 701 96 668 q 113 764 106 733 q 192 918 136 857 q 354 979 249 979 q 465 951 422 979 q 534 873 508 922 q 572 760 560 824 q 588 631 585 700 q 592 493 592 563 q 588 374 592 432 q 577 265 585 317 q 556 169 569 214 q 476 41 529 89 q 329 -7 424 -7 m 333 78 q 400 99 374 78 q 444 158 426 119 q 471 247 461 196 q 484 364 481 300 q 488 500 488 428 q 485 615 488 561 q 478 714 483 669 q 437 849 467 800 q 346 899 407 899 q 252 848 285 899 q 206 715 219 797 q 198 662 201 690 q 193 603 194 633 q 191 542 192 574 q 190 479 190 511 q 193 347 190 408 q 204 235 196 285 q 228 151 213 186 q 270 97 244 115 q 333 78 296 78 m 163 1165 l 251 1156 l 247 1047 l 165 1046 l 163 1165 m 439 1165 l 528 1156 l 524 1047 l 442 1046 l 439 1165 z "},"Ȫ":{"ha":679,"x_min":88,"x_max":592,"o":"m 329 -7 q 219 18 263 -7 q 149 90 175 43 q 108 200 122 136 q 95 288 100 242 q 89 388 90 335 q 88 496 88 440 q 89 565 88 531 q 93 634 90 600 q 101 701 96 668 q 113 764 106 733 q 192 918 136 857 q 354 979 249 979 q 465 951 422 979 q 534 873 508 922 q 572 760 560 824 q 588 631 585 700 q 592 493 592 563 q 588 374 592 432 q 577 265 585 317 q 556 169 569 214 q 476 41 529 89 q 329 -7 424 -7 m 333 78 q 400 99 374 78 q 444 158 426 119 q 471 247 461 196 q 484 364 481 300 q 488 500 488 428 q 485 615 488 561 q 478 714 483 669 q 437 849 467 800 q 346 899 407 899 q 252 848 285 899 q 206 715 219 797 q 198 662 201 690 q 193 603 194 633 q 191 542 192 574 q 190 479 190 511 q 193 347 190 408 q 204 235 196 285 q 228 151 213 186 q 270 97 244 115 q 333 78 296 78 m 179 1228 l 179 1310 l 501 1306 l 508 1232 l 179 1228 m 247 1047 l 165 1046 l 163 1165 l 251 1156 l 247 1047 m 524 1047 l 442 1046 l 439 1165 l 528 1156 l 524 1047 z "},"Ȱ":{"ha":679,"x_min":88,"x_max":592,"o":"m 329 -7 q 219 18 263 -7 q 149 90 175 43 q 108 200 122 136 q 95 288 100 242 q 89 388 90 335 q 88 496 88 440 q 89 565 88 531 q 93 634 90 600 q 101 701 96 668 q 113 764 106 733 q 192 918 136 857 q 354 979 249 979 q 465 951 422 979 q 534 873 508 922 q 572 760 560 824 q 588 631 585 700 q 592 493 592 563 q 588 374 592 432 q 577 265 585 317 q 556 169 569 214 q 476 41 529 89 q 329 -7 424 -7 m 333 78 q 400 99 374 78 q 444 158 426 119 q 471 247 461 196 q 484 364 481 300 q 488 500 488 428 q 485 615 488 561 q 478 714 483 669 q 437 849 467 800 q 346 899 407 899 q 252 848 285 899 q 206 715 219 797 q 198 662 201 690 q 193 603 194 633 q 191 542 192 574 q 190 479 190 511 q 193 347 190 408 q 204 235 196 285 q 228 151 213 186 q 270 97 244 115 q 333 78 296 78 m 188 1251 l 188 1332 l 494 1328 l 501 1256 l 188 1251 m 297 1067 l 293 1186 l 400 1178 l 396 1068 l 297 1067 z "},"Ọ":{"ha":679,"x_min":88,"x_max":592,"o":"m 329 -7 q 219 18 263 -7 q 149 90 175 43 q 108 200 122 136 q 95 288 100 242 q 89 388 90 335 q 88 496 88 440 q 89 565 88 531 q 93 634 90 600 q 101 701 96 668 q 113 764 106 733 q 192 918 136 857 q 354 979 249 979 q 465 951 422 979 q 534 873 508 922 q 572 760 560 824 q 588 631 585 700 q 592 493 592 563 q 588 374 592 432 q 577 265 585 317 q 556 169 569 214 q 476 41 529 89 q 329 -7 424 -7 m 333 78 q 400 99 374 78 q 444 158 426 119 q 471 247 461 196 q 484 364 481 300 q 488 500 488 428 q 485 615 488 561 q 478 714 483 669 q 437 849 467 800 q 346 899 407 899 q 252 848 285 899 q 206 715 219 797 q 198 662 201 690 q 193 603 194 633 q 191 542 192 574 q 190 479 190 511 q 193 347 190 408 q 204 235 196 285 q 228 151 213 186 q 270 97 244 115 q 333 78 296 78 m 290 -225 l 286 -106 l 393 -114 l 389 -224 l 290 -225 z "},"Ò":{"ha":679,"x_min":88,"x_max":592,"o":"m 329 -7 q 219 18 263 -7 q 149 90 175 43 q 108 200 122 136 q 95 288 100 242 q 89 388 90 335 q 88 496 88 440 q 89 565 88 531 q 93 634 90 600 q 101 701 96 668 q 113 764 106 733 q 192 918 136 857 q 354 979 249 979 q 465 951 422 979 q 534 873 508 922 q 572 760 560 824 q 588 631 585 700 q 592 493 592 563 q 588 374 592 432 q 577 265 585 317 q 556 169 569 214 q 476 41 529 89 q 329 -7 424 -7 m 333 78 q 400 99 374 78 q 444 158 426 119 q 471 247 461 196 q 484 364 481 300 q 488 500 488 428 q 485 615 488 561 q 478 714 483 669 q 437 849 467 800 q 346 899 407 899 q 252 848 285 899 q 206 715 219 797 q 198 662 201 690 q 193 603 194 633 q 191 542 192 574 q 190 479 190 511 q 193 347 190 408 q 204 235 196 285 q 228 151 213 186 q 270 97 244 115 q 333 78 296 78 m 419 1018 q 387 1033 404 1025 q 351 1049 369 1040 q 313 1067 332 1058 q 273 1085 293 1076 q 233 1102 253 1093 q 193 1119 213 1111 l 243 1199 q 294 1163 267 1182 q 349 1129 322 1144 q 402 1099 376 1114 q 450 1071 428 1083 l 419 1018 z "},"Ỏ":{"ha":679,"x_min":88,"x_max":592,"o":"m 329 -7 q 219 18 263 -7 q 149 90 175 43 q 108 200 122 136 q 95 288 100 242 q 89 388 90 335 q 88 496 88 440 q 89 565 88 531 q 93 634 90 600 q 101 701 96 668 q 113 764 106 733 q 192 918 136 857 q 354 979 249 979 q 465 951 422 979 q 534 873 508 922 q 572 760 560 824 q 588 631 585 700 q 592 493 592 563 q 588 374 592 432 q 577 265 585 317 q 556 169 569 214 q 476 41 529 89 q 329 -7 424 -7 m 333 78 q 400 99 374 78 q 444 158 426 119 q 471 247 461 196 q 484 364 481 300 q 488 500 488 428 q 485 615 488 561 q 478 714 483 669 q 437 849 467 800 q 346 899 407 899 q 252 848 285 899 q 206 715 219 797 q 198 662 201 690 q 193 603 194 633 q 191 542 192 574 q 190 479 190 511 q 193 347 190 408 q 204 235 196 285 q 228 151 213 186 q 270 97 244 115 q 333 78 296 78 m 304 1024 l 303 1067 q 367 1072 343 1065 q 392 1094 392 1078 q 371 1115 392 1110 q 317 1121 350 1121 q 280 1119 299 1121 q 243 1114 261 1117 l 243 1164 q 281 1168 263 1167 q 318 1169 300 1169 q 412 1153 372 1169 q 451 1097 451 1138 q 416 1044 451 1067 q 304 1024 381 1021 z "},"Ơ":{"ha":679,"x_min":88,"x_max":661,"o":"m 329 -7 q 219 18 263 -7 q 149 90 175 43 q 108 200 122 136 q 95 288 100 242 q 89 388 90 335 q 88 496 88 440 q 89 565 88 531 q 93 634 90 600 q 101 701 96 668 q 113 764 106 733 q 192 918 136 857 q 354 979 249 979 q 465 951 422 979 q 534 873 508 922 q 572 760 560 824 q 588 631 585 700 q 592 493 592 563 q 588 374 592 432 q 577 265 585 317 q 556 169 569 214 q 476 41 529 89 q 329 -7 424 -7 m 333 78 q 400 99 374 78 q 444 158 426 119 q 471 247 461 196 q 484 364 481 300 q 488 500 488 428 q 485 615 488 561 q 478 714 483 669 q 437 849 467 800 q 346 899 407 899 q 252 848 285 899 q 206 715 219 797 q 198 662 201 690 q 193 603 194 633 q 191 542 192 574 q 190 479 190 511 q 193 347 190 408 q 204 235 196 285 q 228 151 213 186 q 270 97 244 115 q 333 78 296 78 m 472 811 l 463 850 q 518 874 485 856 q 578 923 551 892 q 604 996 604 954 l 547 997 l 539 1119 l 661 1113 q 660 1062 661 1094 q 657 999 658 1029 q 630 916 654 956 q 565 849 606 876 q 472 811 525 821 z "},"Ớ":{"ha":679,"x_min":88,"x_max":661,"o":"m 329 -7 q 219 18 263 -7 q 149 90 175 43 q 108 200 122 136 q 95 288 100 242 q 89 388 90 335 q 88 496 88 440 q 89 565 88 531 q 93 634 90 600 q 101 701 96 668 q 113 764 106 733 q 192 918 136 857 q 354 979 249 979 q 465 951 422 979 q 534 873 508 922 q 572 760 560 824 q 588 631 585 700 q 592 493 592 563 q 588 374 592 432 q 577 265 585 317 q 556 169 569 214 q 476 41 529 89 q 329 -7 424 -7 m 333 78 q 400 99 374 78 q 444 158 426 119 q 471 247 461 196 q 484 364 481 300 q 488 500 488 428 q 485 615 488 561 q 478 714 483 669 q 437 849 467 800 q 346 899 407 899 q 252 848 285 899 q 206 715 219 797 q 198 662 201 690 q 193 603 194 633 q 191 542 192 574 q 190 479 190 511 q 193 347 190 408 q 204 235 196 285 q 228 151 213 186 q 270 97 244 115 q 333 78 296 78 m 472 811 l 463 850 q 518 874 485 856 q 578 923 551 892 q 604 996 604 954 l 547 997 l 539 1119 l 661 1113 q 660 1062 661 1094 q 657 999 658 1029 q 630 916 654 956 q 565 849 606 876 q 472 811 525 821 m 276 1024 l 246 1076 q 278 1094 261 1085 q 312 1113 294 1103 q 347 1135 329 1124 q 402 1169 375 1151 q 453 1204 429 1188 l 503 1125 q 443 1098 474 1111 q 383 1072 413 1085 q 345 1056 364 1064 q 309 1039 326 1047 q 276 1024 292 1031 z "},"Ợ":{"ha":679,"x_min":88,"x_max":661,"o":"m 329 -7 q 219 18 263 -7 q 149 90 175 43 q 108 200 122 136 q 95 288 100 242 q 89 388 90 335 q 88 496 88 440 q 89 565 88 531 q 93 634 90 600 q 101 701 96 668 q 113 764 106 733 q 192 918 136 857 q 354 979 249 979 q 465 951 422 979 q 534 873 508 922 q 572 760 560 824 q 588 631 585 700 q 592 493 592 563 q 588 374 592 432 q 577 265 585 317 q 556 169 569 214 q 476 41 529 89 q 329 -7 424 -7 m 333 78 q 400 99 374 78 q 444 158 426 119 q 471 247 461 196 q 484 364 481 300 q 488 500 488 428 q 485 615 488 561 q 478 714 483 669 q 437 849 467 800 q 346 899 407 899 q 252 848 285 899 q 206 715 219 797 q 198 662 201 690 q 193 603 194 633 q 191 542 192 574 q 190 479 190 511 q 193 347 190 408 q 204 235 196 285 q 228 151 213 186 q 270 97 244 115 q 333 78 296 78 m 472 811 l 463 850 q 518 874 485 856 q 578 923 551 892 q 604 996 604 954 l 547 997 l 539 1119 l 661 1113 q 660 1062 661 1094 q 657 999 658 1029 q 630 916 654 956 q 565 849 606 876 q 472 811 525 821 m 290 -225 l 286 -106 l 393 -114 l 389 -224 l 290 -225 z "},"Ờ":{"ha":679,"x_min":88,"x_max":661,"o":"m 329 -7 q 219 18 263 -7 q 149 90 175 43 q 108 200 122 136 q 95 288 100 242 q 89 388 90 335 q 88 496 88 440 q 89 565 88 531 q 93 634 90 600 q 101 701 96 668 q 113 764 106 733 q 192 918 136 857 q 354 979 249 979 q 465 951 422 979 q 534 873 508 922 q 572 760 560 824 q 588 631 585 700 q 592 493 592 563 q 588 374 592 432 q 577 265 585 317 q 556 169 569 214 q 476 41 529 89 q 329 -7 424 -7 m 333 78 q 400 99 374 78 q 444 158 426 119 q 471 247 461 196 q 484 364 481 300 q 488 500 488 428 q 485 615 488 561 q 478 714 483 669 q 437 849 467 800 q 346 899 407 899 q 252 848 285 899 q 206 715 219 797 q 198 662 201 690 q 193 603 194 633 q 191 542 192 574 q 190 479 190 511 q 193 347 190 408 q 204 235 196 285 q 228 151 213 186 q 270 97 244 115 q 333 78 296 78 m 472 811 l 463 850 q 518 874 485 856 q 578 923 551 892 q 604 996 604 954 l 547 997 l 539 1119 l 661 1113 q 660 1062 661 1094 q 657 999 658 1029 q 630 916 654 956 q 565 849 606 876 q 472 811 525 821 m 419 1018 q 387 1033 404 1025 q 351 1049 369 1040 q 313 1067 332 1058 q 273 1085 293 1076 q 233 1102 253 1093 q 193 1119 213 1111 l 243 1199 q 294 1163 267 1182 q 349 1129 322 1144 q 402 1099 376 1114 q 450 1071 428 1083 l 419 1018 z "},"Ở":{"ha":679,"x_min":88,"x_max":661,"o":"m 329 -7 q 219 18 263 -7 q 149 90 175 43 q 108 200 122 136 q 95 288 100 242 q 89 388 90 335 q 88 496 88 440 q 89 565 88 531 q 93 634 90 600 q 101 701 96 668 q 113 764 106 733 q 192 918 136 857 q 354 979 249 979 q 465 951 422 979 q 534 873 508 922 q 572 760 560 824 q 588 631 585 700 q 592 493 592 563 q 588 374 592 432 q 577 265 585 317 q 556 169 569 214 q 476 41 529 89 q 329 -7 424 -7 m 333 78 q 400 99 374 78 q 444 158 426 119 q 471 247 461 196 q 484 364 481 300 q 488 500 488 428 q 485 615 488 561 q 478 714 483 669 q 437 849 467 800 q 346 899 407 899 q 252 848 285 899 q 206 715 219 797 q 198 662 201 690 q 193 603 194 633 q 191 542 192 574 q 190 479 190 511 q 193 347 190 408 q 204 235 196 285 q 228 151 213 186 q 270 97 244 115 q 333 78 296 78 m 472 811 l 463 850 q 518 874 485 856 q 578 923 551 892 q 604 996 604 954 l 547 997 l 539 1119 l 661 1113 q 660 1062 661 1094 q 657 999 658 1029 q 630 916 654 956 q 565 849 606 876 q 472 811 525 821 m 304 1024 l 303 1067 q 367 1072 343 1065 q 392 1094 392 1078 q 371 1115 392 1110 q 317 1121 350 1121 q 280 1119 299 1121 q 243 1114 261 1117 l 243 1164 q 281 1168 263 1167 q 318 1169 300 1169 q 412 1153 372 1169 q 451 1097 451 1138 q 416 1044 451 1067 q 304 1024 381 1021 z "},"Ỡ":{"ha":679,"x_min":88,"x_max":689,"o":"m 329 -7 q 219 18 263 -7 q 149 90 175 43 q 108 200 122 136 q 95 288 100 242 q 89 388 90 335 q 88 496 88 440 q 89 565 88 531 q 93 634 90 600 q 101 701 96 668 q 113 764 106 733 q 192 918 136 857 q 354 979 249 979 q 465 951 422 979 q 534 873 508 922 q 572 760 560 824 q 588 631 585 700 q 592 493 592 563 q 588 374 592 432 q 577 265 585 317 q 556 169 569 214 q 476 41 529 89 q 329 -7 424 -7 m 333 78 q 400 99 374 78 q 444 158 426 119 q 471 247 461 196 q 484 364 481 300 q 488 500 488 428 q 485 615 488 561 q 478 714 483 669 q 437 849 467 800 q 346 899 407 899 q 252 848 285 899 q 206 715 219 797 q 198 662 201 690 q 193 603 194 633 q 191 542 192 574 q 190 479 190 511 q 193 347 190 408 q 204 235 196 285 q 228 151 213 186 q 270 97 244 115 q 333 78 296 78 m 500 811 l 490 850 q 546 874 513 856 q 606 923 579 892 q 632 996 632 954 l 575 997 l 567 1119 l 689 1113 q 688 1062 689 1094 q 685 999 686 1029 q 658 916 682 956 q 593 849 633 876 q 500 811 553 821 m 221 1053 l 158 1053 q 176 1110 161 1089 q 215 1141 192 1132 q 267 1150 239 1150 q 347 1135 307 1150 q 422 1121 388 1121 q 455 1127 443 1121 q 469 1150 467 1133 l 532 1150 q 514 1092 529 1114 q 476 1062 499 1071 q 424 1053 453 1053 q 344 1067 383 1053 q 268 1082 304 1082 q 238 1076 247 1082 q 221 1053 228 1069 z "},"Ő":{"ha":679,"x_min":88,"x_max":597,"o":"m 329 -7 q 219 18 263 -7 q 149 90 175 43 q 108 200 122 136 q 95 288 100 242 q 89 388 90 335 q 88 496 88 440 q 89 565 88 531 q 93 634 90 600 q 101 701 96 668 q 113 764 106 733 q 192 918 136 857 q 354 979 249 979 q 465 951 422 979 q 534 873 508 922 q 572 760 560 824 q 588 631 585 700 q 592 493 592 563 q 588 374 592 432 q 577 265 585 317 q 556 169 569 214 q 476 41 529 89 q 329 -7 424 -7 m 333 78 q 400 99 374 78 q 444 158 426 119 q 471 247 461 196 q 484 364 481 300 q 488 500 488 428 q 485 615 488 561 q 478 714 483 669 q 437 849 467 800 q 346 899 407 899 q 252 848 285 899 q 206 715 219 797 q 198 662 201 690 q 193 603 194 633 q 191 542 192 574 q 190 479 190 511 q 193 347 190 408 q 204 235 196 285 q 228 151 213 186 q 270 97 244 115 q 333 78 296 78 m 269 1039 l 226 1085 q 234 1092 226 1085 q 254 1111 242 1099 q 281 1138 267 1124 q 308 1167 294 1151 q 331 1193 322 1182 q 340 1204 340 1204 l 403 1144 q 391 1136 403 1144 q 363 1116 379 1128 q 333 1094 347 1104 q 306 1072 321 1085 q 280 1049 290 1058 q 269 1039 269 1039 m 464 1025 l 421 1071 q 428 1078 421 1071 q 449 1097 436 1085 q 475 1124 461 1110 q 503 1153 489 1138 q 526 1179 517 1168 q 535 1190 535 1190 l 597 1131 q 585 1122 597 1131 q 558 1102 574 1114 q 528 1081 542 1090 q 500 1058 515 1071 q 474 1035 485 1044 q 464 1025 464 1025 z "},"Ȏ":{"ha":679,"x_min":88,"x_max":592,"o":"m 329 -7 q 219 18 263 -7 q 149 90 175 43 q 108 200 122 136 q 95 288 100 242 q 89 388 90 335 q 88 496 88 440 q 89 565 88 531 q 93 634 90 600 q 101 701 96 668 q 113 764 106 733 q 192 918 136 857 q 354 979 249 979 q 465 951 422 979 q 534 873 508 922 q 572 760 560 824 q 588 631 585 700 q 592 493 592 563 q 588 374 592 432 q 577 265 585 317 q 556 169 569 214 q 476 41 529 89 q 329 -7 424 -7 m 333 78 q 400 99 374 78 q 444 158 426 119 q 471 247 461 196 q 484 364 481 300 q 488 500 488 428 q 485 615 488 561 q 478 714 483 669 q 437 849 467 800 q 346 899 407 899 q 252 848 285 899 q 206 715 219 797 q 198 662 201 690 q 193 603 194 633 q 191 542 192 574 q 190 479 190 511 q 193 347 190 408 q 204 235 196 285 q 228 151 213 186 q 270 97 244 115 q 333 78 296 78 m 176 1038 l 146 1082 q 235 1138 182 1119 q 344 1157 289 1157 q 453 1140 400 1157 q 544 1088 506 1122 l 514 1039 q 435 1076 479 1064 q 346 1088 390 1088 q 254 1075 299 1088 q 176 1038 210 1063 z "},"Ō":{"ha":679,"x_min":88,"x_max":592,"o":"m 329 -7 q 219 18 263 -7 q 149 90 175 43 q 108 200 122 136 q 95 288 100 242 q 89 388 90 335 q 88 496 88 440 q 89 565 88 531 q 93 634 90 600 q 101 701 96 668 q 113 764 106 733 q 192 918 136 857 q 354 979 249 979 q 465 951 422 979 q 534 873 508 922 q 572 760 560 824 q 588 631 585 700 q 592 493 592 563 q 588 374 592 432 q 577 265 585 317 q 556 169 569 214 q 476 41 529 89 q 329 -7 424 -7 m 333 78 q 400 99 374 78 q 444 158 426 119 q 471 247 461 196 q 484 364 481 300 q 488 500 488 428 q 485 615 488 561 q 478 714 483 669 q 437 849 467 800 q 346 899 407 899 q 252 848 285 899 q 206 715 219 797 q 198 662 201 690 q 193 603 194 633 q 191 542 192 574 q 190 479 190 511 q 193 347 190 408 q 204 235 196 285 q 228 151 213 186 q 270 97 244 115 q 333 78 296 78 m 189 1067 l 189 1140 l 496 1136 l 503 1071 l 189 1067 z "},"Ǫ":{"ha":679,"x_min":88,"x_max":592,"o":"m 329 -7 q 219 18 263 -7 q 149 90 175 43 q 108 200 122 136 q 95 288 100 242 q 89 388 90 335 q 88 496 88 440 q 89 565 88 531 q 93 634 90 600 q 101 701 96 668 q 113 764 106 733 q 192 918 136 857 q 354 979 249 979 q 465 951 422 979 q 534 873 508 922 q 572 760 560 824 q 588 631 585 700 q 592 493 592 563 q 588 374 592 432 q 577 265 585 317 q 556 169 569 214 q 476 41 529 89 q 329 -7 424 -7 m 333 78 q 400 99 374 78 q 444 158 426 119 q 471 247 461 196 q 484 364 481 300 q 488 500 488 428 q 485 615 488 561 q 478 714 483 669 q 437 849 467 800 q 346 899 407 899 q 252 848 285 899 q 206 715 219 797 q 198 662 201 690 q 193 603 194 633 q 191 542 192 574 q 190 479 190 511 q 193 347 190 408 q 204 235 196 285 q 228 151 213 186 q 270 97 244 115 q 333 78 296 78 m 322 -183 q 220 -166 264 -183 q 176 -108 176 -149 q 197 -60 176 -83 q 247 -19 218 -36 q 300 4 275 -1 l 369 -3 q 328 -15 357 -3 q 274 -47 299 -26 q 250 -90 250 -67 q 274 -115 250 -108 q 328 -122 297 -122 q 372 -120 347 -122 q 410 -117 396 -118 l 410 -175 q 367 -181 389 -179 q 322 -183 346 -183 z "},"Ø":{"ha":679,"x_min":88,"x_max":611,"o":"m 329 -7 q 219 18 263 -7 q 149 90 175 43 q 108 200 122 136 q 95 288 100 242 q 89 388 90 335 q 88 496 88 440 q 89 565 88 531 q 93 634 90 600 q 101 701 96 668 q 113 764 106 733 q 192 918 136 857 q 354 979 249 979 q 465 951 422 979 q 534 873 508 922 q 572 760 560 824 q 588 631 585 700 q 592 493 592 563 q 588 374 592 432 q 577 265 585 317 q 556 169 569 214 q 476 41 529 89 q 329 -7 424 -7 m 333 78 q 400 99 374 78 q 444 158 426 119 q 471 247 461 196 q 484 364 481 300 q 488 500 488 428 q 485 615 488 561 q 478 714 483 669 q 437 849 467 800 q 346 899 407 899 q 252 848 285 899 q 206 715 219 797 q 198 662 201 690 q 193 603 194 633 q 191 542 192 574 q 190 479 190 511 q 193 347 190 408 q 204 235 196 285 q 228 151 213 186 q 270 97 244 115 q 333 78 296 78 m 199 -72 l 113 -53 q 147 28 128 -18 q 188 127 165 74 q 232 238 210 181 q 276 353 254 294 q 318 465 299 411 q 360 581 338 519 q 405 704 382 642 q 449 827 428 767 q 489 940 469 888 q 522 1035 508 993 l 611 1011 q 571 918 593 968 q 526 815 549 868 q 482 708 504 761 q 439 605 460 654 q 401 513 418 556 q 374 440 385 471 q 343 353 360 403 q 307 249 326 304 q 268 136 288 193 q 231 26 249 79 q 199 -72 214 -28 z "},"Ǿ":{"ha":679,"x_min":88,"x_max":611,"o":"m 329 -7 q 219 18 263 -7 q 149 90 175 43 q 108 200 122 136 q 95 288 100 242 q 89 388 90 335 q 88 496 88 440 q 89 565 88 531 q 93 634 90 600 q 101 701 96 668 q 113 764 106 733 q 192 918 136 857 q 354 979 249 979 q 465 951 422 979 q 534 873 508 922 q 572 760 560 824 q 588 631 585 700 q 592 493 592 563 q 588 374 592 432 q 577 265 585 317 q 556 169 569 214 q 476 41 529 89 q 329 -7 424 -7 m 333 78 q 400 99 374 78 q 444 158 426 119 q 471 247 461 196 q 484 364 481 300 q 488 500 488 428 q 485 615 488 561 q 478 714 483 669 q 437 849 467 800 q 346 899 407 899 q 252 848 285 899 q 206 715 219 797 q 198 662 201 690 q 193 603 194 633 q 191 542 192 574 q 190 479 190 511 q 193 347 190 408 q 204 235 196 285 q 228 151 213 186 q 270 97 244 115 q 333 78 296 78 m 199 -72 l 113 -53 q 147 28 128 -18 q 188 127 165 74 q 232 238 210 181 q 276 353 254 294 q 318 465 299 411 q 360 581 338 519 q 405 704 382 642 q 449 827 428 767 q 489 940 469 888 q 522 1035 508 993 l 611 1011 q 571 918 593 968 q 526 815 549 868 q 482 708 504 761 q 439 605 460 654 q 401 513 418 556 q 374 440 385 471 q 343 353 360 403 q 307 249 326 304 q 268 136 288 193 q 231 26 249 79 q 199 -72 214 -28 m 271 1024 l 240 1076 q 290 1103 264 1089 q 342 1135 315 1118 q 378 1158 360 1146 q 414 1181 396 1169 q 447 1204 432 1193 l 497 1125 q 458 1108 478 1117 q 417 1090 438 1099 q 378 1072 397 1081 q 340 1056 358 1064 q 303 1039 321 1047 q 271 1024 286 1031 z "},"Õ":{"ha":679,"x_min":88,"x_max":592,"o":"m 329 -7 q 219 18 263 -7 q 149 90 175 43 q 108 200 122 136 q 95 288 100 242 q 89 388 90 335 q 88 496 88 440 q 89 565 88 531 q 93 634 90 600 q 101 701 96 668 q 113 764 106 733 q 192 918 136 857 q 354 979 249 979 q 465 951 422 979 q 534 873 508 922 q 572 760 560 824 q 588 631 585 700 q 592 493 592 563 q 588 374 592 432 q 577 265 585 317 q 556 169 569 214 q 476 41 529 89 q 329 -7 424 -7 m 333 78 q 400 99 374 78 q 444 158 426 119 q 471 247 461 196 q 484 364 481 300 q 488 500 488 428 q 485 615 488 561 q 478 714 483 669 q 437 849 467 800 q 346 899 407 899 q 252 848 285 899 q 206 715 219 797 q 198 662 201 690 q 193 603 194 633 q 191 542 192 574 q 190 479 190 511 q 193 347 190 408 q 204 235 196 285 q 228 151 213 186 q 270 97 244 115 q 333 78 296 78 m 221 1053 l 158 1053 q 176 1110 161 1089 q 215 1141 192 1132 q 267 1150 239 1150 q 347 1135 307 1150 q 422 1121 388 1121 q 455 1127 443 1121 q 469 1150 467 1133 l 532 1150 q 514 1092 529 1114 q 476 1062 499 1071 q 424 1053 453 1053 q 344 1067 383 1053 q 268 1082 304 1082 q 238 1076 247 1082 q 221 1053 228 1069 z "},"Ȭ":{"ha":679,"x_min":88,"x_max":592,"o":"m 329 -7 q 219 18 263 -7 q 149 90 175 43 q 108 200 122 136 q 95 288 100 242 q 89 388 90 335 q 88 496 88 440 q 89 565 88 531 q 93 634 90 600 q 101 701 96 668 q 113 764 106 733 q 192 918 136 857 q 354 979 249 979 q 465 951 422 979 q 534 873 508 922 q 572 760 560 824 q 588 631 585 700 q 592 493 592 563 q 588 374 592 432 q 577 265 585 317 q 556 169 569 214 q 476 41 529 89 q 329 -7 424 -7 m 333 78 q 400 99 374 78 q 444 158 426 119 q 471 247 461 196 q 484 364 481 300 q 488 500 488 428 q 485 615 488 561 q 478 714 483 669 q 437 849 467 800 q 346 899 407 899 q 252 848 285 899 q 206 715 219 797 q 198 662 201 690 q 193 603 194 633 q 191 542 192 574 q 190 479 190 511 q 193 347 190 408 q 204 235 196 285 q 228 151 213 186 q 270 97 244 115 q 333 78 296 78 m 189 1186 l 189 1260 l 496 1256 l 504 1190 l 189 1186 m 221 1053 l 158 1053 q 176 1110 161 1089 q 215 1141 192 1132 q 267 1150 239 1150 q 347 1135 307 1150 q 422 1121 388 1121 q 455 1127 443 1121 q 469 1150 467 1133 l 532 1150 q 514 1092 529 1114 q 476 1062 499 1071 q 424 1053 453 1053 q 344 1067 383 1053 q 268 1082 304 1082 q 238 1076 247 1082 q 221 1053 228 1069 z "},"Œ":{"ha":950,"x_min":88,"x_max":883,"o":"m 329 -7 q 220 17 264 -7 q 150 86 176 42 q 110 192 124 131 q 92 331 97 254 q 88 496 88 408 q 99 686 88 599 q 139 840 110 774 q 220 942 168 906 q 354 979 272 979 q 417 975 386 979 q 483 967 447 971 q 561 963 518 963 l 867 963 l 867 869 l 575 868 q 574 808 575 851 q 573 711 574 764 q 572 613 572 658 q 572 546 572 567 l 574 376 l 879 372 l 876 288 l 574 283 l 576 90 l 883 85 l 883 0 l 532 0 q 478 -1 507 0 q 415 -5 450 -3 q 329 -7 379 -7 m 364 76 q 416 81 389 76 q 471 92 443 86 q 472 222 472 146 q 473 381 472 297 q 474 543 474 465 q 473 676 474 614 q 472 791 472 739 q 471 881 472 843 q 412 894 440 889 q 358 899 383 899 q 267 864 300 899 q 217 769 233 829 q 195 635 200 710 q 190 479 190 560 q 194 321 190 394 q 215 192 199 247 q 266 107 231 138 q 364 76 301 76 z "},"P":{"ha":607,"x_min":107,"x_max":558,"o":"m 182 293 l 176 383 q 299 392 246 383 q 388 427 351 401 q 442 502 424 453 q 461 631 461 551 q 444 797 461 738 q 385 881 428 857 q 264 906 342 906 q 226 905 246 906 q 185 902 207 904 q 139 897 164 900 l 108 986 q 156 989 133 988 q 199 991 178 990 q 240 992 221 992 q 424 963 354 992 q 526 858 493 935 q 558 635 558 781 q 513 431 558 506 q 382 324 467 356 q 182 293 297 293 m 107 -8 q 110 135 108 50 q 112 315 111 219 q 113 496 113 410 q 112 676 113 583 q 110 850 111 768 q 108 986 110 932 l 219 976 q 217 890 218 938 q 215 790 217 842 q 213 688 214 739 q 212 588 213 636 q 211 499 211 539 q 211 416 211 464 q 212 313 211 368 q 213 202 213 258 q 215 94 214 146 q 217 -3 215 42 l 107 -8 z "},"Þ":{"ha":607,"x_min":107,"x_max":558,"o":"m 182 196 l 176 286 q 299 294 246 286 q 388 325 351 303 q 442 388 424 347 q 461 492 461 428 q 440 638 461 588 q 375 707 418 689 q 264 725 332 725 q 218 724 242 725 q 167 719 194 722 l 167 808 q 204 810 186 810 q 240 811 222 811 q 377 799 318 811 q 476 755 436 788 q 538 660 517 722 q 558 496 558 597 q 532 357 558 414 q 456 265 506 300 q 338 213 407 229 q 182 196 268 196 m 107 -8 q 110 135 108 50 q 112 315 111 219 q 113 496 113 410 q 112 676 113 583 q 110 850 111 768 q 108 986 110 932 l 219 976 q 217 890 218 938 q 215 790 217 842 q 213 688 214 739 q 212 588 213 636 q 211 499 211 539 q 212 392 211 454 q 213 258 213 329 q 215 119 214 188 q 217 -3 215 51 l 107 -8 z "},"Q":{"ha":679,"x_min":88,"x_max":633,"o":"m 329 -7 q 219 18 263 -7 q 149 90 175 43 q 108 200 122 136 q 95 288 100 242 q 89 388 90 335 q 88 496 88 440 q 89 565 88 531 q 93 634 90 600 q 101 701 96 668 q 113 764 106 733 q 192 918 136 857 q 354 979 249 979 q 465 951 422 979 q 534 873 508 922 q 572 760 560 824 q 588 631 585 700 q 592 493 592 563 q 588 374 592 432 q 577 265 585 317 q 556 169 569 214 q 476 41 529 89 q 329 -7 424 -7 m 333 78 q 400 99 374 78 q 444 158 426 119 q 471 247 461 196 q 481 322 478 282 q 486 408 485 363 q 488 500 488 453 q 485 615 488 561 q 478 714 483 669 q 437 849 467 800 q 346 899 407 899 q 252 848 285 899 q 206 715 219 797 q 198 662 201 690 q 193 603 194 633 q 191 542 192 574 q 190 479 190 511 q 192 389 190 432 q 196 307 193 346 q 204 235 199 268 q 247 120 217 163 q 333 78 276 78 m 560 -96 l 303 144 l 349 194 l 633 -32 l 560 -96 z "},"R":{"ha":643,"x_min":107,"x_max":610,"o":"m 182 307 l 176 397 q 299 406 246 397 q 388 440 351 415 q 442 513 424 465 q 461 638 461 561 q 444 801 461 743 q 383 882 426 858 q 264 906 340 906 q 206 903 238 906 q 139 897 175 901 l 108 986 q 156 989 133 988 q 199 991 178 990 q 240 992 221 992 q 423 965 353 992 q 526 862 493 938 q 558 642 558 786 q 513 442 558 515 q 382 338 467 369 q 182 307 297 307 m 107 -8 q 110 135 108 50 q 112 315 111 219 q 113 496 113 410 q 112 676 113 583 q 110 850 111 768 q 108 986 110 932 l 219 976 q 217 890 218 938 q 215 790 217 842 q 213 688 214 739 q 212 588 213 636 q 211 499 211 539 q 212 394 211 457 q 213 262 213 332 q 215 123 214 192 q 217 -3 215 54 l 107 -8 m 481 -8 q 397 181 442 86 q 299 376 353 275 l 397 418 q 494 212 440 317 q 610 -4 547 107 l 481 -8 z "},"Ŕ":{"ha":643,"x_min":107,"x_max":610,"o":"m 182 307 l 176 397 q 299 406 246 397 q 388 440 351 415 q 442 513 424 465 q 461 638 461 561 q 444 801 461 743 q 383 882 426 858 q 264 906 340 906 q 206 903 238 906 q 139 897 175 901 l 108 986 q 156 989 133 988 q 199 991 178 990 q 240 992 221 992 q 423 965 353 992 q 526 862 493 938 q 558 642 558 786 q 513 442 558 515 q 382 338 467 369 q 182 307 297 307 m 107 -8 q 110 135 108 50 q 112 315 111 219 q 113 496 113 410 q 112 676 113 583 q 110 850 111 768 q 108 986 110 932 l 219 976 q 217 890 218 938 q 215 790 217 842 q 213 688 214 739 q 212 588 213 636 q 211 499 211 539 q 212 394 211 457 q 213 262 213 332 q 215 123 214 192 q 217 -3 215 54 l 107 -8 m 481 -8 q 397 181 442 86 q 299 376 353 275 l 397 418 q 494 212 440 317 q 610 -4 547 107 l 481 -8 m 244 1024 l 214 1076 q 263 1103 238 1089 q 315 1135 289 1118 q 351 1158 333 1146 q 388 1181 369 1169 q 421 1204 406 1193 l 471 1125 q 431 1108 451 1117 q 391 1090 411 1099 q 351 1072 371 1081 q 313 1056 332 1064 q 277 1039 294 1047 q 244 1024 260 1031 z "},"Ř":{"ha":643,"x_min":107,"x_max":610,"o":"m 182 307 l 176 397 q 299 406 246 397 q 388 440 351 415 q 442 513 424 465 q 461 638 461 561 q 444 801 461 743 q 383 882 426 858 q 264 906 340 906 q 206 903 238 906 q 139 897 175 901 l 108 986 q 156 989 133 988 q 199 991 178 990 q 240 992 221 992 q 423 965 353 992 q 526 862 493 938 q 558 642 558 786 q 513 442 558 515 q 382 338 467 369 q 182 307 297 307 m 107 -8 q 110 135 108 50 q 112 315 111 219 q 113 496 113 410 q 112 676 113 583 q 110 850 111 768 q 108 986 110 932 l 219 976 q 217 890 218 938 q 215 790 217 842 q 213 688 214 739 q 212 588 213 636 q 211 499 211 539 q 212 394 211 457 q 213 262 213 332 q 215 123 214 192 q 217 -3 215 54 l 107 -8 m 481 -8 q 397 181 442 86 q 299 376 353 275 l 397 418 q 494 212 440 317 q 610 -4 547 107 l 481 -8 m 364 1039 l 267 1042 l 158 1135 l 193 1176 l 315 1106 l 433 1174 l 469 1138 l 364 1039 z "},"Ŗ":{"ha":643,"x_min":107,"x_max":610,"o":"m 182 307 l 176 397 q 299 406 246 397 q 388 440 351 415 q 442 513 424 465 q 461 638 461 561 q 444 801 461 743 q 383 882 426 858 q 264 906 340 906 q 206 903 238 906 q 139 897 175 901 l 108 986 q 156 989 133 988 q 199 991 178 990 q 240 992 221 992 q 423 965 353 992 q 526 862 493 938 q 558 642 558 786 q 513 442 558 515 q 382 338 467 369 q 182 307 297 307 m 107 -8 q 110 135 108 50 q 112 315 111 219 q 113 496 113 410 q 112 676 113 583 q 110 850 111 768 q 108 986 110 932 l 219 976 q 217 890 218 938 q 215 790 217 842 q 213 688 214 739 q 212 588 213 636 q 211 499 211 539 q 212 394 211 457 q 213 262 213 332 q 215 123 214 192 q 217 -3 215 54 l 107 -8 m 481 -8 q 397 181 442 86 q 299 376 353 275 l 397 418 q 494 212 440 317 q 610 -4 547 107 l 481 -8 m 336 -400 l 294 -372 q 328 -303 315 -342 q 340 -233 340 -265 l 290 -232 l 283 -111 l 401 -103 q 400 -162 400 -133 q 399 -222 400 -192 q 391 -280 399 -246 q 369 -347 383 -314 q 336 -400 356 -379 z "},"Ȑ":{"ha":643,"x_min":88,"x_max":610,"o":"m 182 307 l 176 397 q 299 406 246 397 q 388 440 351 415 q 442 513 424 465 q 461 638 461 561 q 444 801 461 743 q 383 882 426 858 q 264 906 340 906 q 206 903 238 906 q 139 897 175 901 l 108 986 q 156 989 133 988 q 199 991 178 990 q 240 992 221 992 q 423 965 353 992 q 526 862 493 938 q 558 642 558 786 q 513 442 558 515 q 382 338 467 369 q 182 307 297 307 m 107 -8 q 110 135 108 50 q 112 315 111 219 q 113 496 113 410 q 112 676 113 583 q 110 850 111 768 q 108 986 110 932 l 219 976 q 217 890 218 938 q 215 790 217 842 q 213 688 214 739 q 212 588 213 636 q 211 499 211 539 q 212 394 211 457 q 213 262 213 332 q 215 123 214 192 q 217 -3 215 54 l 107 -8 m 481 -8 q 397 181 442 86 q 299 376 353 275 l 397 418 q 494 212 440 317 q 610 -4 547 107 l 481 -8 m 415 1039 q 405 1049 415 1039 q 380 1072 394 1058 q 351 1094 365 1085 q 322 1116 338 1104 q 294 1136 306 1128 q 282 1144 282 1144 l 344 1204 q 353 1193 344 1204 q 376 1167 363 1182 q 404 1138 390 1151 q 431 1111 419 1124 q 451 1092 443 1099 q 458 1085 458 1085 l 415 1039 m 221 1025 q 210 1035 221 1025 q 185 1058 200 1044 q 157 1081 171 1071 q 127 1102 143 1090 q 99 1122 111 1114 q 88 1131 88 1131 l 150 1190 q 159 1179 150 1190 q 182 1153 168 1168 q 210 1124 196 1138 q 237 1097 225 1110 q 256 1078 249 1085 q 264 1071 264 1071 l 221 1025 z "},"Ȓ":{"ha":643,"x_min":107,"x_max":610,"o":"m 182 307 l 176 397 q 299 406 246 397 q 388 440 351 415 q 442 513 424 465 q 461 638 461 561 q 444 801 461 743 q 383 882 426 858 q 264 906 340 906 q 206 903 238 906 q 139 897 175 901 l 108 986 q 156 989 133 988 q 199 991 178 990 q 240 992 221 992 q 423 965 353 992 q 526 862 493 938 q 558 642 558 786 q 513 442 558 515 q 382 338 467 369 q 182 307 297 307 m 107 -8 q 110 135 108 50 q 112 315 111 219 q 113 496 113 410 q 112 676 113 583 q 110 850 111 768 q 108 986 110 932 l 219 976 q 217 890 218 938 q 215 790 217 842 q 213 688 214 739 q 212 588 213 636 q 211 499 211 539 q 212 394 211 457 q 213 262 213 332 q 215 123 214 192 q 217 -3 215 54 l 107 -8 m 481 -8 q 397 181 442 86 q 299 376 353 275 l 397 418 q 494 212 440 317 q 610 -4 547 107 l 481 -8 m 144 1038 l 114 1082 q 203 1138 150 1119 q 313 1157 257 1157 q 421 1140 368 1157 q 513 1088 474 1122 l 482 1039 q 403 1076 447 1064 q 314 1088 358 1088 q 222 1075 267 1088 q 144 1038 178 1063 z "},"S":{"ha":628,"x_min":76,"x_max":560,"o":"m 313 -14 q 202 5 247 -14 q 130 56 157 24 q 90 129 103 88 q 78 217 78 171 q 80 258 78 238 q 86 301 82 279 l 181 301 q 176 257 178 279 q 174 215 174 235 q 184 142 174 175 q 224 90 194 110 q 307 71 253 71 q 394 89 363 71 q 441 136 426 107 q 456 200 456 165 q 440 263 456 236 q 397 311 424 289 q 338 354 371 333 q 269 397 304 375 q 199 449 233 421 q 138 513 165 476 q 93 599 110 550 q 76 713 76 649 q 106 850 76 790 q 192 944 136 910 q 324 978 247 978 q 472 938 421 978 q 541 836 522 899 q 560 704 560 774 q 558 649 560 676 q 553 597 556 622 q 547 547 550 571 l 446 547 q 456 624 451 583 q 460 704 460 664 q 449 797 460 754 q 408 865 438 839 q 321 890 378 890 q 253 876 281 890 q 208 835 225 861 q 184 777 192 810 q 176 708 176 744 q 197 606 176 649 q 253 533 218 564 q 328 475 288 501 q 408 425 368 450 q 483 371 449 400 q 537 303 517 342 q 557 210 557 264 q 527 92 557 143 q 443 14 497 42 q 313 -14 389 -14 z "},"Ś":{"ha":628,"x_min":76,"x_max":560,"o":"m 313 -14 q 202 5 247 -14 q 130 56 157 24 q 90 129 103 88 q 78 217 78 171 q 80 258 78 238 q 86 301 82 279 l 181 301 q 176 257 178 279 q 174 215 174 235 q 184 142 174 175 q 224 90 194 110 q 307 71 253 71 q 394 89 363 71 q 441 136 426 107 q 456 200 456 165 q 440 263 456 236 q 397 311 424 289 q 338 354 371 333 q 269 397 304 375 q 199 449 233 421 q 138 513 165 476 q 93 599 110 550 q 76 713 76 649 q 106 850 76 790 q 192 944 136 910 q 324 978 247 978 q 472 938 421 978 q 541 836 522 899 q 560 704 560 774 q 558 649 560 676 q 553 597 556 622 q 547 547 550 571 l 446 547 q 456 624 451 583 q 460 704 460 664 q 449 797 460 754 q 408 865 438 839 q 321 890 378 890 q 253 876 281 890 q 208 835 225 861 q 184 777 192 810 q 176 708 176 744 q 197 606 176 649 q 253 533 218 564 q 328 475 288 501 q 408 425 368 450 q 483 371 449 400 q 537 303 517 342 q 557 210 557 264 q 527 92 557 143 q 443 14 497 42 q 313 -14 389 -14 m 260 1024 l 229 1076 q 278 1103 253 1089 q 331 1135 304 1118 q 367 1158 349 1146 q 403 1181 385 1169 q 436 1204 421 1193 l 486 1125 q 447 1108 467 1117 q 406 1090 426 1099 q 367 1072 386 1081 q 328 1056 347 1064 q 292 1039 310 1047 q 260 1024 275 1031 z "},"Š":{"ha":628,"x_min":76,"x_max":560,"o":"m 313 -14 q 202 5 247 -14 q 130 56 157 24 q 90 129 103 88 q 78 217 78 171 q 80 258 78 238 q 86 301 82 279 l 181 301 q 176 257 178 279 q 174 215 174 235 q 184 142 174 175 q 224 90 194 110 q 307 71 253 71 q 394 89 363 71 q 441 136 426 107 q 456 200 456 165 q 440 263 456 236 q 397 311 424 289 q 338 354 371 333 q 269 397 304 375 q 199 449 233 421 q 138 513 165 476 q 93 599 110 550 q 76 713 76 649 q 106 850 76 790 q 192 944 136 910 q 324 978 247 978 q 472 938 421 978 q 541 836 522 899 q 560 704 560 774 q 558 649 560 676 q 553 597 556 622 q 547 547 550 571 l 446 547 q 456 624 451 583 q 460 704 460 664 q 449 797 460 754 q 408 865 438 839 q 321 890 378 890 q 253 876 281 890 q 208 835 225 861 q 184 777 192 810 q 176 708 176 744 q 197 606 176 649 q 253 533 218 564 q 328 475 288 501 q 408 425 368 450 q 483 371 449 400 q 537 303 517 342 q 557 210 557 264 q 527 92 557 143 q 443 14 497 42 q 313 -14 389 -14 m 379 1039 l 282 1042 l 174 1135 l 208 1176 l 331 1106 l 449 1174 l 485 1138 l 379 1039 z "},"Ş":{"ha":628,"x_min":76,"x_max":560,"o":"m 313 -14 q 202 5 247 -14 q 130 56 157 24 q 90 129 103 88 q 78 217 78 171 q 80 258 78 238 q 86 301 82 279 l 181 301 q 176 257 178 279 q 174 215 174 235 q 184 142 174 175 q 224 90 194 110 q 307 71 253 71 q 394 89 363 71 q 441 136 426 107 q 456 200 456 165 q 440 263 456 236 q 397 311 424 289 q 338 354 371 333 q 269 397 304 375 q 199 449 233 421 q 138 513 165 476 q 93 599 110 550 q 76 713 76 649 q 106 850 76 790 q 192 944 136 910 q 324 978 247 978 q 472 938 421 978 q 541 836 522 899 q 560 704 560 774 q 558 649 560 676 q 553 597 556 622 q 547 547 550 571 l 446 547 q 456 624 451 583 q 460 704 460 664 q 449 797 460 754 q 408 865 438 839 q 321 890 378 890 q 253 876 281 890 q 208 835 225 861 q 184 777 192 810 q 176 708 176 744 q 197 606 176 649 q 253 533 218 564 q 328 475 288 501 q 408 425 368 450 q 483 371 449 400 q 537 303 517 342 q 557 210 557 264 q 527 92 557 143 q 443 14 497 42 q 313 -14 389 -14 m 239 -225 q 200 -224 221 -225 q 160 -222 179 -224 l 174 -160 q 199 -163 185 -161 q 230 -166 214 -165 q 263 -167 246 -167 q 333 -160 301 -167 q 364 -137 364 -154 q 335 -114 364 -122 q 233 -106 307 -106 l 253 -54 q 406 -76 361 -51 q 451 -136 451 -100 q 421 -189 451 -169 q 342 -217 390 -208 q 239 -225 294 -225 m 329 0 l 299 -106 l 233 -106 l 264 0 l 329 0 z "},"Ŝ":{"ha":628,"x_min":76,"x_max":560,"o":"m 313 -14 q 202 5 247 -14 q 130 56 157 24 q 90 129 103 88 q 78 217 78 171 q 80 258 78 238 q 86 301 82 279 l 181 301 q 176 257 178 279 q 174 215 174 235 q 184 142 174 175 q 224 90 194 110 q 307 71 253 71 q 394 89 363 71 q 441 136 426 107 q 456 200 456 165 q 440 263 456 236 q 397 311 424 289 q 338 354 371 333 q 269 397 304 375 q 199 449 233 421 q 138 513 165 476 q 93 599 110 550 q 76 713 76 649 q 106 850 76 790 q 192 944 136 910 q 324 978 247 978 q 472 938 421 978 q 541 836 522 899 q 560 704 560 774 q 558 649 560 676 q 553 597 556 622 q 547 547 550 571 l 446 547 q 456 624 451 583 q 460 704 460 664 q 449 797 460 754 q 408 865 438 839 q 321 890 378 890 q 253 876 281 890 q 208 835 225 861 q 184 777 192 810 q 176 708 176 744 q 197 606 176 649 q 253 533 218 564 q 328 475 288 501 q 408 425 368 450 q 483 371 449 400 q 537 303 517 342 q 557 210 557 264 q 527 92 557 143 q 443 14 497 42 q 313 -14 389 -14 m 450 1028 l 328 1099 l 210 1031 l 174 1067 l 279 1165 l 376 1163 l 485 1069 l 450 1028 z "},"Ș":{"ha":628,"x_min":76,"x_max":560,"o":"m 313 -14 q 202 5 247 -14 q 130 56 157 24 q 90 129 103 88 q 78 217 78 171 q 80 258 78 238 q 86 301 82 279 l 181 301 q 176 257 178 279 q 174 215 174 235 q 184 142 174 175 q 224 90 194 110 q 307 71 253 71 q 394 89 363 71 q 441 136 426 107 q 456 200 456 165 q 440 263 456 236 q 397 311 424 289 q 338 354 371 333 q 269 397 304 375 q 199 449 233 421 q 138 513 165 476 q 93 599 110 550 q 76 713 76 649 q 106 850 76 790 q 192 944 136 910 q 324 978 247 978 q 472 938 421 978 q 541 836 522 899 q 560 704 560 774 q 558 649 560 676 q 553 597 556 622 q 547 547 550 571 l 446 547 q 456 624 451 583 q 460 704 460 664 q 449 797 460 754 q 408 865 438 839 q 321 890 378 890 q 253 876 281 890 q 208 835 225 861 q 184 777 192 810 q 176 708 176 744 q 197 606 176 649 q 253 533 218 564 q 328 475 288 501 q 408 425 368 450 q 483 371 449 400 q 537 303 517 342 q 557 210 557 264 q 527 92 557 143 q 443 14 497 42 q 313 -14 389 -14 m 311 -400 l 269 -372 q 303 -303 290 -342 q 315 -233 315 -265 l 265 -232 l 258 -111 l 376 -103 q 375 -162 375 -133 q 374 -222 375 -192 q 366 -280 374 -246 q 344 -347 358 -314 q 311 -400 331 -379 z "},"Ṣ":{"ha":628,"x_min":76,"x_max":560,"o":"m 313 -14 q 202 5 247 -14 q 130 56 157 24 q 90 129 103 88 q 78 217 78 171 q 80 258 78 238 q 86 301 82 279 l 181 301 q 176 257 178 279 q 174 215 174 235 q 184 142 174 175 q 224 90 194 110 q 307 71 253 71 q 394 89 363 71 q 441 136 426 107 q 456 200 456 165 q 440 263 456 236 q 397 311 424 289 q 338 354 371 333 q 269 397 304 375 q 199 449 233 421 q 138 513 165 476 q 93 599 110 550 q 76 713 76 649 q 106 850 76 790 q 192 944 136 910 q 324 978 247 978 q 472 938 421 978 q 541 836 522 899 q 560 704 560 774 q 558 649 560 676 q 553 597 556 622 q 547 547 550 571 l 446 547 q 456 624 451 583 q 460 704 460 664 q 449 797 460 754 q 408 865 438 839 q 321 890 378 890 q 253 876 281 890 q 208 835 225 861 q 184 777 192 810 q 176 708 176 744 q 197 606 176 649 q 253 533 218 564 q 328 475 288 501 q 408 425 368 450 q 483 371 449 400 q 537 303 517 342 q 557 210 557 264 q 527 92 557 143 q 443 14 497 42 q 313 -14 389 -14 m 264 -225 l 260 -106 l 367 -114 l 363 -224 l 264 -225 z "},"ẞ":{"ha":746,"x_min":107,"x_max":692,"o":"m 417 975 q 571 947 510 972 q 662 869 632 922 q 692 729 692 817 q 660 558 692 635 q 551 442 629 482 q 621 404 589 433 q 672 325 653 375 q 692 204 692 275 q 668 85 692 133 q 599 11 644 36 q 485 -14 553 -14 q 367 14 410 -14 q 305 83 324 42 q 286 168 286 125 q 287 200 286 186 q 289 222 288 214 l 388 226 q 382 197 383 214 q 381 169 381 181 q 408 96 381 119 q 488 72 435 72 q 550 90 526 72 q 584 135 574 107 q 594 193 594 163 q 574 324 594 282 q 522 379 553 367 q 464 392 492 392 q 435 392 456 392 q 396 391 415 392 q 367 389 376 390 l 365 482 q 392 481 375 482 q 428 480 410 481 q 458 479 447 479 q 520 504 489 479 q 572 581 551 529 q 593 713 593 633 q 575 814 593 775 q 516 872 557 853 q 406 889 475 890 l 168 886 l 108 985 l 417 975 m 215 971 q 213 887 214 938 q 211 778 213 836 q 210 659 210 719 q 210 544 210 599 q 210 447 210 489 q 210 340 210 399 q 212 221 211 281 q 213 111 213 161 q 215 31 214 61 q 215 0 215 0 l 107 -4 q 108 33 107 -4 q 110 133 108 69 q 112 279 111 197 q 113 450 113 361 q 112 633 113 539 q 110 806 111 726 q 109 935 110 886 q 108 985 108 985 l 215 971 z "},"Ə":{"ha":633,"x_min":74,"x_max":546,"o":"m 285 -11 q 156 25 203 -11 q 92 123 110 61 q 74 261 74 185 q 79 365 74 311 q 93 474 85 418 l 189 472 q 182 411 186 443 q 176 346 178 379 q 174 279 174 313 q 184 170 174 217 q 219 98 194 124 q 290 72 244 72 q 384 119 351 72 q 431 242 417 167 q 439 304 436 271 q 443 371 442 338 q 445 436 444 404 q 446 496 446 468 q 445 588 446 543 q 442 672 444 632 q 432 744 439 713 q 391 855 418 818 q 300 892 364 892 q 224 875 251 892 q 187 826 197 858 q 176 746 176 794 q 178 714 176 731 q 181 679 179 697 l 89 674 q 84 711 86 693 q 82 747 82 729 q 106 866 82 814 q 178 947 131 918 q 299 976 226 976 q 415 951 369 976 q 487 878 460 925 q 526 765 514 831 q 539 683 535 726 q 544 590 543 639 q 546 490 546 542 q 545 417 546 454 q 542 345 544 381 q 534 276 539 310 q 521 211 529 243 q 477 97 506 147 q 402 17 449 46 q 285 -11 356 -11 m 101 393 l 93 474 q 115 474 93 474 q 172 474 136 474 q 253 476 208 475 q 343 478 297 476 q 430 481 389 479 q 499 483 471 482 l 500 396 l 101 393 z "},"T":{"ha":564,"x_min":13,"x_max":551,"o":"m 219 3 q 222 70 221 24 q 226 177 224 117 q 229 302 228 238 q 231 426 231 367 q 232 529 232 486 q 231 663 232 590 q 228 801 229 736 q 226 909 228 867 q 225 951 225 951 l 336 950 q 335 928 336 950 q 334 866 335 906 q 333 772 333 826 q 331 653 332 718 q 331 517 331 588 q 331 372 331 446 q 333 232 332 299 q 335 113 335 165 q 337 29 336 60 q 338 -1 338 -1 l 219 3 m 13 875 l 17 974 q 44 974 17 974 q 113 974 72 974 q 193 975 153 975 q 258 975 233 975 q 314 975 279 975 q 389 976 349 975 q 465 977 429 976 q 524 978 501 978 q 547 978 547 978 l 551 886 q 530 886 551 886 q 475 885 508 886 q 403 884 442 885 q 331 883 365 883 q 276 883 297 883 q 223 882 256 883 q 154 880 190 881 q 85 878 118 879 q 33 876 53 876 q 13 875 13 875 z "},"Ŧ":{"ha":564,"x_min":13,"x_max":551,"o":"m 219 3 q 222 70 221 24 q 226 177 224 117 q 229 302 228 238 q 231 426 231 367 q 232 529 232 486 q 231 663 232 590 q 228 801 229 736 q 226 909 228 867 q 225 951 225 951 l 336 950 q 335 928 336 950 q 334 866 335 906 q 333 772 333 826 q 331 653 332 718 q 331 517 331 588 q 331 372 331 446 q 333 232 332 299 q 335 113 335 165 q 337 29 336 60 q 338 -1 338 -1 l 219 3 m 13 875 l 17 974 q 44 974 17 974 q 113 974 72 974 q 193 975 153 975 q 258 975 233 975 q 314 975 279 975 q 389 976 349 975 q 465 977 429 976 q 524 978 501 978 q 547 978 547 978 l 551 886 q 530 886 551 886 q 475 885 508 886 q 403 884 442 885 q 331 883 365 883 q 276 883 297 883 q 223 882 256 883 q 154 880 190 881 q 85 878 118 879 q 33 876 53 876 q 13 875 13 875 m 71 442 l 74 514 q 108 514 86 514 q 156 513 129 514 q 215 512 183 513 q 282 511 247 511 q 333 511 306 511 q 389 512 361 511 q 442 513 417 513 q 488 514 468 514 l 489 442 q 438 442 467 442 q 380 442 410 442 q 322 443 350 443 q 274 443 294 443 q 154 444 210 444 q 71 442 99 443 z "},"Ť":{"ha":564,"x_min":13,"x_max":551,"o":"m 219 3 q 222 70 221 24 q 226 177 224 117 q 229 302 228 238 q 231 426 231 367 q 232 529 232 486 q 231 663 232 590 q 228 801 229 736 q 226 909 228 867 q 225 951 225 951 l 336 950 q 335 928 336 950 q 334 866 335 906 q 333 772 333 826 q 331 653 332 718 q 331 517 331 588 q 331 372 331 446 q 333 232 332 299 q 335 113 335 165 q 337 29 336 60 q 338 -1 338 -1 l 219 3 m 13 875 l 17 974 q 44 974 17 974 q 113 974 72 974 q 193 975 153 975 q 258 975 233 975 q 314 975 279 975 q 389 976 349 975 q 465 977 429 976 q 524 978 501 978 q 547 978 547 978 l 551 886 q 530 886 551 886 q 475 885 508 886 q 403 884 442 885 q 331 883 365 883 q 276 883 297 883 q 223 882 256 883 q 154 880 190 881 q 85 878 118 879 q 33 876 53 876 q 13 875 13 875 m 329 1039 l 232 1042 l 124 1135 l 158 1176 l 281 1106 l 399 1174 l 435 1138 l 329 1039 z "},"Ţ":{"ha":564,"x_min":13,"x_max":551,"o":"m 219 3 q 222 70 221 24 q 226 177 224 117 q 229 302 228 238 q 231 426 231 367 q 232 529 232 486 q 231 663 232 590 q 228 801 229 736 q 226 909 228 867 q 225 951 225 951 l 336 950 q 335 928 336 950 q 334 866 335 906 q 333 772 333 826 q 331 653 332 718 q 331 517 331 588 q 331 372 331 446 q 333 232 332 299 q 335 113 335 165 q 337 29 336 60 q 338 -1 338 -1 l 219 3 m 13 875 l 17 974 q 44 974 17 974 q 113 974 72 974 q 193 975 153 975 q 258 975 233 975 q 314 975 279 975 q 389 976 349 975 q 465 977 429 976 q 524 978 501 978 q 547 978 547 978 l 551 886 q 530 886 551 886 q 475 885 508 886 q 403 884 442 885 q 331 883 365 883 q 276 883 297 883 q 223 882 256 883 q 154 880 190 881 q 85 878 118 879 q 33 876 53 876 q 13 875 13 875 m 211 -224 q 172 -223 193 -224 q 132 -221 151 -222 l 146 -158 q 172 -162 157 -160 q 202 -165 186 -164 q 235 -165 218 -165 q 305 -159 274 -165 q 336 -136 336 -153 q 308 -112 336 -121 q 206 -104 279 -104 l 225 -53 q 378 -74 333 -50 q 424 -135 424 -99 q 393 -187 424 -168 q 315 -215 363 -207 q 211 -224 267 -224 m 301 1 l 271 -104 l 206 -104 l 236 1 l 301 1 z "},"Ț":{"ha":564,"x_min":13,"x_max":551,"o":"m 219 3 q 222 70 221 24 q 226 177 224 117 q 229 302 228 238 q 231 426 231 367 q 232 529 232 486 q 231 663 232 590 q 228 801 229 736 q 226 909 228 867 q 225 951 225 951 l 336 950 q 335 928 336 950 q 334 866 335 906 q 333 772 333 826 q 331 653 332 718 q 331 517 331 588 q 331 372 331 446 q 333 232 332 299 q 335 113 335 165 q 337 29 336 60 q 338 -1 338 -1 l 219 3 m 13 875 l 17 974 q 44 974 17 974 q 113 974 72 974 q 193 975 153 975 q 258 975 233 975 q 314 975 279 975 q 389 976 349 975 q 465 977 429 976 q 524 978 501 978 q 547 978 547 978 l 551 886 q 530 886 551 886 q 475 885 508 886 q 403 884 442 885 q 331 883 365 883 q 276 883 297 883 q 223 882 256 883 q 154 880 190 881 q 85 878 118 879 q 33 876 53 876 q 13 875 13 875 m 283 -399 l 242 -371 q 275 -302 263 -340 q 288 -232 288 -264 l 238 -231 l 231 -110 l 349 -101 q 347 -161 347 -132 q 346 -221 347 -190 q 338 -278 346 -244 q 317 -345 331 -312 q 283 -399 303 -378 z "},"Ṭ":{"ha":564,"x_min":13,"x_max":551,"o":"m 219 3 q 222 70 221 24 q 226 177 224 117 q 229 302 228 238 q 231 426 231 367 q 232 529 232 486 q 231 663 232 590 q 228 801 229 736 q 226 909 228 867 q 225 951 225 951 l 336 950 q 335 928 336 950 q 334 866 335 906 q 333 772 333 826 q 331 653 332 718 q 331 517 331 588 q 331 372 331 446 q 333 232 332 299 q 335 113 335 165 q 337 29 336 60 q 338 -1 338 -1 l 219 3 m 13 875 l 17 974 q 44 974 17 974 q 113 974 72 974 q 193 975 153 975 q 258 975 233 975 q 314 975 279 975 q 389 976 349 975 q 465 977 429 976 q 524 978 501 978 q 547 978 547 978 l 551 886 q 530 886 551 886 q 475 885 508 886 q 403 884 442 885 q 331 883 365 883 q 276 883 297 883 q 223 882 256 883 q 154 880 190 881 q 85 878 118 879 q 33 876 53 876 q 13 875 13 875 m 236 -224 l 232 -104 l 339 -112 l 335 -222 l 236 -224 z "},"U":{"ha":674,"x_min":103,"x_max":571,"o":"m 336 -14 q 226 7 271 -14 q 156 66 182 28 q 117 155 129 104 q 106 265 106 206 q 106 374 106 314 q 107 493 107 433 q 107 600 107 553 q 107 722 107 663 q 106 842 107 782 q 103 967 106 903 l 211 965 q 208 869 210 919 q 206 768 207 818 q 205 673 206 718 q 204 592 204 628 q 203 507 204 551 q 203 420 203 463 q 203 343 203 378 q 203 288 203 308 q 215 172 203 221 q 256 97 226 124 q 339 71 286 71 q 406 89 381 71 q 447 136 432 107 q 467 200 461 165 q 472 269 472 235 q 473 327 472 283 q 474 438 474 371 q 474 589 474 504 q 472 751 474 678 q 468 881 469 824 q 465 982 467 939 l 571 981 q 570 892 571 935 q 569 806 569 850 q 567 708 568 761 q 567 586 567 656 q 568 384 568 468 q 568 268 568 300 q 559 174 568 224 q 525 82 550 125 q 455 13 500 39 q 336 -14 410 -14 z "},"Ú":{"ha":674,"x_min":103,"x_max":571,"o":"m 336 -14 q 226 7 271 -14 q 156 66 182 28 q 117 155 129 104 q 106 265 106 206 q 106 374 106 314 q 107 493 107 433 q 107 600 107 553 q 107 722 107 663 q 106 842 107 782 q 103 967 106 903 l 211 965 q 208 869 210 919 q 206 768 207 818 q 205 673 206 718 q 204 592 204 628 q 203 507 204 551 q 203 420 203 463 q 203 343 203 378 q 203 288 203 308 q 215 172 203 221 q 256 97 226 124 q 339 71 286 71 q 406 89 381 71 q 447 136 432 107 q 467 200 461 165 q 472 269 472 235 q 473 327 472 283 q 474 438 474 371 q 474 589 474 504 q 472 751 474 678 q 468 881 469 824 q 465 982 467 939 l 571 981 q 570 892 571 935 q 569 806 569 850 q 567 708 568 761 q 567 586 567 656 q 568 384 568 468 q 568 268 568 300 q 559 174 568 224 q 525 82 550 125 q 455 13 500 39 q 336 -14 410 -14 m 269 1024 l 239 1076 q 288 1103 263 1089 q 340 1135 314 1118 q 376 1158 358 1146 q 413 1181 394 1169 q 446 1204 431 1193 l 496 1125 q 456 1108 476 1117 q 416 1090 436 1099 q 376 1072 396 1081 q 338 1056 357 1064 q 302 1039 319 1047 q 269 1024 285 1031 z "},"Ŭ":{"ha":674,"x_min":103,"x_max":571,"o":"m 336 -14 q 226 7 271 -14 q 156 66 182 28 q 117 155 129 104 q 106 265 106 206 q 106 374 106 314 q 107 493 107 433 q 107 600 107 553 q 107 722 107 663 q 106 842 107 782 q 103 967 106 903 l 211 965 q 208 869 210 919 q 206 768 207 818 q 205 673 206 718 q 204 592 204 628 q 203 507 204 551 q 203 420 203 463 q 203 343 203 378 q 203 288 203 308 q 215 172 203 221 q 256 97 226 124 q 339 71 286 71 q 406 89 381 71 q 447 136 432 107 q 467 200 461 165 q 472 269 472 235 q 473 327 472 283 q 474 438 474 371 q 474 589 474 504 q 472 751 474 678 q 468 881 469 824 q 465 982 467 939 l 571 981 q 570 892 571 935 q 569 806 569 850 q 567 708 568 761 q 567 586 567 656 q 568 384 568 468 q 568 268 568 300 q 559 174 568 224 q 525 82 550 125 q 455 13 500 39 q 336 -14 410 -14 m 339 1047 q 231 1065 283 1047 q 139 1117 179 1082 l 169 1165 q 249 1128 206 1140 q 338 1117 293 1117 q 429 1129 385 1117 q 507 1167 474 1142 l 538 1122 q 449 1066 501 1085 q 339 1047 396 1047 z "},"Ǔ":{"ha":674,"x_min":103,"x_max":571,"o":"m 336 -14 q 226 7 271 -14 q 156 66 182 28 q 117 155 129 104 q 106 265 106 206 q 106 374 106 314 q 107 493 107 433 q 107 600 107 553 q 107 722 107 663 q 106 842 107 782 q 103 967 106 903 l 211 965 q 208 869 210 919 q 206 768 207 818 q 205 673 206 718 q 204 592 204 628 q 203 507 204 551 q 203 420 203 463 q 203 343 203 378 q 203 288 203 308 q 215 172 203 221 q 256 97 226 124 q 339 71 286 71 q 406 89 381 71 q 447 136 432 107 q 467 200 461 165 q 472 269 472 235 q 473 327 472 283 q 474 438 474 371 q 474 589 474 504 q 472 751 474 678 q 468 881 469 824 q 465 982 467 939 l 571 981 q 570 892 571 935 q 569 806 569 850 q 567 708 568 761 q 567 586 567 656 q 568 384 568 468 q 568 268 568 300 q 559 174 568 224 q 525 82 550 125 q 455 13 500 39 q 336 -14 410 -14 m 389 1039 l 292 1042 l 183 1135 l 218 1176 l 340 1106 l 458 1174 l 494 1138 l 389 1039 z "},"Û":{"ha":674,"x_min":103,"x_max":571,"o":"m 336 -14 q 226 7 271 -14 q 156 66 182 28 q 117 155 129 104 q 106 265 106 206 q 106 374 106 314 q 107 493 107 433 q 107 600 107 553 q 107 722 107 663 q 106 842 107 782 q 103 967 106 903 l 211 965 q 208 869 210 919 q 206 768 207 818 q 205 673 206 718 q 204 592 204 628 q 203 507 204 551 q 203 420 203 463 q 203 343 203 378 q 203 288 203 308 q 215 172 203 221 q 256 97 226 124 q 339 71 286 71 q 406 89 381 71 q 447 136 432 107 q 467 200 461 165 q 472 269 472 235 q 473 327 472 283 q 474 438 474 371 q 474 589 474 504 q 472 751 474 678 q 468 881 469 824 q 465 982 467 939 l 571 981 q 570 892 571 935 q 569 806 569 850 q 567 708 568 761 q 567 586 567 656 q 568 384 568 468 q 568 268 568 300 q 559 174 568 224 q 525 82 550 125 q 455 13 500 39 q 336 -14 410 -14 m 460 1028 l 338 1099 l 219 1031 l 183 1067 l 289 1165 l 386 1163 l 494 1069 l 460 1028 z "},"Ȕ":{"ha":674,"x_min":103,"x_max":571,"o":"m 336 -14 q 226 7 271 -14 q 156 66 182 28 q 117 155 129 104 q 106 265 106 206 q 106 374 106 314 q 107 493 107 433 q 107 600 107 553 q 107 722 107 663 q 106 842 107 782 q 103 967 106 903 l 211 965 q 208 869 210 919 q 206 768 207 818 q 205 673 206 718 q 204 592 204 628 q 203 507 204 551 q 203 420 203 463 q 203 343 203 378 q 203 288 203 308 q 215 172 203 221 q 256 97 226 124 q 339 71 286 71 q 406 89 381 71 q 447 136 432 107 q 467 200 461 165 q 472 269 472 235 q 473 327 472 283 q 474 438 474 371 q 474 589 474 504 q 472 751 474 678 q 468 881 469 824 q 465 982 467 939 l 571 981 q 570 892 571 935 q 569 806 569 850 q 567 708 568 761 q 567 586 567 656 q 568 384 568 468 q 568 268 568 300 q 559 174 568 224 q 525 82 550 125 q 455 13 500 39 q 336 -14 410 -14 m 440 1039 q 430 1049 440 1039 q 405 1072 419 1058 q 376 1094 390 1085 q 347 1116 363 1104 q 319 1136 331 1128 q 307 1144 307 1144 l 369 1204 q 378 1193 369 1204 q 401 1167 388 1182 q 429 1138 415 1151 q 456 1111 444 1124 q 476 1092 468 1099 q 483 1085 483 1085 l 440 1039 m 246 1025 q 235 1035 246 1025 q 210 1058 225 1044 q 182 1081 196 1071 q 152 1102 168 1090 q 124 1122 136 1114 q 113 1131 113 1131 l 175 1190 q 184 1179 175 1190 q 207 1153 193 1168 q 235 1124 221 1138 q 262 1097 250 1110 q 281 1078 274 1085 q 289 1071 289 1071 l 246 1025 z "},"Ü":{"ha":674,"x_min":103,"x_max":571,"o":"m 336 -14 q 226 7 271 -14 q 156 66 182 28 q 117 155 129 104 q 106 265 106 206 q 106 374 106 314 q 107 493 107 433 q 107 600 107 553 q 107 722 107 663 q 106 842 107 782 q 103 967 106 903 l 211 965 q 208 869 210 919 q 206 768 207 818 q 205 673 206 718 q 204 592 204 628 q 203 507 204 551 q 203 420 203 463 q 203 343 203 378 q 203 288 203 308 q 215 172 203 221 q 256 97 226 124 q 339 71 286 71 q 406 89 381 71 q 447 136 432 107 q 467 200 461 165 q 472 269 472 235 q 473 327 472 283 q 474 438 474 371 q 474 589 474 504 q 472 751 474 678 q 468 881 469 824 q 465 982 467 939 l 571 981 q 570 892 571 935 q 569 806 569 850 q 567 708 568 761 q 567 586 567 656 q 568 384 568 468 q 568 268 568 300 q 559 174 568 224 q 525 82 550 125 q 455 13 500 39 q 336 -14 410 -14 m 156 1165 l 244 1156 l 240 1047 l 158 1046 l 156 1165 m 432 1165 l 521 1156 l 517 1047 l 435 1046 l 432 1165 z "},"Ǘ":{"ha":674,"x_min":103,"x_max":571,"o":"m 336 -14 q 226 7 271 -14 q 156 66 182 28 q 117 155 129 104 q 106 265 106 206 q 106 374 106 314 q 107 493 107 433 q 107 600 107 553 q 107 722 107 663 q 106 842 107 782 q 103 967 106 903 l 211 965 q 208 869 210 919 q 206 768 207 818 q 205 673 206 718 q 204 592 204 628 q 203 507 204 551 q 203 420 203 463 q 203 343 203 378 q 203 288 203 308 q 215 172 203 221 q 256 97 226 124 q 339 71 286 71 q 406 89 381 71 q 447 136 432 107 q 467 200 461 165 q 472 269 472 235 q 473 327 472 283 q 474 438 474 371 q 474 589 474 504 q 472 751 474 678 q 468 881 469 824 q 465 982 467 939 l 571 981 q 570 892 571 935 q 569 806 569 850 q 567 708 568 761 q 567 586 567 656 q 568 384 568 468 q 568 268 568 300 q 559 174 568 224 q 525 82 550 125 q 455 13 500 39 q 336 -14 410 -14 m 324 1197 l 289 1246 q 301 1253 289 1246 q 333 1271 313 1260 q 376 1296 353 1282 q 417 1320 399 1308 q 447 1340 435 1332 q 458 1349 458 1349 l 508 1274 q 495 1269 508 1274 q 461 1257 482 1264 q 419 1240 440 1250 q 378 1222 400 1232 q 340 1204 356 1211 q 324 1197 324 1197 m 240 1047 l 158 1046 l 156 1165 l 244 1156 l 240 1047 m 517 1047 l 435 1046 l 432 1165 l 521 1156 l 517 1047 z "},"Ǚ":{"ha":674,"x_min":103,"x_max":571,"o":"m 336 -14 q 226 7 271 -14 q 156 66 182 28 q 117 155 129 104 q 106 265 106 206 q 106 374 106 314 q 107 493 107 433 q 107 600 107 553 q 107 722 107 663 q 106 842 107 782 q 103 967 106 903 l 211 965 q 208 869 210 919 q 206 768 207 818 q 205 673 206 718 q 204 592 204 628 q 203 507 204 551 q 203 420 203 463 q 203 343 203 378 q 203 288 203 308 q 215 172 203 221 q 256 97 226 124 q 339 71 286 71 q 406 89 381 71 q 447 136 432 107 q 467 200 461 165 q 472 269 472 235 q 473 327 472 283 q 474 438 474 371 q 474 589 474 504 q 472 751 474 678 q 468 881 469 824 q 465 982 467 939 l 571 981 q 570 892 571 935 q 569 806 569 850 q 567 708 568 761 q 567 586 567 656 q 568 384 568 468 q 568 268 568 300 q 559 174 568 224 q 525 82 550 125 q 455 13 500 39 q 336 -14 410 -14 m 389 1186 l 292 1189 l 183 1282 l 218 1324 l 340 1253 l 458 1321 l 494 1285 l 389 1186 m 240 1047 l 158 1046 l 156 1165 l 244 1156 l 240 1047 m 517 1047 l 435 1046 l 432 1165 l 521 1156 l 517 1047 z "},"Ǜ":{"ha":674,"x_min":103,"x_max":571,"o":"m 336 -14 q 226 7 271 -14 q 156 66 182 28 q 117 155 129 104 q 106 265 106 206 q 106 374 106 314 q 107 493 107 433 q 107 600 107 553 q 107 722 107 663 q 106 842 107 782 q 103 967 106 903 l 211 965 q 208 869 210 919 q 206 768 207 818 q 205 673 206 718 q 204 592 204 628 q 203 507 204 551 q 203 420 203 463 q 203 343 203 378 q 203 288 203 308 q 215 172 203 221 q 256 97 226 124 q 339 71 286 71 q 406 89 381 71 q 447 136 432 107 q 467 200 461 165 q 472 269 472 235 q 473 327 472 283 q 474 438 474 371 q 474 589 474 504 q 472 751 474 678 q 468 881 469 824 q 465 982 467 939 l 571 981 q 570 892 571 935 q 569 806 569 850 q 567 708 568 761 q 567 586 567 656 q 568 384 568 468 q 568 268 568 300 q 559 174 568 224 q 525 82 550 125 q 455 13 500 39 q 336 -14 410 -14 m 358 1200 q 342 1207 358 1200 q 304 1224 326 1214 q 263 1243 282 1235 q 222 1260 242 1253 q 188 1272 201 1267 q 174 1276 174 1276 l 224 1351 q 235 1343 224 1351 q 266 1323 247 1335 q 306 1299 285 1311 q 349 1274 329 1285 q 381 1256 369 1263 q 393 1249 393 1249 l 358 1200 m 160 1046 l 157 1165 l 246 1156 l 242 1047 l 160 1046 m 436 1046 l 433 1165 l 522 1156 l 518 1047 l 436 1046 z "},"Ǖ":{"ha":674,"x_min":103,"x_max":571,"o":"m 336 -14 q 226 7 271 -14 q 156 66 182 28 q 117 155 129 104 q 106 265 106 206 q 106 374 106 314 q 107 493 107 433 q 107 600 107 553 q 107 722 107 663 q 106 842 107 782 q 103 967 106 903 l 211 965 q 208 869 210 919 q 206 768 207 818 q 205 673 206 718 q 204 592 204 628 q 203 507 204 551 q 203 420 203 463 q 203 343 203 378 q 203 288 203 308 q 215 172 203 221 q 256 97 226 124 q 339 71 286 71 q 406 89 381 71 q 447 136 432 107 q 467 200 461 165 q 472 269 472 235 q 473 327 472 283 q 474 438 474 371 q 474 589 474 504 q 472 751 474 678 q 468 881 469 824 q 465 982 467 939 l 571 981 q 570 892 571 935 q 569 806 569 850 q 567 708 568 761 q 567 586 567 656 q 568 384 568 468 q 568 268 568 300 q 559 174 568 224 q 525 82 550 125 q 455 13 500 39 q 336 -14 410 -14 m 172 1228 l 172 1310 l 494 1306 l 501 1232 l 172 1228 m 240 1047 l 158 1046 l 156 1165 l 244 1156 l 240 1047 m 517 1047 l 435 1046 l 432 1165 l 521 1156 l 517 1047 z "},"Ụ":{"ha":674,"x_min":103,"x_max":571,"o":"m 336 -14 q 226 7 271 -14 q 156 66 182 28 q 117 155 129 104 q 106 265 106 206 q 106 374 106 314 q 107 493 107 433 q 107 600 107 553 q 107 722 107 663 q 106 842 107 782 q 103 967 106 903 l 211 965 q 208 869 210 919 q 206 768 207 818 q 205 673 206 718 q 204 592 204 628 q 203 507 204 551 q 203 420 203 463 q 203 343 203 378 q 203 288 203 308 q 215 172 203 221 q 256 97 226 124 q 339 71 286 71 q 406 89 381 71 q 447 136 432 107 q 467 200 461 165 q 472 269 472 235 q 473 327 472 283 q 474 438 474 371 q 474 589 474 504 q 472 751 474 678 q 468 881 469 824 q 465 982 467 939 l 571 981 q 570 892 571 935 q 569 806 569 850 q 567 708 568 761 q 567 586 567 656 q 568 384 568 468 q 568 268 568 300 q 559 174 568 224 q 525 82 550 125 q 455 13 500 39 q 336 -14 410 -14 m 294 -225 l 290 -106 l 397 -114 l 393 -224 l 294 -225 z "},"Ù":{"ha":674,"x_min":103,"x_max":571,"o":"m 336 -14 q 226 7 271 -14 q 156 66 182 28 q 117 155 129 104 q 106 265 106 206 q 106 374 106 314 q 107 493 107 433 q 107 600 107 553 q 107 722 107 663 q 106 842 107 782 q 103 967 106 903 l 211 965 q 208 869 210 919 q 206 768 207 818 q 205 673 206 718 q 204 592 204 628 q 203 507 204 551 q 203 420 203 463 q 203 343 203 378 q 203 288 203 308 q 215 172 203 221 q 256 97 226 124 q 339 71 286 71 q 406 89 381 71 q 447 136 432 107 q 467 200 461 165 q 472 269 472 235 q 473 327 472 283 q 474 438 474 371 q 474 589 474 504 q 472 751 474 678 q 468 881 469 824 q 465 982 467 939 l 571 981 q 570 892 571 935 q 569 806 569 850 q 567 708 568 761 q 567 586 567 656 q 568 384 568 468 q 568 268 568 300 q 559 174 568 224 q 525 82 550 125 q 455 13 500 39 q 336 -14 410 -14 m 413 1018 q 380 1033 397 1025 q 344 1049 363 1040 q 306 1067 325 1058 q 266 1085 286 1076 q 226 1102 246 1093 q 186 1119 206 1111 l 236 1199 q 288 1163 260 1182 q 342 1129 315 1144 q 395 1099 369 1114 q 443 1071 421 1083 l 413 1018 z "},"Ủ":{"ha":674,"x_min":103,"x_max":571,"o":"m 336 -14 q 226 7 271 -14 q 156 66 182 28 q 117 155 129 104 q 106 265 106 206 q 106 374 106 314 q 107 493 107 433 q 107 600 107 553 q 107 722 107 663 q 106 842 107 782 q 103 967 106 903 l 211 965 q 208 869 210 919 q 206 768 207 818 q 205 673 206 718 q 204 592 204 628 q 203 507 204 551 q 203 420 203 463 q 203 343 203 378 q 203 288 203 308 q 215 172 203 221 q 256 97 226 124 q 339 71 286 71 q 406 89 381 71 q 447 136 432 107 q 467 200 461 165 q 472 269 472 235 q 473 327 472 283 q 474 438 474 371 q 474 589 474 504 q 472 751 474 678 q 468 881 469 824 q 465 982 467 939 l 571 981 q 570 892 571 935 q 569 806 569 850 q 567 708 568 761 q 567 586 567 656 q 568 384 568 468 q 568 268 568 300 q 559 174 568 224 q 525 82 550 125 q 455 13 500 39 q 336 -14 410 -14 m 297 1024 l 296 1067 q 360 1072 336 1065 q 385 1094 385 1078 q 364 1115 385 1110 q 310 1121 343 1121 q 273 1119 292 1121 q 236 1114 254 1117 l 236 1164 q 274 1168 256 1167 q 311 1169 293 1169 q 405 1153 365 1169 q 444 1097 444 1138 q 409 1044 444 1067 q 297 1024 374 1021 z "},"Ư":{"ha":674,"x_min":103,"x_max":714,"o":"m 336 -14 q 226 7 271 -14 q 156 66 182 28 q 117 155 129 104 q 106 265 106 206 q 106 374 106 314 q 107 493 107 433 q 107 600 107 553 q 107 722 107 663 q 106 842 107 782 q 103 967 106 903 l 211 965 q 208 869 210 919 q 206 768 207 818 q 205 673 206 718 q 204 592 204 628 q 203 507 204 551 q 203 420 203 463 q 203 343 203 378 q 203 288 203 308 q 215 172 203 221 q 256 97 226 124 q 339 71 286 71 q 406 89 381 71 q 447 136 432 107 q 467 200 461 165 q 472 269 472 235 q 473 327 472 283 q 474 438 474 371 q 474 589 474 504 q 472 751 474 678 q 468 881 469 824 q 465 982 467 939 l 571 981 q 570 892 571 935 q 569 806 569 850 q 567 708 568 761 q 567 586 567 656 q 568 384 568 468 q 568 268 568 300 q 559 174 568 224 q 525 82 550 125 q 455 13 500 39 q 336 -14 410 -14 m 525 811 l 515 850 q 571 874 538 856 q 631 923 604 892 q 657 996 657 954 l 600 997 l 592 1119 l 714 1113 q 713 1062 714 1094 q 710 999 711 1029 q 683 916 707 956 q 618 849 658 876 q 525 811 578 821 z "},"Ứ":{"ha":674,"x_min":103,"x_max":714,"o":"m 336 -14 q 226 7 271 -14 q 156 66 182 28 q 117 155 129 104 q 106 265 106 206 q 106 374 106 314 q 107 493 107 433 q 107 600 107 553 q 107 722 107 663 q 106 842 107 782 q 103 967 106 903 l 211 965 q 208 869 210 919 q 206 768 207 818 q 205 673 206 718 q 204 592 204 628 q 203 507 204 551 q 203 420 203 463 q 203 343 203 378 q 203 288 203 308 q 215 172 203 221 q 256 97 226 124 q 339 71 286 71 q 406 89 381 71 q 447 136 432 107 q 467 200 461 165 q 472 269 472 235 q 473 327 472 283 q 474 438 474 371 q 474 589 474 504 q 472 751 474 678 q 468 881 469 824 q 465 982 467 939 l 571 981 q 570 892 571 935 q 569 806 569 850 q 567 708 568 761 q 567 586 567 656 q 568 384 568 468 q 568 268 568 300 q 559 174 568 224 q 525 82 550 125 q 455 13 500 39 q 336 -14 410 -14 m 525 811 l 515 850 q 571 874 538 856 q 631 923 604 892 q 657 996 657 954 l 600 997 l 592 1119 l 714 1113 q 713 1062 714 1094 q 710 999 711 1029 q 683 916 707 956 q 618 849 658 876 q 525 811 578 821 m 269 1024 l 239 1076 q 288 1103 263 1089 q 340 1135 314 1118 q 376 1158 358 1146 q 413 1181 394 1169 q 446 1204 431 1193 l 496 1125 q 456 1108 476 1117 q 416 1090 436 1099 q 376 1072 396 1081 q 338 1056 357 1064 q 302 1039 319 1047 q 269 1024 285 1031 z "},"Ự":{"ha":674,"x_min":103,"x_max":714,"o":"m 336 -14 q 226 7 271 -14 q 156 66 182 28 q 117 155 129 104 q 106 265 106 206 q 106 374 106 314 q 107 493 107 433 q 107 600 107 553 q 107 722 107 663 q 106 842 107 782 q 103 967 106 903 l 211 965 q 208 869 210 919 q 206 768 207 818 q 205 673 206 718 q 204 592 204 628 q 203 507 204 551 q 203 420 203 463 q 203 343 203 378 q 203 288 203 308 q 215 172 203 221 q 256 97 226 124 q 339 71 286 71 q 406 89 381 71 q 447 136 432 107 q 467 200 461 165 q 472 269 472 235 q 473 327 472 283 q 474 438 474 371 q 474 589 474 504 q 472 751 474 678 q 468 881 469 824 q 465 982 467 939 l 571 981 q 570 892 571 935 q 569 806 569 850 q 567 708 568 761 q 567 586 567 656 q 568 384 568 468 q 568 268 568 300 q 559 174 568 224 q 525 82 550 125 q 455 13 500 39 q 336 -14 410 -14 m 525 811 l 515 850 q 571 874 538 856 q 631 923 604 892 q 657 996 657 954 l 600 997 l 592 1119 l 714 1113 q 713 1062 714 1094 q 710 999 711 1029 q 683 916 707 956 q 618 849 658 876 q 525 811 578 821 m 294 -225 l 290 -106 l 397 -114 l 393 -224 l 294 -225 z "},"Ừ":{"ha":674,"x_min":103,"x_max":714,"o":"m 336 -14 q 226 7 271 -14 q 156 66 182 28 q 117 155 129 104 q 106 265 106 206 q 106 374 106 314 q 107 493 107 433 q 107 600 107 553 q 107 722 107 663 q 106 842 107 782 q 103 967 106 903 l 211 965 q 208 869 210 919 q 206 768 207 818 q 205 673 206 718 q 204 592 204 628 q 203 507 204 551 q 203 420 203 463 q 203 343 203 378 q 203 288 203 308 q 215 172 203 221 q 256 97 226 124 q 339 71 286 71 q 406 89 381 71 q 447 136 432 107 q 467 200 461 165 q 472 269 472 235 q 473 327 472 283 q 474 438 474 371 q 474 589 474 504 q 472 751 474 678 q 468 881 469 824 q 465 982 467 939 l 571 981 q 570 892 571 935 q 569 806 569 850 q 567 708 568 761 q 567 586 567 656 q 568 384 568 468 q 568 268 568 300 q 559 174 568 224 q 525 82 550 125 q 455 13 500 39 q 336 -14 410 -14 m 525 811 l 515 850 q 571 874 538 856 q 631 923 604 892 q 657 996 657 954 l 600 997 l 592 1119 l 714 1113 q 713 1062 714 1094 q 710 999 711 1029 q 683 916 707 956 q 618 849 658 876 q 525 811 578 821 m 413 1018 q 380 1033 397 1025 q 344 1049 363 1040 q 306 1067 325 1058 q 266 1085 286 1076 q 226 1102 246 1093 q 186 1119 206 1111 l 236 1199 q 288 1163 260 1182 q 342 1129 315 1144 q 395 1099 369 1114 q 443 1071 421 1083 l 413 1018 z "},"Ử":{"ha":674,"x_min":103,"x_max":714,"o":"m 336 -14 q 226 7 271 -14 q 156 66 182 28 q 117 155 129 104 q 106 265 106 206 q 106 374 106 314 q 107 493 107 433 q 107 600 107 553 q 107 722 107 663 q 106 842 107 782 q 103 967 106 903 l 211 965 q 208 869 210 919 q 206 768 207 818 q 205 673 206 718 q 204 592 204 628 q 203 507 204 551 q 203 420 203 463 q 203 343 203 378 q 203 288 203 308 q 215 172 203 221 q 256 97 226 124 q 339 71 286 71 q 406 89 381 71 q 447 136 432 107 q 467 200 461 165 q 472 269 472 235 q 473 327 472 283 q 474 438 474 371 q 474 589 474 504 q 472 751 474 678 q 468 881 469 824 q 465 982 467 939 l 571 981 q 570 892 571 935 q 569 806 569 850 q 567 708 568 761 q 567 586 567 656 q 568 384 568 468 q 568 268 568 300 q 559 174 568 224 q 525 82 550 125 q 455 13 500 39 q 336 -14 410 -14 m 525 811 l 515 850 q 571 874 538 856 q 631 923 604 892 q 657 996 657 954 l 600 997 l 592 1119 l 714 1113 q 713 1062 714 1094 q 710 999 711 1029 q 683 916 707 956 q 618 849 658 876 q 525 811 578 821 m 297 1024 l 296 1067 q 360 1072 336 1065 q 385 1094 385 1078 q 364 1115 385 1110 q 310 1121 343 1121 q 273 1119 292 1121 q 236 1114 254 1117 l 236 1164 q 274 1168 256 1167 q 311 1169 293 1169 q 405 1153 365 1169 q 444 1097 444 1138 q 409 1044 444 1067 q 297 1024 374 1021 z "},"Ữ":{"ha":674,"x_min":103,"x_max":714,"o":"m 336 -14 q 226 7 271 -14 q 156 66 182 28 q 117 155 129 104 q 106 265 106 206 q 106 374 106 314 q 107 493 107 433 q 107 600 107 553 q 107 722 107 663 q 106 842 107 782 q 103 967 106 903 l 211 965 q 208 869 210 919 q 206 768 207 818 q 205 673 206 718 q 204 592 204 628 q 203 507 204 551 q 203 420 203 463 q 203 343 203 378 q 203 288 203 308 q 215 172 203 221 q 256 97 226 124 q 339 71 286 71 q 406 89 381 71 q 447 136 432 107 q 467 200 461 165 q 472 269 472 235 q 473 327 472 283 q 474 438 474 371 q 474 589 474 504 q 472 751 474 678 q 468 881 469 824 q 465 982 467 939 l 571 981 q 570 892 571 935 q 569 806 569 850 q 567 708 568 761 q 567 586 567 656 q 568 384 568 468 q 568 268 568 300 q 559 174 568 224 q 525 82 550 125 q 455 13 500 39 q 336 -14 410 -14 m 525 811 l 515 850 q 571 874 538 856 q 631 923 604 892 q 657 996 657 954 l 600 997 l 592 1119 l 714 1113 q 713 1062 714 1094 q 710 999 711 1029 q 683 916 707 956 q 618 849 658 876 q 525 811 578 821 m 214 1053 l 151 1053 q 169 1110 154 1089 q 208 1141 185 1132 q 260 1150 232 1150 q 340 1135 300 1150 q 415 1121 381 1121 q 448 1127 436 1121 q 463 1150 460 1133 l 525 1150 q 507 1092 522 1114 q 469 1062 492 1071 q 417 1053 446 1053 q 337 1067 376 1053 q 261 1082 297 1082 q 231 1076 240 1082 q 214 1053 221 1069 z "},"Ű":{"ha":674,"x_min":103,"x_max":590,"o":"m 336 -14 q 226 7 271 -14 q 156 66 182 28 q 117 155 129 104 q 106 265 106 206 q 106 374 106 314 q 107 493 107 433 q 107 600 107 553 q 107 722 107 663 q 106 842 107 782 q 103 967 106 903 l 211 965 q 208 869 210 919 q 206 768 207 818 q 205 673 206 718 q 204 592 204 628 q 203 507 204 551 q 203 420 203 463 q 203 343 203 378 q 203 288 203 308 q 215 172 203 221 q 256 97 226 124 q 339 71 286 71 q 406 89 381 71 q 447 136 432 107 q 467 200 461 165 q 472 269 472 235 q 473 327 472 283 q 474 438 474 371 q 474 589 474 504 q 472 751 474 678 q 468 881 469 824 q 465 982 467 939 l 571 981 q 570 892 571 935 q 569 806 569 850 q 567 708 568 761 q 567 586 567 656 q 568 384 568 468 q 568 268 568 300 q 559 174 568 224 q 525 82 550 125 q 455 13 500 39 q 336 -14 410 -14 m 263 1039 l 219 1085 q 227 1092 219 1085 q 247 1111 235 1099 q 274 1138 260 1124 q 301 1167 288 1151 q 324 1193 315 1182 q 333 1204 333 1204 l 396 1144 q 384 1136 396 1144 q 356 1116 372 1128 q 326 1094 340 1104 q 299 1072 314 1085 q 273 1049 283 1058 q 263 1039 263 1039 m 457 1025 l 414 1071 q 422 1078 414 1071 q 442 1097 429 1085 q 468 1124 454 1110 q 496 1153 482 1138 q 519 1179 510 1168 q 528 1190 528 1190 l 590 1131 q 578 1122 590 1131 q 551 1102 567 1114 q 521 1081 535 1090 q 493 1058 508 1071 q 467 1035 478 1044 q 457 1025 457 1025 z "},"Ȗ":{"ha":674,"x_min":103,"x_max":571,"o":"m 336 -14 q 226 7 271 -14 q 156 66 182 28 q 117 155 129 104 q 106 265 106 206 q 106 374 106 314 q 107 493 107 433 q 107 600 107 553 q 107 722 107 663 q 106 842 107 782 q 103 967 106 903 l 211 965 q 208 869 210 919 q 206 768 207 818 q 205 673 206 718 q 204 592 204 628 q 203 507 204 551 q 203 420 203 463 q 203 343 203 378 q 203 288 203 308 q 215 172 203 221 q 256 97 226 124 q 339 71 286 71 q 406 89 381 71 q 447 136 432 107 q 467 200 461 165 q 472 269 472 235 q 473 327 472 283 q 474 438 474 371 q 474 589 474 504 q 472 751 474 678 q 468 881 469 824 q 465 982 467 939 l 571 981 q 570 892 571 935 q 569 806 569 850 q 567 708 568 761 q 567 586 567 656 q 568 384 568 468 q 568 268 568 300 q 559 174 568 224 q 525 82 550 125 q 455 13 500 39 q 336 -14 410 -14 m 169 1038 l 139 1082 q 228 1138 175 1119 q 338 1157 282 1157 q 446 1140 393 1157 q 538 1088 499 1122 l 507 1039 q 428 1076 472 1064 q 339 1088 383 1088 q 247 1075 292 1088 q 169 1038 203 1063 z "},"Ū":{"ha":674,"x_min":103,"x_max":571,"o":"m 336 -14 q 226 7 271 -14 q 156 66 182 28 q 117 155 129 104 q 106 265 106 206 q 106 374 106 314 q 107 493 107 433 q 107 600 107 553 q 107 722 107 663 q 106 842 107 782 q 103 967 106 903 l 211 965 q 208 869 210 919 q 206 768 207 818 q 205 673 206 718 q 204 592 204 628 q 203 507 204 551 q 203 420 203 463 q 203 343 203 378 q 203 288 203 308 q 215 172 203 221 q 256 97 226 124 q 339 71 286 71 q 406 89 381 71 q 447 136 432 107 q 467 200 461 165 q 472 269 472 235 q 473 327 472 283 q 474 438 474 371 q 474 589 474 504 q 472 751 474 678 q 468 881 469 824 q 465 982 467 939 l 571 981 q 570 892 571 935 q 569 806 569 850 q 567 708 568 761 q 567 586 567 656 q 568 384 568 468 q 568 268 568 300 q 559 174 568 224 q 525 82 550 125 q 455 13 500 39 q 336 -14 410 -14 m 182 1067 l 182 1140 l 489 1136 l 496 1071 l 182 1067 z "},"Ų":{"ha":674,"x_min":103,"x_max":571,"o":"m 336 -14 q 226 7 271 -14 q 156 66 182 28 q 117 155 129 104 q 106 265 106 206 q 106 374 106 314 q 107 493 107 433 q 107 600 107 553 q 107 722 107 663 q 106 842 107 782 q 103 967 106 903 l 211 965 q 208 869 210 919 q 206 768 207 818 q 205 673 206 718 q 204 592 204 628 q 203 507 204 551 q 203 420 203 463 q 203 343 203 378 q 203 288 203 308 q 215 172 203 221 q 256 97 226 124 q 339 71 286 71 q 406 89 381 71 q 447 136 432 107 q 467 200 461 165 q 472 269 472 235 q 473 327 472 283 q 474 438 474 371 q 474 589 474 504 q 472 751 474 678 q 468 881 469 824 q 465 982 467 939 l 571 981 q 570 892 571 935 q 569 806 569 850 q 567 708 568 761 q 567 586 567 656 q 568 384 568 468 q 568 268 568 300 q 559 174 568 224 q 525 82 550 125 q 455 13 500 39 q 336 -14 410 -14 m 356 -176 q 253 -159 297 -176 q 210 -101 210 -142 q 231 -53 210 -76 q 280 -12 251 -29 q 333 11 308 6 l 403 4 q 361 -8 390 4 q 308 -40 332 -19 q 283 -83 283 -60 q 307 -108 283 -101 q 361 -115 331 -115 q 405 -113 381 -115 q 443 -110 429 -111 l 443 -168 q 401 -174 422 -172 q 356 -176 379 -176 z "},"Ů":{"ha":674,"x_min":103,"x_max":571,"o":"m 336 -14 q 226 7 271 -14 q 156 66 182 28 q 117 155 129 104 q 106 265 106 206 q 106 374 106 314 q 107 493 107 433 q 107 600 107 553 q 107 722 107 663 q 106 842 107 782 q 103 967 106 903 l 211 965 q 208 869 210 919 q 206 768 207 818 q 205 673 206 718 q 204 592 204 628 q 203 507 204 551 q 203 420 203 463 q 203 343 203 378 q 203 288 203 308 q 215 172 203 221 q 256 97 226 124 q 339 71 286 71 q 406 89 381 71 q 447 136 432 107 q 467 200 461 165 q 472 269 472 235 q 473 327 472 283 q 474 438 474 371 q 474 589 474 504 q 472 751 474 678 q 468 881 469 824 q 465 982 467 939 l 571 981 q 570 892 571 935 q 569 806 569 850 q 567 708 568 761 q 567 586 567 656 q 568 384 568 468 q 568 268 568 300 q 559 174 568 224 q 525 82 550 125 q 455 13 500 39 q 336 -14 410 -14 m 339 1025 q 281 1033 306 1025 q 242 1057 256 1042 q 229 1094 229 1072 q 258 1154 229 1132 q 336 1176 288 1176 q 415 1157 385 1176 q 444 1106 444 1138 q 415 1048 444 1071 q 339 1025 386 1025 m 339 1067 q 363 1070 351 1067 q 381 1082 374 1074 q 388 1103 388 1090 q 372 1128 388 1121 q 336 1135 356 1135 q 300 1126 314 1135 q 286 1103 286 1118 q 292 1083 286 1090 q 310 1071 299 1075 q 339 1067 322 1067 z "},"Ũ":{"ha":674,"x_min":103,"x_max":571,"o":"m 336 -14 q 226 7 271 -14 q 156 66 182 28 q 117 155 129 104 q 106 265 106 206 q 106 374 106 314 q 107 493 107 433 q 107 600 107 553 q 107 722 107 663 q 106 842 107 782 q 103 967 106 903 l 211 965 q 208 869 210 919 q 206 768 207 818 q 205 673 206 718 q 204 592 204 628 q 203 507 204 551 q 203 420 203 463 q 203 343 203 378 q 203 288 203 308 q 215 172 203 221 q 256 97 226 124 q 339 71 286 71 q 406 89 381 71 q 447 136 432 107 q 467 200 461 165 q 472 269 472 235 q 473 327 472 283 q 474 438 474 371 q 474 589 474 504 q 472 751 474 678 q 468 881 469 824 q 465 982 467 939 l 571 981 q 570 892 571 935 q 569 806 569 850 q 567 708 568 761 q 567 586 567 656 q 568 384 568 468 q 568 268 568 300 q 559 174 568 224 q 525 82 550 125 q 455 13 500 39 q 336 -14 410 -14 m 214 1053 l 151 1053 q 169 1110 154 1089 q 208 1141 185 1132 q 260 1150 232 1150 q 340 1135 300 1150 q 415 1121 381 1121 q 448 1127 436 1121 q 463 1150 460 1133 l 525 1150 q 507 1092 522 1114 q 469 1062 492 1071 q 417 1053 446 1053 q 337 1067 376 1053 q 261 1082 297 1082 q 231 1076 240 1082 q 214 1053 221 1069 z "},"V":{"ha":639,"x_min":38,"x_max":601,"o":"m 38 989 l 150 990 q 185 814 168 900 q 217 647 201 728 q 249 486 233 565 q 274 362 261 424 q 298 239 286 300 q 322 117 310 178 q 346 229 333 168 q 372 358 358 290 q 400 497 386 426 q 424 621 413 558 q 449 744 436 683 q 473 865 461 806 q 496 979 485 925 l 601 983 q 580 882 592 938 q 554 765 568 826 q 526 637 540 703 q 499 504 513 571 q 470 363 485 433 q 442 227 456 293 q 417 103 429 161 q 396 0 406 46 l 246 4 q 226 102 238 47 q 201 220 214 157 q 175 351 189 283 q 146 489 161 419 q 117 627 132 558 q 88 760 101 696 q 61 883 74 825 q 38 989 49 942 z "},"W":{"ha":1060,"x_min":38,"x_max":1022,"o":"m 381 0 l 235 0 q 209 135 225 58 q 176 301 193 213 q 139 482 158 390 q 111 619 125 551 q 84 751 97 688 q 59 872 71 815 q 38 974 47 928 l 146 974 q 178 808 163 889 q 208 649 193 726 q 238 496 224 572 q 256 399 247 447 q 275 304 265 351 q 294 210 285 257 q 314 115 304 163 q 332 197 322 153 q 352 290 342 242 q 373 388 363 338 q 393 490 383 439 q 422 641 408 567 q 449 783 436 715 q 469 903 461 850 l 593 904 q 613 789 601 856 q 638 645 624 722 q 669 485 653 568 q 688 392 678 439 q 707 298 697 344 q 726 206 717 251 q 746 118 736 161 q 768 225 756 167 q 794 351 781 283 q 821 489 807 418 q 855 656 838 571 q 889 826 872 742 q 921 990 906 911 l 1022 992 q 998 879 1011 940 q 971 751 985 818 q 942 615 957 685 q 914 475 928 544 q 878 296 896 383 q 847 133 861 208 q 821 0 832 57 l 668 1 q 647 114 658 56 q 624 233 636 172 q 601 353 613 293 q 578 472 590 414 q 561 558 569 517 q 544 638 553 599 q 528 711 536 676 q 515 644 522 681 q 499 568 507 608 q 482 485 490 528 q 457 365 469 426 q 431 242 444 304 q 406 118 418 179 q 381 0 393 57 z "},"Ẃ":{"ha":1060,"x_min":38,"x_max":1022,"o":"m 381 0 l 235 0 q 209 135 225 58 q 176 301 193 213 q 139 482 158 390 q 111 619 125 551 q 84 751 97 688 q 59 872 71 815 q 38 974 47 928 l 146 974 q 178 808 163 889 q 208 649 193 726 q 238 496 224 572 q 256 399 247 447 q 275 304 265 351 q 294 210 285 257 q 314 115 304 163 q 332 197 322 153 q 352 290 342 242 q 373 388 363 338 q 393 490 383 439 q 422 641 408 567 q 449 783 436 715 q 469 903 461 850 l 593 904 q 613 789 601 856 q 638 645 624 722 q 669 485 653 568 q 688 392 678 439 q 707 298 697 344 q 726 206 717 251 q 746 118 736 161 q 768 225 756 167 q 794 351 781 283 q 821 489 807 418 q 855 656 838 571 q 889 826 872 742 q 921 990 906 911 l 1022 992 q 998 879 1011 940 q 971 751 985 818 q 942 615 957 685 q 914 475 928 544 q 878 296 896 383 q 847 133 861 208 q 821 0 832 57 l 668 1 q 647 114 658 56 q 624 233 636 172 q 601 353 613 293 q 578 472 590 414 q 561 558 569 517 q 544 638 553 599 q 528 711 536 676 q 515 644 522 681 q 499 568 507 608 q 482 485 490 528 q 457 365 469 426 q 431 242 444 304 q 406 118 418 179 q 381 0 393 57 m 456 1024 l 425 1076 q 474 1103 449 1089 q 526 1135 500 1118 q 563 1158 544 1146 q 599 1181 581 1169 q 632 1204 617 1193 l 682 1125 q 642 1108 663 1117 q 602 1090 622 1099 q 563 1072 582 1081 q 524 1056 543 1064 q 488 1039 506 1047 q 456 1024 471 1031 z "},"Ŵ":{"ha":1060,"x_min":38,"x_max":1022,"o":"m 381 0 l 235 0 q 209 135 225 58 q 176 301 193 213 q 139 482 158 390 q 111 619 125 551 q 84 751 97 688 q 59 872 71 815 q 38 974 47 928 l 146 974 q 178 808 163 889 q 208 649 193 726 q 238 496 224 572 q 256 399 247 447 q 275 304 265 351 q 294 210 285 257 q 314 115 304 163 q 332 197 322 153 q 352 290 342 242 q 373 388 363 338 q 393 490 383 439 q 422 641 408 567 q 449 783 436 715 q 469 903 461 850 l 593 904 q 613 789 601 856 q 638 645 624 722 q 669 485 653 568 q 688 392 678 439 q 707 298 697 344 q 726 206 717 251 q 746 118 736 161 q 768 225 756 167 q 794 351 781 283 q 821 489 807 418 q 855 656 838 571 q 889 826 872 742 q 921 990 906 911 l 1022 992 q 998 879 1011 940 q 971 751 985 818 q 942 615 957 685 q 914 475 928 544 q 878 296 896 383 q 847 133 861 208 q 821 0 832 57 l 668 1 q 647 114 658 56 q 624 233 636 172 q 601 353 613 293 q 578 472 590 414 q 561 558 569 517 q 544 638 553 599 q 528 711 536 676 q 515 644 522 681 q 499 568 507 608 q 482 485 490 528 q 457 365 469 426 q 431 242 444 304 q 406 118 418 179 q 381 0 393 57 m 646 1028 l 524 1099 l 406 1031 l 369 1067 l 475 1165 l 572 1163 l 681 1069 l 646 1028 z "},"Ẅ":{"ha":1060,"x_min":38,"x_max":1022,"o":"m 381 0 l 235 0 q 209 135 225 58 q 176 301 193 213 q 139 482 158 390 q 111 619 125 551 q 84 751 97 688 q 59 872 71 815 q 38 974 47 928 l 146 974 q 178 808 163 889 q 208 649 193 726 q 238 496 224 572 q 256 399 247 447 q 275 304 265 351 q 294 210 285 257 q 314 115 304 163 q 332 197 322 153 q 352 290 342 242 q 373 388 363 338 q 393 490 383 439 q 422 641 408 567 q 449 783 436 715 q 469 903 461 850 l 593 904 q 613 789 601 856 q 638 645 624 722 q 669 485 653 568 q 688 392 678 439 q 707 298 697 344 q 726 206 717 251 q 746 118 736 161 q 768 225 756 167 q 794 351 781 283 q 821 489 807 418 q 855 656 838 571 q 889 826 872 742 q 921 990 906 911 l 1022 992 q 998 879 1011 940 q 971 751 985 818 q 942 615 957 685 q 914 475 928 544 q 878 296 896 383 q 847 133 861 208 q 821 0 832 57 l 668 1 q 647 114 658 56 q 624 233 636 172 q 601 353 613 293 q 578 472 590 414 q 561 558 569 517 q 544 638 553 599 q 528 711 536 676 q 515 644 522 681 q 499 568 507 608 q 482 485 490 528 q 457 365 469 426 q 431 242 444 304 q 406 118 418 179 q 381 0 393 57 m 342 1165 l 431 1156 l 426 1047 l 344 1046 l 342 1165 m 618 1165 l 707 1156 l 703 1047 l 621 1046 l 618 1165 z "},"Ẁ":{"ha":1060,"x_min":38,"x_max":1022,"o":"m 381 0 l 235 0 q 209 135 225 58 q 176 301 193 213 q 139 482 158 390 q 111 619 125 551 q 84 751 97 688 q 59 872 71 815 q 38 974 47 928 l 146 974 q 178 808 163 889 q 208 649 193 726 q 238 496 224 572 q 256 399 247 447 q 275 304 265 351 q 294 210 285 257 q 314 115 304 163 q 332 197 322 153 q 352 290 342 242 q 373 388 363 338 q 393 490 383 439 q 422 641 408 567 q 449 783 436 715 q 469 903 461 850 l 593 904 q 613 789 601 856 q 638 645 624 722 q 669 485 653 568 q 688 392 678 439 q 707 298 697 344 q 726 206 717 251 q 746 118 736 161 q 768 225 756 167 q 794 351 781 283 q 821 489 807 418 q 855 656 838 571 q 889 826 872 742 q 921 990 906 911 l 1022 992 q 998 879 1011 940 q 971 751 985 818 q 942 615 957 685 q 914 475 928 544 q 878 296 896 383 q 847 133 861 208 q 821 0 832 57 l 668 1 q 647 114 658 56 q 624 233 636 172 q 601 353 613 293 q 578 472 590 414 q 561 558 569 517 q 544 638 553 599 q 528 711 536 676 q 515 644 522 681 q 499 568 507 608 q 482 485 490 528 q 457 365 469 426 q 431 242 444 304 q 406 118 418 179 q 381 0 393 57 m 599 1018 q 566 1033 583 1025 q 530 1049 549 1040 q 492 1067 511 1058 q 452 1085 472 1076 q 412 1102 432 1093 q 372 1119 392 1111 l 422 1199 q 474 1163 446 1182 q 528 1129 501 1144 q 581 1099 556 1114 q 629 1071 607 1083 l 599 1018 z "},"X":{"ha":615,"x_min":3,"x_max":613,"o":"m 3 -3 q 25 41 3 -3 q 84 157 47 85 q 165 318 121 229 q 254 499 210 407 q 335 669 296 586 q 406 817 375 751 q 456 922 438 883 q 475 961 475 961 l 589 960 q 567 919 589 960 q 510 812 546 879 q 432 660 475 744 q 346 486 389 575 q 261 308 301 394 q 189 151 221 221 q 139 40 157 82 q 121 -1 121 -1 l 3 -3 m 488 -15 q 469 28 488 -15 q 422 142 451 71 q 353 302 392 214 q 272 481 314 390 q 189 654 231 569 q 113 808 147 739 q 58 917 79 876 q 38 958 38 958 l 161 956 q 177 919 161 956 q 221 821 193 883 q 285 679 249 758 q 363 513 322 600 q 431 367 396 440 q 498 226 465 293 q 556 105 531 158 q 597 21 582 51 q 613 -10 613 -10 l 488 -15 z "},"Y":{"ha":568,"x_min":7,"x_max":561,"o":"m 226 0 q 228 78 226 0 q 228 324 231 156 l 324 311 q 326 199 325 254 q 329 99 328 143 q 331 28 331 54 q 332 1 332 1 l 226 0 m 7 978 l 118 978 q 149 867 133 926 q 181 744 164 807 q 214 618 197 681 q 238 529 226 572 q 259 449 249 486 q 279 381 269 411 q 300 444 289 408 q 323 519 311 479 q 347 604 335 560 q 373 693 360 647 q 399 785 386 739 q 424 878 411 832 q 450 967 438 924 l 561 969 q 536 894 550 936 q 506 802 522 851 q 474 700 490 753 q 440 593 457 647 q 406 483 422 538 q 373 376 389 428 q 344 278 357 324 q 319 196 331 233 l 236 196 q 212 285 225 238 q 184 383 199 332 q 154 488 169 435 q 122 596 139 542 q 91 703 107 650 q 60 806 75 757 q 32 899 46 856 q 7 978 18 943 z "},"Ý":{"ha":568,"x_min":7,"x_max":561,"o":"m 226 0 q 228 78 226 0 q 228 324 231 156 l 324 311 q 326 199 325 254 q 329 99 328 143 q 331 28 331 54 q 332 1 332 1 l 226 0 m 7 978 l 118 978 q 149 867 133 926 q 181 744 164 807 q 214 618 197 681 q 238 529 226 572 q 259 449 249 486 q 279 381 269 411 q 300 444 289 408 q 323 519 311 479 q 347 604 335 560 q 373 693 360 647 q 399 785 386 739 q 424 878 411 832 q 450 967 438 924 l 561 969 q 536 894 550 936 q 506 802 522 851 q 474 700 490 753 q 440 593 457 647 q 406 483 422 538 q 373 376 389 428 q 344 278 357 324 q 319 196 331 233 l 236 196 q 212 285 225 238 q 184 383 199 332 q 154 488 169 435 q 122 596 139 542 q 91 703 107 650 q 60 806 75 757 q 32 899 46 856 q 7 978 18 943 m 213 1024 l 182 1076 q 231 1103 206 1089 q 283 1135 257 1118 q 319 1158 301 1146 q 356 1181 338 1169 q 389 1204 374 1193 l 439 1125 q 399 1108 419 1117 q 359 1090 379 1099 q 319 1072 339 1081 q 281 1056 300 1064 q 245 1039 263 1047 q 213 1024 228 1031 z "},"Ŷ":{"ha":568,"x_min":7,"x_max":561,"o":"m 226 0 q 228 78 226 0 q 228 324 231 156 l 324 311 q 326 199 325 254 q 329 99 328 143 q 331 28 331 54 q 332 1 332 1 l 226 0 m 7 978 l 118 978 q 149 867 133 926 q 181 744 164 807 q 214 618 197 681 q 238 529 226 572 q 259 449 249 486 q 279 381 269 411 q 300 444 289 408 q 323 519 311 479 q 347 604 335 560 q 373 693 360 647 q 399 785 386 739 q 424 878 411 832 q 450 967 438 924 l 561 969 q 536 894 550 936 q 506 802 522 851 q 474 700 490 753 q 440 593 457 647 q 406 483 422 538 q 373 376 389 428 q 344 278 357 324 q 319 196 331 233 l 236 196 q 212 285 225 238 q 184 383 199 332 q 154 488 169 435 q 122 596 139 542 q 91 703 107 650 q 60 806 75 757 q 32 899 46 856 q 7 978 18 943 m 403 1028 l 281 1099 l 163 1031 l 126 1067 l 232 1165 l 329 1163 l 438 1069 l 403 1028 z "}}}
